G04*
G04 #@! TF.GenerationSoftware,Altium Limited,Altium Designer,19.0.15 (446)*
G04*
G04 Layer_Physical_Order=1*
G04 Layer_Color=255*
%FSLAX25Y25*%
%MOIN*%
G70*
G01*
G75*
%ADD15R,0.05512X0.04331*%
%ADD16R,0.05315X0.04921*%
%ADD17R,0.04331X0.05512*%
%ADD18R,0.04921X0.05315*%
G04:AMPARAMS|DCode=19|XSize=67.32mil|YSize=48.42mil|CornerRadius=6.05mil|HoleSize=0mil|Usage=FLASHONLY|Rotation=90.000|XOffset=0mil|YOffset=0mil|HoleType=Round|Shape=RoundedRectangle|*
%AMROUNDEDRECTD19*
21,1,0.06732,0.03632,0,0,90.0*
21,1,0.05522,0.04842,0,0,90.0*
1,1,0.01211,0.01816,0.02761*
1,1,0.01211,0.01816,-0.02761*
1,1,0.01211,-0.01816,-0.02761*
1,1,0.01211,-0.01816,0.02761*
%
%ADD19ROUNDEDRECTD19*%
%ADD20R,0.03622X0.02402*%
%ADD21R,0.02402X0.03622*%
%ADD22R,0.05500X0.00800*%
%ADD23R,0.04291X0.05787*%
%ADD24R,0.08268X0.05512*%
%ADD25R,0.04331X0.05709*%
%ADD26R,0.05709X0.04331*%
%ADD49C,0.01000*%
%ADD50C,0.02000*%
%ADD51C,0.03000*%
%ADD52C,0.07087*%
%ADD53R,0.07087X0.07087*%
%ADD54C,0.06024*%
%ADD55R,0.06024X0.06024*%
%ADD56R,0.05394X0.05394*%
%ADD57C,0.05394*%
%ADD58R,0.05394X0.05394*%
%ADD59C,0.12598*%
%ADD60C,0.03500*%
%ADD61C,0.05000*%
G36*
X-7874Y140691D02*
X-6487Y140554D01*
X-5154Y140150D01*
X-3925Y139493D01*
X-2848Y138609D01*
X-1964Y137532D01*
X-1307Y136303D01*
X-902Y134969D01*
X-766Y133583D01*
X-765D01*
X-765Y-67205D01*
X-766D01*
X-902Y-68591D01*
X-1307Y-69925D01*
X-1964Y-71154D01*
X-2848Y-72231D01*
X-3925Y-73115D01*
X-5154Y-73772D01*
X-6487Y-74176D01*
X-7874Y-74313D01*
Y-74314D01*
X-47335D01*
X-47335Y-74314D01*
X-47627Y-74372D01*
X-47875Y-74538D01*
X-47875Y-74538D01*
X-55525Y-82188D01*
X-184813D01*
X-192463Y-74538D01*
X-192711Y-74372D01*
X-193004Y-74314D01*
X-202894D01*
Y-74313D01*
X-204280Y-74176D01*
X-205614Y-73772D01*
X-206843Y-73115D01*
X-207920Y-72231D01*
X-208804Y-71154D01*
X-209461Y-69925D01*
X-209865Y-68591D01*
X-210002Y-67205D01*
X-210003D01*
X-210003Y133083D01*
X-210002Y133583D01*
X-210002Y133583D01*
X-210002Y133583D01*
X-209865Y134969D01*
X-209461Y136303D01*
X-208804Y137532D01*
X-207920Y138609D01*
X-206843Y139493D01*
X-205614Y140150D01*
X-204280Y140554D01*
X-202894Y140691D01*
Y140692D01*
X-7874D01*
Y140691D01*
D02*
G37*
%LPC*%
G36*
X-174144Y133164D02*
X-174149Y133162D01*
X-174153Y133164D01*
X-174340Y133083D01*
X-174527Y133005D01*
X-174529Y133001D01*
X-174533Y132999D01*
X-174565Y132919D01*
X-174608Y132810D01*
X-174685Y132623D01*
Y132417D01*
X-175394D01*
X-175784Y132340D01*
X-176115Y132119D01*
X-176336Y131788D01*
X-176413Y131398D01*
X-176336Y131008D01*
X-176115Y130677D01*
X-175784Y130456D01*
X-175394Y130378D01*
X-174685D01*
Y130173D01*
X-174608Y129985D01*
X-174533Y129797D01*
X-174529Y129795D01*
X-174527Y129790D01*
X-174340Y129712D01*
X-174153Y129631D01*
X-174149Y129633D01*
X-174144Y129631D01*
X-174074Y129660D01*
X-174074D01*
X-174065Y129664D01*
X-173957Y129709D01*
X-173768Y129783D01*
X-173637Y129910D01*
X-173519Y130011D01*
X-173403Y130098D01*
X-173291Y130171D01*
X-173181Y130230D01*
X-173075Y130277D01*
X-172971Y130312D01*
X-172869Y130336D01*
X-172768Y130351D01*
X-172641Y130357D01*
X-172596Y130378D01*
X-170912D01*
X-170864Y130357D01*
X-170688Y130352D01*
X-170554Y130340D01*
X-170448Y130323D01*
X-170374Y130303D01*
X-170351Y130294D01*
X-170290Y130182D01*
X-170230Y130038D01*
X-170230D01*
X-170221Y130015D01*
X-170193Y130003D01*
X-170178Y129976D01*
X-170005Y129926D01*
X-169838Y129856D01*
X-169810Y129868D01*
X-169781Y129859D01*
X-169622Y129946D01*
X-169456Y130015D01*
X-169444Y130043D01*
X-169417Y130058D01*
X-169410Y130082D01*
X-169410D01*
X-169393Y130140D01*
X-169366Y130231D01*
X-169305Y130378D01*
X-165925D01*
X-165827Y130398D01*
X-165728Y130378D01*
X-165338Y130456D01*
X-165007Y130677D01*
X-164786Y131008D01*
X-164709Y131398D01*
X-164786Y131788D01*
X-165007Y132119D01*
X-165106Y132217D01*
X-165437Y132438D01*
X-165827Y132516D01*
X-166217Y132438D01*
X-166248Y132417D01*
X-169305D01*
X-169366Y132564D01*
X-169417Y132738D01*
X-169444Y132752D01*
X-169456Y132780D01*
X-169622Y132850D01*
X-169781Y132936D01*
X-169810Y132927D01*
X-169838Y132939D01*
X-170005Y132870D01*
X-170178Y132819D01*
X-170193Y132792D01*
X-170221Y132780D01*
X-170290Y132614D01*
X-170351Y132501D01*
X-170374Y132492D01*
X-170448Y132472D01*
X-170554Y132455D01*
X-170688Y132443D01*
X-170864Y132439D01*
X-170912Y132417D01*
X-172596D01*
X-172641Y132438D01*
X-172768Y132444D01*
X-172869Y132459D01*
X-172971Y132483D01*
X-173075Y132518D01*
X-173181Y132565D01*
X-173291Y132625D01*
X-173403Y132697D01*
X-173519Y132784D01*
X-173637Y132885D01*
X-173768Y133012D01*
X-173957Y133086D01*
X-174065Y133131D01*
X-174074Y133135D01*
X-174074Y133135D01*
X-174144Y133164D01*
X-174144Y133164D01*
D02*
G37*
G36*
X-200768Y138722D02*
X-202101Y138591D01*
X-203382Y138202D01*
X-204563Y137571D01*
X-205599Y136721D01*
X-206448Y135686D01*
X-207080Y134504D01*
X-207469Y133223D01*
X-207600Y131890D01*
X-207469Y130557D01*
X-207080Y129275D01*
X-206448Y128094D01*
X-205599Y127059D01*
X-204563Y126209D01*
X-203382Y125578D01*
X-202101Y125189D01*
X-200768Y125058D01*
X-199435Y125189D01*
X-198153Y125578D01*
X-196972Y126209D01*
X-195937Y127059D01*
X-195087Y128094D01*
X-194456Y129275D01*
X-194067Y130557D01*
X-193936Y131890D01*
X-194067Y133223D01*
X-194456Y134504D01*
X-195087Y135686D01*
X-195937Y136721D01*
X-196972Y137571D01*
X-198153Y138202D01*
X-199435Y138591D01*
X-200768Y138722D01*
D02*
G37*
G36*
X-46180Y124487D02*
X-46366Y124409D01*
X-46555Y124333D01*
X-46557Y124329D01*
X-46561Y124327D01*
X-46594Y124247D01*
X-46638Y124139D01*
X-46718Y123953D01*
X-46720Y123747D01*
X-47429Y123756D01*
X-47820Y123683D01*
X-48153Y123466D01*
X-48378Y123138D01*
X-48461Y122748D01*
X-48388Y122357D01*
X-48171Y122024D01*
X-47842Y121799D01*
X-47453Y121717D01*
X-46745Y121708D01*
X-46747Y121503D01*
X-46672Y121315D01*
X-46600Y121125D01*
X-46595Y121123D01*
X-46593Y121118D01*
X-46407Y121038D01*
X-46222Y120955D01*
X-46217Y120957D01*
X-46213Y120955D01*
X-46142Y120983D01*
X-46142Y120983D01*
X-46133Y120987D01*
X-46025Y121030D01*
X-45835Y121102D01*
X-45702Y121228D01*
X-45583Y121327D01*
X-45466Y121413D01*
X-45353Y121484D01*
X-45243Y121542D01*
X-45136Y121588D01*
X-45031Y121622D01*
X-44929Y121645D01*
X-44828Y121658D01*
X-44701Y121662D01*
X-44656Y121683D01*
X-42789Y121660D01*
X-42741Y121639D01*
X-42565Y121632D01*
X-42430Y121618D01*
X-42324Y121600D01*
X-42250Y121579D01*
X-42224Y121568D01*
X-42160Y121451D01*
X-42091Y121284D01*
X-42063Y121273D01*
X-42048Y121246D01*
X-41875Y121195D01*
X-41708Y121126D01*
X-41680Y121138D01*
X-41651Y121129D01*
X-41492Y121215D01*
X-41326Y121284D01*
X-41314Y121313D01*
X-41287Y121327D01*
X-41280Y121351D01*
X-41280Y121351D01*
X-41263Y121409D01*
X-41236Y121500D01*
X-41178Y121641D01*
X-39284Y121618D01*
X-38893Y121691D01*
X-38559Y121908D01*
X-38334Y122236D01*
X-38252Y122626D01*
X-38325Y123017D01*
X-38542Y123350D01*
X-38870Y123575D01*
X-39259Y123657D01*
X-41173Y123680D01*
X-41236Y123834D01*
X-41287Y124007D01*
X-41314Y124022D01*
X-41326Y124050D01*
X-41492Y124119D01*
X-41651Y124206D01*
X-41680Y124197D01*
X-41708Y124209D01*
X-41875Y124139D01*
X-42048Y124089D01*
X-42063Y124062D01*
X-42091Y124050D01*
X-42160Y123883D01*
X-42219Y123776D01*
X-42239Y123768D01*
X-42312Y123749D01*
X-42417Y123733D01*
X-42552Y123723D01*
X-42728Y123721D01*
X-42776Y123700D01*
X-44632Y123722D01*
X-44676Y123744D01*
X-44803Y123751D01*
X-44904Y123767D01*
X-45005Y123793D01*
X-45109Y123829D01*
X-45214Y123877D01*
X-45323Y123938D01*
X-45435Y124012D01*
X-45549Y124100D01*
X-45666Y124203D01*
X-45796Y124331D01*
X-45984Y124407D01*
X-46170Y124487D01*
X-46175Y124485D01*
X-46180Y124487D01*
D02*
G37*
G36*
X-10000Y133722D02*
X-11333Y133591D01*
X-12615Y133202D01*
X-13796Y132571D01*
X-14831Y131721D01*
X-15681Y130685D01*
X-16312Y129504D01*
X-16701Y128223D01*
X-16832Y126890D01*
X-16701Y125557D01*
X-16312Y124275D01*
X-15681Y123094D01*
X-14831Y122059D01*
X-13796Y121209D01*
X-12615Y120578D01*
X-11333Y120189D01*
X-10000Y120058D01*
X-8667Y120189D01*
X-7385Y120578D01*
X-6204Y121209D01*
X-5169Y122059D01*
X-4319Y123094D01*
X-3688Y124275D01*
X-3299Y125557D01*
X-3168Y126890D01*
X-3299Y128223D01*
X-3688Y129504D01*
X-4319Y130685D01*
X-5169Y131721D01*
X-6204Y132571D01*
X-7385Y133202D01*
X-8667Y133591D01*
X-10000Y133722D01*
D02*
G37*
G36*
X-36909Y137254D02*
X-112894D01*
X-113276Y137095D01*
X-113435Y136713D01*
Y116169D01*
X-114200Y115403D01*
X-115441D01*
Y120874D01*
X-117499D01*
X-117504Y120886D01*
X-117524Y120960D01*
X-117541Y121065D01*
X-117553Y121200D01*
X-117557Y121376D01*
X-117579Y121424D01*
Y121981D01*
X-117557Y122029D01*
X-117553Y122205D01*
X-117541Y122340D01*
X-117524Y122446D01*
X-117504Y122520D01*
X-117499Y122531D01*
X-115342D01*
Y127862D01*
X-121854D01*
Y122531D01*
X-119698D01*
X-119693Y122520D01*
X-119673Y122446D01*
X-119656Y122340D01*
X-119644Y122205D01*
X-119639Y122029D01*
X-119618Y121981D01*
Y121424D01*
X-119639Y121376D01*
X-119644Y121200D01*
X-119656Y121065D01*
X-119673Y120960D01*
X-119693Y120886D01*
X-119698Y120874D01*
X-121756D01*
Y119013D01*
X-121768Y119008D01*
X-121842Y118988D01*
X-121947Y118971D01*
X-122082Y118959D01*
X-122258Y118954D01*
X-122306Y118933D01*
X-128917D01*
X-129307Y118855D01*
X-129638Y118634D01*
X-130229Y118044D01*
X-130450Y117713D01*
X-130505Y117434D01*
X-130549Y117335D01*
X-130552Y117180D01*
X-130562Y117060D01*
X-130576Y116967D01*
X-130583Y116937D01*
X-134535D01*
Y114780D01*
X-134547Y114776D01*
X-134621Y114756D01*
X-134727Y114739D01*
X-134862Y114727D01*
X-135038Y114722D01*
X-135086Y114701D01*
X-160544D01*
X-160592Y114722D01*
X-160768Y114727D01*
X-160903Y114739D01*
X-161009Y114756D01*
X-161082Y114776D01*
X-161094Y114780D01*
Y116937D01*
X-170362D01*
Y114780D01*
X-170374Y114776D01*
X-170448Y114756D01*
X-170554Y114739D01*
X-170688Y114727D01*
X-170864Y114722D01*
X-170912Y114701D01*
X-173266D01*
X-173310Y114722D01*
X-173437Y114728D01*
X-173538Y114742D01*
X-173640Y114767D01*
X-173744Y114802D01*
X-173850Y114849D01*
X-173960Y114908D01*
X-174072Y114981D01*
X-174188Y115068D01*
X-174306Y115169D01*
X-174433Y115291D01*
X-174441Y115303D01*
X-175185Y115801D01*
X-176063Y115975D01*
X-176941Y115801D01*
X-177685Y115303D01*
X-178182Y114559D01*
X-178357Y113681D01*
X-178182Y112803D01*
X-177685Y112059D01*
X-176941Y111562D01*
X-176063Y111387D01*
X-175185Y111562D01*
X-174441Y112059D01*
X-174433Y112071D01*
X-174306Y112193D01*
X-174188Y112295D01*
X-174072Y112381D01*
X-173960Y112454D01*
X-173850Y112513D01*
X-173744Y112560D01*
X-173640Y112595D01*
X-173538Y112620D01*
X-173437Y112635D01*
X-173310Y112641D01*
X-173266Y112662D01*
X-170912D01*
X-170864Y112640D01*
X-170688Y112636D01*
X-170554Y112624D01*
X-170448Y112606D01*
X-170374Y112587D01*
X-170362Y112582D01*
Y110425D01*
X-161094D01*
Y112582D01*
X-161082Y112587D01*
X-161009Y112606D01*
X-160903Y112624D01*
X-160768Y112636D01*
X-160592Y112640D01*
X-160544Y112662D01*
X-135086D01*
X-135038Y112640D01*
X-134862Y112636D01*
X-134727Y112624D01*
X-134621Y112606D01*
X-134547Y112587D01*
X-134535Y112582D01*
Y110425D01*
X-125268D01*
Y116894D01*
X-122306D01*
X-122258Y116872D01*
X-122082Y116868D01*
X-121947Y116856D01*
X-121842Y116839D01*
X-121768Y116819D01*
X-121756Y116814D01*
Y115403D01*
X-122988D01*
X-123371Y115245D01*
X-123529Y114862D01*
Y109240D01*
X-136338Y96431D01*
X-189960D01*
X-189986Y96443D01*
X-190352Y96452D01*
X-190657Y96479D01*
X-190912Y96521D01*
X-191115Y96576D01*
X-191265Y96637D01*
X-191363Y96696D01*
X-191417Y96746D01*
X-191444Y96787D01*
X-191461Y96832D01*
X-191474Y96959D01*
X-191488Y96985D01*
X-191488Y97862D01*
X-191488Y98362D01*
Y103965D01*
X-197803D01*
Y102645D01*
X-197815Y102640D01*
X-197889Y102620D01*
X-197994Y102603D01*
X-198129Y102591D01*
X-198305Y102586D01*
X-198353Y102565D01*
X-199717D01*
X-199766Y102586D01*
X-199939Y102591D01*
X-200071Y102603D01*
X-200175Y102620D01*
X-200246Y102639D01*
X-200266Y102647D01*
X-200268Y102650D01*
Y104161D01*
X-206976D01*
Y98831D01*
X-200268D01*
Y100440D01*
X-200266Y100443D01*
X-200246Y100452D01*
X-200175Y100471D01*
X-200071Y100488D01*
X-199939Y100500D01*
X-199766Y100504D01*
X-199717Y100526D01*
X-198353D01*
X-198305Y100504D01*
X-198129Y100500D01*
X-197994Y100488D01*
X-197889Y100470D01*
X-197815Y100451D01*
X-197803Y100446D01*
Y98362D01*
X-197803Y98043D01*
X-197803Y97543D01*
Y91941D01*
X-196751D01*
X-196702Y91915D01*
X-196576Y91901D01*
X-196530Y91885D01*
X-196489Y91858D01*
X-196439Y91804D01*
X-196380Y91708D01*
X-196319Y91559D01*
X-196265Y91358D01*
X-196223Y91105D01*
X-196196Y90802D01*
X-196190Y90558D01*
X-196195Y90331D01*
X-196219Y90054D01*
X-196234Y89956D01*
X-196252Y89875D01*
X-196268Y89820D01*
X-196277Y89797D01*
X-196280Y89794D01*
X-196289Y89782D01*
X-196290Y89777D01*
X-196765Y89067D01*
X-196940Y88189D01*
X-196765Y87311D01*
X-196290Y86601D01*
X-196289Y86596D01*
X-196280Y86584D01*
X-196277Y86581D01*
X-196268Y86558D01*
X-196252Y86503D01*
X-196234Y86422D01*
X-196220Y86328D01*
X-196189Y85876D01*
X-196187Y85697D01*
X-196175Y85669D01*
Y51624D01*
X-203642D01*
X-204024Y51465D01*
X-204024Y51465D01*
X-208257Y47233D01*
X-208415Y46850D01*
X-208257Y46468D01*
X-202042Y40253D01*
X-202139Y39762D01*
X-202380Y39663D01*
X-203048Y39150D01*
X-203560Y38482D01*
X-203882Y37705D01*
X-203992Y36870D01*
X-203882Y36036D01*
X-203560Y35258D01*
X-203048Y34590D01*
X-202380Y34078D01*
X-201602Y33755D01*
X-200768Y33646D01*
X-199933Y33755D01*
X-199155Y34078D01*
X-198488Y34590D01*
X-197975Y35258D01*
X-197653Y36036D01*
X-197543Y36870D01*
X-197653Y37705D01*
X-197975Y38482D01*
X-198386Y39018D01*
X-198201Y39518D01*
X-193455D01*
Y-2264D01*
X-193455Y-2264D01*
X-193296Y-2647D01*
X-175678Y-20265D01*
X-175295Y-20423D01*
X-175295Y-20423D01*
X-165256D01*
X-164873Y-20265D01*
X-164715Y-19882D01*
X-164715Y-16869D01*
X-162222D01*
X-161832Y-16791D01*
X-161769Y-16749D01*
X-158972D01*
Y-14949D01*
X-161769D01*
X-161832Y-14908D01*
X-162222Y-14830D01*
X-164816D01*
X-164960Y-14770D01*
X-164970Y-14774D01*
X-164981Y-14771D01*
X-165166Y-14778D01*
X-167728Y-12215D01*
X-167728Y-12215D01*
X-167728Y-12215D01*
X-167816Y-12127D01*
X-167816Y-12127D01*
X-168199Y-11968D01*
X-168199Y-11968D01*
X-174900Y-11968D01*
X-175011Y-11701D01*
X-175011Y-11701D01*
X-175365Y-11347D01*
X-175365Y-11347D01*
X-175451Y-11311D01*
Y-6940D01*
X-175394D01*
X-175011Y-6782D01*
X-174853Y-6399D01*
Y-1095D01*
X-174353Y-943D01*
X-173965Y-1524D01*
X-173220Y-2021D01*
X-172343Y-2196D01*
X-171465Y-2021D01*
X-170720Y-1524D01*
X-170712Y-1511D01*
X-170586Y-1389D01*
X-170467Y-1288D01*
X-170352Y-1201D01*
X-170239Y-1129D01*
X-170130Y-1069D01*
X-170023Y-1022D01*
X-169920Y-987D01*
X-169818Y-963D01*
X-169717Y-948D01*
X-169590Y-942D01*
X-169545Y-921D01*
X-168042D01*
X-167994Y-943D01*
X-167818Y-947D01*
X-167683Y-959D01*
X-167578Y-976D01*
X-167504Y-996D01*
X-167492Y-1001D01*
Y-1617D01*
X-167847Y-1972D01*
X-168068Y-2303D01*
X-168146Y-2693D01*
Y-7384D01*
X-168068Y-7774D01*
X-167847Y-8105D01*
X-167261Y-8690D01*
X-166930Y-8911D01*
X-166540Y-8989D01*
X-166017D01*
X-165967Y-9011D01*
X-165960Y-9011D01*
X-165472Y-9040D01*
X-165472Y-10839D01*
X-163263D01*
X-163250Y-10853D01*
X-163044Y-11339D01*
X-163161Y-11512D01*
X-163242Y-11902D01*
X-163167Y-12293D01*
X-162948Y-12625D01*
X-162619Y-12848D01*
X-162230Y-12929D01*
X-159581Y-12948D01*
X-159484Y-12989D01*
X-159481Y-12988D01*
X-159478Y-12989D01*
X-158499Y-12978D01*
X-158454Y-12993D01*
X-158215Y-13140D01*
X-158056Y-13460D01*
X-158059Y-13543D01*
X-158043Y-13561D01*
X-158042Y-13584D01*
X-157905Y-13710D01*
X-157779Y-13847D01*
X-157755Y-13848D01*
X-157737Y-13864D01*
X-157699Y-13863D01*
X-157699D01*
X-157651Y-13861D01*
X-157551Y-13857D01*
X-157365Y-13864D01*
X-157100Y-14133D01*
X-157008Y-14252D01*
X-156946Y-14563D01*
X-156725Y-14894D01*
X-156394Y-15115D01*
X-156004Y-15193D01*
X-155614Y-15115D01*
X-155283Y-14894D01*
X-155062Y-14563D01*
X-154984Y-14173D01*
Y-13325D01*
X-155062Y-12934D01*
X-155198Y-12730D01*
X-155142Y-12669D01*
Y-12669D01*
X-155124Y-12649D01*
X-155125Y-12620D01*
X-155107Y-12596D01*
X-155133Y-12416D01*
X-155141Y-12235D01*
X-155163Y-12215D01*
X-155167Y-12186D01*
X-155313Y-12078D01*
X-155447Y-11955D01*
X-155475Y-11956D01*
X-155499Y-11939D01*
X-155615Y-11909D01*
X-155714Y-11877D01*
X-155813Y-11837D01*
X-155914Y-11788D01*
X-156016Y-11732D01*
X-156120Y-11666D01*
X-156220Y-11594D01*
X-156444Y-11407D01*
X-156556Y-11300D01*
X-156606Y-11280D01*
X-156663Y-11224D01*
X-156825Y-11116D01*
X-156986Y-11006D01*
X-156990Y-11005D01*
X-156993Y-11003D01*
X-157157Y-10970D01*
X-157205Y-10895D01*
X-157330Y-10453D01*
X-157329Y-10444D01*
X-153413Y-6528D01*
X-153192Y-6197D01*
X-153114Y-5807D01*
Y-3511D01*
X-153093Y-3463D01*
X-153088Y-3287D01*
X-153077Y-3152D01*
X-153059Y-3046D01*
X-153040Y-2973D01*
X-153035Y-2961D01*
X-151272D01*
Y-1099D01*
X-151260Y-1094D01*
X-151186Y-1075D01*
X-151080Y-1057D01*
X-150945Y-1046D01*
X-150770Y-1041D01*
X-150721Y-1020D01*
X-148270D01*
X-148225Y-1041D01*
X-148098Y-1047D01*
X-147997Y-1061D01*
X-147895Y-1086D01*
X-147792Y-1121D01*
X-147685Y-1168D01*
X-147576Y-1227D01*
X-147463Y-1299D01*
X-147348Y-1386D01*
X-147229Y-1488D01*
X-147103Y-1610D01*
X-147095Y-1622D01*
X-146350Y-2120D01*
X-145472Y-2294D01*
X-144595Y-2120D01*
X-143850Y-1622D01*
X-143353Y-878D01*
X-143178Y0D01*
X-143353Y878D01*
X-143850Y1622D01*
X-144595Y2120D01*
X-145472Y2294D01*
X-146350Y2120D01*
X-147095Y1622D01*
X-147103Y1610D01*
X-147229Y1488D01*
X-147348Y1386D01*
X-147463Y1300D01*
X-147576Y1227D01*
X-147685Y1168D01*
X-147792Y1121D01*
X-147895Y1086D01*
X-147997Y1061D01*
X-148098Y1047D01*
X-148225Y1041D01*
X-148270Y1020D01*
X-150721D01*
X-150770Y1041D01*
X-150945Y1046D01*
X-151080Y1057D01*
X-151186Y1075D01*
X-151260Y1094D01*
X-151272Y1099D01*
Y2961D01*
X-150789Y3002D01*
X-146063D01*
X-145680Y3161D01*
X-145522Y3543D01*
Y11193D01*
X-144499Y12216D01*
X-144341Y12598D01*
X-144499Y12981D01*
X-144499Y12981D01*
X-180758Y49240D01*
Y51083D01*
X-180917Y51465D01*
X-181299Y51624D01*
X-193116D01*
Y85663D01*
X-193105Y85690D01*
X-193096Y86047D01*
X-193072Y86324D01*
X-193057Y86422D01*
X-193040Y86503D01*
X-193024Y86558D01*
X-193021Y86564D01*
X-193015Y86567D01*
X-192959Y86583D01*
X-192879Y86600D01*
X-192785Y86615D01*
X-192333Y86646D01*
X-192153Y86648D01*
X-192126Y86660D01*
X-183984D01*
X-171081Y73757D01*
X-170585Y73426D01*
X-170000Y73309D01*
X-165480D01*
X-165467Y73302D01*
X-165440Y73309D01*
X-165415Y73298D01*
X-165184Y73290D01*
X-164987Y73270D01*
X-164805Y73236D01*
X-164640Y73191D01*
X-164489Y73135D01*
X-164351Y73068D01*
X-164226Y72991D01*
X-164111Y72902D01*
X-164005Y72800D01*
X-163889Y72665D01*
X-163805Y72623D01*
X-163640Y72407D01*
X-163013Y71926D01*
X-162283Y71624D01*
X-161500Y71521D01*
X-160717Y71624D01*
X-159987Y71926D01*
X-159360Y72407D01*
X-158879Y73033D01*
X-158577Y73763D01*
X-158474Y74546D01*
X-158577Y75330D01*
X-158879Y76059D01*
X-159360Y76686D01*
X-159987Y77167D01*
X-160717Y77469D01*
X-161500Y77572D01*
X-162283Y77469D01*
X-163013Y77167D01*
X-163293Y76952D01*
X-163392Y76927D01*
X-163542Y76815D01*
X-163683Y76726D01*
X-163832Y76647D01*
X-163990Y76578D01*
X-164156Y76518D01*
X-164332Y76469D01*
X-164518Y76431D01*
X-164715Y76403D01*
X-164922Y76386D01*
X-165155Y76380D01*
X-165181Y76368D01*
X-169367D01*
X-182269Y89270D01*
X-182765Y89602D01*
X-183350Y89718D01*
X-192120D01*
X-192147Y89730D01*
X-192504Y89739D01*
X-192780Y89763D01*
X-192879Y89778D01*
X-192959Y89795D01*
X-193015Y89811D01*
X-193021Y89814D01*
X-193024Y89820D01*
X-193040Y89875D01*
X-193057Y89956D01*
X-193071Y90049D01*
X-193102Y90502D01*
X-193103Y90517D01*
X-193095Y90802D01*
X-193068Y91105D01*
X-193026Y91358D01*
X-192972Y91559D01*
X-192911Y91708D01*
X-192852Y91804D01*
X-192802Y91858D01*
X-192762Y91885D01*
X-192716Y91901D01*
X-192589Y91915D01*
X-192541Y91941D01*
X-191488D01*
Y92818D01*
X-191474Y92845D01*
X-191461Y92971D01*
X-191444Y93016D01*
X-191417Y93057D01*
X-191363Y93107D01*
X-191265Y93167D01*
X-191115Y93227D01*
X-190912Y93282D01*
X-190656Y93324D01*
X-190352Y93351D01*
X-189986Y93361D01*
X-189960Y93372D01*
X-135705D01*
X-135119Y93489D01*
X-134623Y93820D01*
X-123991Y104452D01*
X-123529Y104261D01*
Y98299D01*
X-123808Y98020D01*
X-123966Y97638D01*
X-123808Y97255D01*
X-123808Y97255D01*
X-123336Y96783D01*
X-122953Y96624D01*
X-122953Y96624D01*
X-121414D01*
X-121067Y96268D01*
Y89953D01*
X-120281D01*
X-120255Y89939D01*
X-120128Y89925D01*
X-120083Y89909D01*
X-120042Y89882D01*
X-119992Y89828D01*
X-119933Y89730D01*
X-119872Y89580D01*
X-119817Y89376D01*
X-119775Y89121D01*
X-119748Y88816D01*
X-119739Y88451D01*
X-119727Y88424D01*
Y85859D01*
X-119611Y85274D01*
X-119279Y84778D01*
X-118197Y83695D01*
X-118187Y83669D01*
X-118022Y83493D01*
X-117888Y83327D01*
X-117772Y83159D01*
X-117673Y82987D01*
X-117590Y82813D01*
X-117523Y82634D01*
X-117471Y82451D01*
X-117435Y82262D01*
X-117413Y82066D01*
X-117407Y81842D01*
X-117390Y81805D01*
X-117284Y80996D01*
X-116962Y80218D01*
X-116449Y79551D01*
X-115781Y79038D01*
X-115004Y78716D01*
X-114169Y78606D01*
X-113335Y78716D01*
X-112557Y79038D01*
X-111889Y79551D01*
X-111377Y80218D01*
X-111055Y80996D01*
X-110945Y81831D01*
X-111055Y82665D01*
X-111377Y83443D01*
X-111889Y84111D01*
X-112160Y84319D01*
X-112187Y84349D01*
X-111900Y84749D01*
X-111808Y84688D01*
X-111418Y84610D01*
X-108391D01*
X-107964Y84183D01*
X-107949Y84140D01*
X-107840Y84015D01*
X-107759Y83893D01*
X-107682Y83743D01*
X-107612Y83564D01*
X-107550Y83354D01*
X-107497Y83114D01*
X-107457Y82851D01*
X-107410Y82212D01*
X-107407Y81853D01*
X-107392Y81817D01*
X-107284Y80996D01*
X-106962Y80218D01*
X-106465Y79571D01*
X-106450Y79533D01*
X-105964Y79018D01*
X-105777Y78790D01*
X-105615Y78570D01*
X-105482Y78364D01*
X-105378Y78171D01*
X-105301Y77994D01*
X-105249Y77834D01*
X-105221Y77691D01*
X-105209Y77525D01*
X-105189Y77484D01*
Y76112D01*
X-105210Y76065D01*
X-105217Y75888D01*
X-105233Y75738D01*
X-105260Y75595D01*
X-105298Y75458D01*
X-105347Y75326D01*
X-105405Y75199D01*
X-105476Y75075D01*
X-105558Y74955D01*
X-105652Y74837D01*
X-105772Y74707D01*
X-105790Y74659D01*
X-106202Y74248D01*
X-134449D01*
X-134839Y74170D01*
X-135170Y73949D01*
X-149803Y59316D01*
X-157474D01*
X-157515Y59337D01*
X-157673Y59347D01*
X-157806Y59372D01*
X-157954Y59418D01*
X-158116Y59486D01*
X-158291Y59578D01*
X-158478Y59696D01*
X-158670Y59835D01*
X-159107Y60208D01*
X-159336Y60433D01*
X-159379Y60450D01*
X-159987Y60917D01*
X-160717Y61219D01*
X-161500Y61322D01*
X-162283Y61219D01*
X-163013Y60917D01*
X-163640Y60436D01*
X-164120Y59809D01*
X-164423Y59080D01*
X-164526Y58296D01*
X-164423Y57513D01*
X-164120Y56783D01*
X-163640Y56157D01*
X-163013Y55676D01*
X-162283Y55374D01*
X-161500Y55270D01*
X-160717Y55374D01*
X-159987Y55676D01*
X-159388Y56135D01*
X-159344Y56152D01*
X-158879Y56589D01*
X-158676Y56754D01*
X-158478Y56897D01*
X-158291Y57015D01*
X-158116Y57107D01*
X-157954Y57175D01*
X-157806Y57221D01*
X-157673Y57246D01*
X-157515Y57256D01*
X-157474Y57277D01*
X-149381D01*
X-148991Y57354D01*
X-148660Y57576D01*
X-134027Y72209D01*
X-105780D01*
X-105389Y72286D01*
X-105059Y72507D01*
X-104560Y73006D01*
X-104514Y73022D01*
X-104397Y73127D01*
X-104316Y73184D01*
X-104252Y73216D01*
X-104205Y73230D01*
X-104169Y73234D01*
X-104133Y73230D01*
X-104087Y73216D01*
X-104023Y73184D01*
X-103941Y73127D01*
X-103824Y73022D01*
X-103779Y73006D01*
X-103280Y72507D01*
X-102949Y72286D01*
X-102559Y72209D01*
X-87535D01*
Y54981D01*
X-88111Y54405D01*
X-88139D01*
X-88187Y54427D01*
X-88363Y54431D01*
X-88498Y54443D01*
X-88603Y54461D01*
X-88677Y54480D01*
X-88689Y54485D01*
Y55087D01*
X-89339D01*
Y59673D01*
X-89940D01*
X-89945Y59685D01*
X-89965Y59759D01*
X-89982Y59865D01*
X-89994Y59999D01*
X-89998Y60175D01*
X-90020Y60224D01*
Y63655D01*
X-89998Y63703D01*
X-89994Y63879D01*
X-89982Y64013D01*
X-89965Y64119D01*
X-89945Y64193D01*
X-89940Y64205D01*
X-88669D01*
Y70717D01*
X-94000D01*
Y64205D01*
X-92138D01*
X-92134Y64193D01*
X-92114Y64119D01*
X-92097Y64013D01*
X-92085Y63879D01*
X-92080Y63703D01*
X-92059Y63655D01*
Y60224D01*
X-92080Y60175D01*
X-92085Y59999D01*
X-92097Y59865D01*
X-92114Y59759D01*
X-92134Y59685D01*
X-92138Y59673D01*
X-92740D01*
Y55087D01*
X-93311D01*
Y51720D01*
X-104516D01*
Y55087D01*
X-105087D01*
Y59673D01*
X-107842D01*
X-107870Y59692D01*
X-107924Y59681D01*
X-107976Y59702D01*
X-108047Y59673D01*
X-108488D01*
Y59335D01*
X-108498Y59330D01*
X-108616Y59292D01*
X-108777Y59258D01*
X-109623Y59184D01*
X-109984Y59179D01*
X-110011Y59167D01*
X-110862D01*
X-110888Y59179D01*
X-111252Y59188D01*
X-111557Y59215D01*
X-111812Y59257D01*
X-112015Y59312D01*
X-112165Y59373D01*
X-112263Y59432D01*
X-112318Y59483D01*
X-112346Y59524D01*
X-112362Y59570D01*
X-112376Y59696D01*
X-112390Y59722D01*
Y60579D01*
X-118902D01*
Y58710D01*
X-118924Y58673D01*
X-118914Y58630D01*
X-118931Y58588D01*
X-118902Y58518D01*
Y57723D01*
X-119017Y57520D01*
X-119215Y57236D01*
X-119809Y56533D01*
X-120193Y56136D01*
X-120204Y56109D01*
X-121712Y54600D01*
X-122208D01*
X-122234Y54612D01*
X-122600Y54621D01*
X-122905Y54648D01*
X-123160Y54690D01*
X-123363Y54745D01*
X-123513Y54806D01*
X-123611Y54865D01*
X-123665Y54915D01*
X-123693Y54956D01*
X-123709Y55002D01*
X-123722Y55128D01*
X-123726Y55136D01*
Y55832D01*
X-123812Y56263D01*
X-124056Y56629D01*
X-124422Y56873D01*
X-124853Y56959D01*
X-128485D01*
X-128917Y56873D01*
X-129282Y56629D01*
X-129526Y56263D01*
X-129612Y55832D01*
Y50310D01*
X-129526Y49879D01*
X-129282Y49513D01*
X-128917Y49269D01*
X-128485Y49183D01*
X-124853D01*
X-124422Y49269D01*
X-124056Y49513D01*
X-123812Y49879D01*
X-123726Y50310D01*
Y51006D01*
X-123722Y51014D01*
X-123709Y51140D01*
X-123693Y51186D01*
X-123665Y51226D01*
X-123611Y51276D01*
X-123513Y51336D01*
X-123363Y51397D01*
X-123160Y51451D01*
X-122905Y51494D01*
X-122600Y51520D01*
X-122234Y51530D01*
X-122208Y51542D01*
X-121079D01*
X-120493Y51658D01*
X-119997Y51989D01*
X-118047Y53940D01*
X-118021Y53949D01*
X-117244Y54671D01*
X-116920Y54930D01*
X-116629Y55132D01*
X-116427Y55248D01*
X-115632D01*
X-115561Y55219D01*
X-115520Y55236D01*
X-115477Y55225D01*
X-115440Y55248D01*
X-113011D01*
X-112966Y55223D01*
X-112933Y55232D01*
X-112900Y55219D01*
X-112830Y55248D01*
X-112390D01*
Y55651D01*
X-112364Y55696D01*
X-112353Y55791D01*
X-112347Y55807D01*
X-112330Y55829D01*
X-112280Y55870D01*
X-112181Y55923D01*
X-112028Y55978D01*
X-111820Y56027D01*
X-111562Y56064D01*
X-111255Y56088D01*
X-110889Y56097D01*
X-110863Y56108D01*
X-110017D01*
X-109990Y56097D01*
X-109627Y56087D01*
X-109325Y56060D01*
X-109071Y56018D01*
X-108870Y55964D01*
X-108721Y55903D01*
X-108625Y55844D01*
X-108571Y55795D01*
X-108544Y55754D01*
X-108528Y55708D01*
X-108514Y55581D01*
X-108671Y55087D01*
X-109138D01*
Y51685D01*
X-108488D01*
Y50514D01*
X-108490Y50511D01*
X-108510Y50503D01*
X-108581Y50484D01*
X-108685Y50467D01*
X-108817Y50455D01*
X-108990Y50450D01*
X-109038Y50429D01*
X-113091D01*
X-113481Y50351D01*
X-113812Y50130D01*
X-115682Y48260D01*
X-115903Y47930D01*
X-115980Y47539D01*
Y44989D01*
X-116001Y44944D01*
X-116007Y44818D01*
X-116021Y44715D01*
X-116045Y44610D01*
X-116080Y44501D01*
X-116127Y44389D01*
X-116186Y44272D01*
X-116257Y44152D01*
X-116343Y44027D01*
X-116442Y43899D01*
X-116565Y43758D01*
X-116585Y43696D01*
X-116982Y43102D01*
X-117156Y42224D01*
X-116982Y41346D01*
X-116484Y40602D01*
X-115740Y40105D01*
X-114862Y39930D01*
X-113984Y40105D01*
X-113240Y40602D01*
X-112743Y41346D01*
X-112568Y42224D01*
X-112743Y43102D01*
X-113240Y43847D01*
X-113325Y43904D01*
X-113341Y43937D01*
X-113471Y44058D01*
X-113573Y44167D01*
X-113661Y44273D01*
X-113733Y44378D01*
X-113793Y44480D01*
X-113839Y44580D01*
X-113874Y44678D01*
X-113899Y44777D01*
X-113914Y44876D01*
X-113920Y45004D01*
X-113921Y45007D01*
X-113920Y45009D01*
X-113941Y45052D01*
Y47117D01*
X-112668Y48390D01*
X-109038D01*
X-108990Y48368D01*
X-108817Y48364D01*
X-108685Y48352D01*
X-108581Y48335D01*
X-108510Y48316D01*
X-108490Y48308D01*
X-108488Y48305D01*
Y47098D01*
X-104737D01*
X-104732Y47087D01*
X-104712Y47013D01*
X-104695Y46907D01*
X-104683Y46772D01*
X-104679Y46596D01*
X-104657Y46548D01*
Y44418D01*
X-105832Y43244D01*
X-105963D01*
X-106007Y43265D01*
X-106134Y43271D01*
X-106235Y43286D01*
X-106337Y43310D01*
X-106441Y43345D01*
X-106547Y43392D01*
X-106657Y43451D01*
X-106769Y43524D01*
X-106885Y43611D01*
X-107003Y43712D01*
X-107129Y43834D01*
X-107138Y43847D01*
X-107882Y44344D01*
X-108760Y44519D01*
X-109638Y44344D01*
X-110382Y43847D01*
X-110879Y43102D01*
X-111054Y42224D01*
X-110879Y41346D01*
X-110382Y40602D01*
X-109638Y40105D01*
X-108760Y39930D01*
X-107882Y40105D01*
X-107138Y40602D01*
X-107129Y40615D01*
X-107003Y40737D01*
X-106885Y40838D01*
X-106769Y40925D01*
X-106657Y40997D01*
X-106547Y41057D01*
X-106441Y41104D01*
X-106337Y41139D01*
X-106235Y41163D01*
X-106134Y41178D01*
X-106007Y41184D01*
X-105963Y41205D01*
X-105409D01*
X-105019Y41282D01*
X-104689Y41503D01*
X-102917Y43275D01*
X-102696Y43606D01*
X-102618Y43996D01*
Y46548D01*
X-102597Y46596D01*
X-102592Y46772D01*
X-102580Y46907D01*
X-102563Y47013D01*
X-102543Y47087D01*
X-102539Y47098D01*
X-95288D01*
X-95283Y47087D01*
X-95264Y47013D01*
X-95246Y46907D01*
X-95235Y46772D01*
X-95230Y46596D01*
X-95209Y46548D01*
Y44161D01*
X-95230Y44112D01*
X-95235Y43936D01*
X-95246Y43802D01*
X-95264Y43696D01*
X-95283Y43622D01*
X-95288Y43610D01*
X-97055D01*
Y37295D01*
X-91134D01*
Y43610D01*
X-93090D01*
X-93095Y43622D01*
X-93114Y43696D01*
X-93132Y43802D01*
X-93143Y43936D01*
X-93148Y44112D01*
X-93169Y44161D01*
Y46548D01*
X-93148Y46596D01*
X-93143Y46772D01*
X-93132Y46907D01*
X-93114Y47013D01*
X-93095Y47087D01*
X-93090Y47098D01*
X-89339D01*
Y48310D01*
X-89327Y48315D01*
X-89253Y48335D01*
X-89147Y48352D01*
X-89012Y48364D01*
X-88836Y48368D01*
X-88788Y48390D01*
X-87500D01*
X-87110Y48467D01*
X-86779Y48689D01*
X-84295Y51173D01*
X-84074Y51503D01*
X-83996Y51894D01*
Y78224D01*
X-84074Y78615D01*
X-84295Y78945D01*
X-87901Y82552D01*
X-88232Y82773D01*
X-88622Y82850D01*
X-90422D01*
X-90470Y82872D01*
X-90646Y82876D01*
X-90781Y82888D01*
X-90887Y82906D01*
X-90961Y82925D01*
X-90972Y82930D01*
Y85028D01*
X-93070D01*
X-93075Y85040D01*
X-93094Y85113D01*
X-93112Y85219D01*
X-93124Y85354D01*
X-93128Y85530D01*
X-93150Y85578D01*
Y86028D01*
X-93227Y86418D01*
X-93448Y86748D01*
X-95014Y88315D01*
X-95345Y88536D01*
X-95735Y88613D01*
X-97047D01*
Y89403D01*
X-97026Y89451D01*
X-97021Y89627D01*
X-97010Y89761D01*
X-96992Y89867D01*
X-96973Y89941D01*
X-96968Y89953D01*
X-95106D01*
Y92011D01*
X-95094Y92016D01*
X-95021Y92036D01*
X-94915Y92053D01*
X-94780Y92065D01*
X-94604Y92069D01*
X-94556Y92091D01*
X-19780D01*
X-19389Y92168D01*
X-19059Y92389D01*
X-12714Y98734D01*
X-12671Y98748D01*
X-12536Y98865D01*
X-12399Y98953D01*
X-12228Y99037D01*
X-12021Y99115D01*
X-11777Y99183D01*
X-11498Y99240D01*
X-11189Y99284D01*
X-10446Y99334D01*
X-10026Y99337D01*
X-10001Y99348D01*
X-10000Y99348D01*
X-9083Y99468D01*
X-8229Y99822D01*
X-7495Y100385D01*
X-6932Y101119D01*
X-6578Y101973D01*
X-6458Y102890D01*
X-6578Y103806D01*
X-6932Y104661D01*
X-7495Y105394D01*
X-8229Y105957D01*
X-9083Y106311D01*
X-10000Y106432D01*
X-10917Y106311D01*
X-11771Y105957D01*
X-12505Y105394D01*
X-13068Y104661D01*
X-13421Y103806D01*
X-13542Y102890D01*
X-13542Y102889D01*
X-13553Y102864D01*
X-13556Y102444D01*
X-13606Y101701D01*
X-13649Y101392D01*
X-13707Y101112D01*
X-13775Y100869D01*
X-13852Y100661D01*
X-13937Y100490D01*
X-14025Y100354D01*
X-14142Y100218D01*
X-14155Y100176D01*
X-20202Y94130D01*
X-48001D01*
Y103671D01*
X-47980Y103716D01*
X-47974Y103843D01*
X-47959Y103944D01*
X-47935Y104046D01*
X-47900Y104149D01*
X-47853Y104256D01*
X-47793Y104365D01*
X-47721Y104478D01*
X-47634Y104593D01*
X-47533Y104712D01*
X-47411Y104838D01*
X-47398Y104846D01*
X-46901Y105591D01*
X-46726Y106468D01*
X-46901Y107346D01*
X-47398Y108091D01*
X-48143Y108588D01*
X-49020Y108763D01*
X-49898Y108588D01*
X-50643Y108091D01*
X-51140Y107346D01*
X-51315Y106468D01*
X-51140Y105591D01*
X-50643Y104846D01*
X-50630Y104838D01*
X-50508Y104712D01*
X-50407Y104593D01*
X-50320Y104478D01*
X-50248Y104365D01*
X-50188Y104256D01*
X-50141Y104149D01*
X-50106Y104046D01*
X-50082Y103944D01*
X-50067Y103843D01*
X-50061Y103716D01*
X-50040Y103671D01*
Y94130D01*
X-94556D01*
X-94604Y94151D01*
X-94780Y94156D01*
X-94915Y94168D01*
X-95021Y94185D01*
X-95094Y94205D01*
X-95106Y94209D01*
Y96268D01*
X-100839Y96268D01*
X-100893Y96326D01*
X-101090Y96783D01*
X-100931Y97165D01*
Y121237D01*
X-95740Y126427D01*
X-36909D01*
X-36527Y126586D01*
X-36368Y126969D01*
Y127741D01*
X-36130Y128142D01*
X-35868Y128142D01*
X-34269D01*
X-34264Y128130D01*
X-34244Y128056D01*
X-34227Y127950D01*
X-34215Y127816D01*
X-34210Y127640D01*
X-34189Y127592D01*
Y126346D01*
X-34210Y126297D01*
X-34215Y126121D01*
X-34227Y125987D01*
X-34244Y125881D01*
X-34264Y125807D01*
X-34269Y125795D01*
X-36130D01*
Y119480D01*
X-36607Y119425D01*
X-49020D01*
X-49411Y119348D01*
X-49742Y119126D01*
X-50327Y118541D01*
X-50548Y118210D01*
X-50626Y117820D01*
Y117487D01*
X-50647Y117439D01*
X-50652Y117263D01*
X-50664Y117128D01*
X-50681Y117023D01*
X-50701Y116949D01*
X-50705Y116937D01*
X-54417D01*
Y114780D01*
X-54429Y114776D01*
X-54503Y114756D01*
X-54609Y114739D01*
X-54743Y114727D01*
X-54919Y114722D01*
X-54967Y114701D01*
X-80426D01*
X-80474Y114722D01*
X-80650Y114727D01*
X-80785Y114739D01*
X-80891Y114756D01*
X-80964Y114776D01*
X-80976Y114780D01*
Y116937D01*
X-90244D01*
Y114780D01*
X-90256Y114776D01*
X-90330Y114756D01*
X-90435Y114738D01*
X-90570Y114727D01*
X-90746Y114722D01*
X-90794Y114701D01*
X-92946D01*
X-92994Y114722D01*
X-93170Y114727D01*
X-93305Y114738D01*
X-93410Y114756D01*
X-93484Y114776D01*
X-93496Y114780D01*
Y116642D01*
X-99811D01*
Y111039D01*
X-99811Y110721D01*
X-99811Y110221D01*
Y104618D01*
X-93496D01*
Y105397D01*
X-93484Y105402D01*
X-93410Y105421D01*
X-93305Y105439D01*
X-93170Y105450D01*
X-92994Y105455D01*
X-92946Y105476D01*
X-91675D01*
X-91631Y105456D01*
X-91504Y105449D01*
X-91403Y105435D01*
X-91301Y105410D01*
X-91197Y105375D01*
X-91091Y105328D01*
X-90981Y105269D01*
X-90869Y105196D01*
X-90753Y105110D01*
X-90635Y105008D01*
X-90509Y104886D01*
X-90500Y104874D01*
X-89756Y104377D01*
X-88878Y104202D01*
X-88000Y104377D01*
X-87256Y104874D01*
X-86759Y105618D01*
X-86584Y106496D01*
X-86759Y107374D01*
X-87256Y108118D01*
X-88000Y108616D01*
X-88878Y108790D01*
X-89756Y108616D01*
X-90500Y108118D01*
X-90509Y108106D01*
X-90635Y107984D01*
X-90753Y107882D01*
X-90869Y107796D01*
X-90981Y107723D01*
X-91091Y107664D01*
X-91197Y107617D01*
X-91301Y107582D01*
X-91403Y107557D01*
X-91504Y107543D01*
X-91631Y107537D01*
X-91675Y107516D01*
X-92946D01*
X-92994Y107537D01*
X-93170Y107542D01*
X-93305Y107553D01*
X-93410Y107571D01*
X-93484Y107590D01*
X-93496Y107595D01*
Y110221D01*
X-93496Y110539D01*
X-93496Y111039D01*
Y112582D01*
X-93484Y112587D01*
X-93410Y112606D01*
X-93305Y112624D01*
X-93170Y112636D01*
X-92994Y112640D01*
X-92946Y112662D01*
X-90794D01*
X-90746Y112640D01*
X-90570Y112636D01*
X-90435Y112624D01*
X-90330Y112606D01*
X-90256Y112587D01*
X-90244Y112582D01*
Y110425D01*
X-80976D01*
Y112582D01*
X-80964Y112587D01*
X-80891Y112606D01*
X-80785Y112624D01*
X-80650Y112636D01*
X-80474Y112640D01*
X-80426Y112662D01*
X-54967D01*
X-54919Y112640D01*
X-54743Y112636D01*
X-54609Y112624D01*
X-54503Y112606D01*
X-54429Y112587D01*
X-54417Y112582D01*
Y110425D01*
X-45150D01*
Y116937D01*
X-45150D01*
X-45026Y117386D01*
X-34449D01*
X-34059Y117464D01*
X-33728Y117684D01*
X-33142Y118270D01*
X-32921Y118601D01*
X-32865Y118881D01*
X-32822Y118978D01*
X-32817Y119154D01*
X-32806Y119289D01*
X-32788Y119395D01*
X-32769Y119468D01*
X-32764Y119480D01*
X-30209D01*
Y125795D01*
X-32070D01*
X-32075Y125807D01*
X-32094Y125881D01*
X-32112Y125987D01*
X-32124Y126121D01*
X-32128Y126297D01*
X-32150Y126346D01*
Y127592D01*
X-32128Y127640D01*
X-32124Y127816D01*
X-32112Y127950D01*
X-32094Y128056D01*
X-32075Y128130D01*
X-32070Y128142D01*
X-30799D01*
Y134653D01*
X-35868D01*
X-36130Y134653D01*
X-36368Y135055D01*
Y136713D01*
X-36527Y137095D01*
X-36909Y137254D01*
D02*
G37*
G36*
X-6488Y116402D02*
X-13512D01*
Y109378D01*
X-6488D01*
Y116402D01*
D02*
G37*
G36*
X-10000Y96432D02*
X-10917Y96311D01*
X-11771Y95957D01*
X-12505Y95394D01*
X-13068Y94661D01*
X-13421Y93806D01*
X-13542Y92890D01*
X-13421Y91973D01*
X-13068Y91119D01*
X-12505Y90385D01*
X-11771Y89822D01*
X-10917Y89468D01*
X-10000Y89348D01*
X-9083Y89468D01*
X-8229Y89822D01*
X-7495Y90385D01*
X-6932Y91119D01*
X-6578Y91973D01*
X-6458Y92890D01*
X-6578Y93806D01*
X-6932Y94661D01*
X-7495Y95394D01*
X-8229Y95957D01*
X-9083Y96311D01*
X-10000Y96432D01*
D02*
G37*
G36*
X-203619Y95429D02*
X-204009Y95353D01*
X-204341Y95133D01*
X-204563Y94803D01*
X-204642Y94413D01*
X-204647Y92802D01*
X-204796Y92740D01*
X-204969Y92689D01*
X-204983Y92663D01*
X-205012Y92651D01*
X-205081Y92484D01*
X-205167Y92326D01*
X-205158Y92296D01*
X-205170Y92268D01*
X-205101Y92101D01*
X-205050Y91928D01*
X-205023Y91913D01*
X-205012Y91885D01*
X-204845Y91816D01*
X-204734Y91756D01*
X-204725Y91734D01*
X-204705Y91660D01*
X-204688Y91554D01*
X-204677Y91420D01*
X-204673Y91244D01*
X-204652Y91195D01*
X-204653Y90891D01*
X-204674Y90847D01*
X-204680Y90719D01*
X-204695Y90618D01*
X-204720Y90517D01*
X-204755Y90413D01*
X-204802Y90307D01*
X-204862Y90198D01*
X-204935Y90085D01*
X-205022Y89970D01*
X-205124Y89852D01*
X-205251Y89721D01*
X-205326Y89533D01*
X-205404Y89346D01*
X-205402Y89341D01*
X-205404Y89336D01*
X-205324Y89150D01*
X-205247Y88963D01*
X-205242Y88961D01*
X-205240Y88956D01*
X-205169Y88928D01*
Y88928D01*
X-205160Y88924D01*
X-205051Y88881D01*
X-204865Y88803D01*
X-204659Y88802D01*
X-204661Y88094D01*
X-204585Y87703D01*
X-204365Y87372D01*
X-204035Y87150D01*
X-203645Y87071D01*
X-203255Y87147D01*
X-202923Y87367D01*
X-202701Y87697D01*
X-202622Y88087D01*
X-202620Y88796D01*
X-202414Y88795D01*
X-202227Y88872D01*
X-202038Y88946D01*
X-202036Y88951D01*
X-202031Y88953D01*
X-201953Y89140D01*
X-201872Y89325D01*
X-201874Y89330D01*
X-201872Y89335D01*
X-201901Y89405D01*
Y89405D01*
X-201904Y89414D01*
X-201949Y89522D01*
X-202022Y89711D01*
X-202148Y89843D01*
X-202250Y89961D01*
X-202336Y90077D01*
X-202408Y90190D01*
X-202467Y90300D01*
X-202514Y90406D01*
X-202549Y90510D01*
X-202573Y90612D01*
X-202587Y90713D01*
X-202593Y90840D01*
X-202613Y90885D01*
X-202612Y91192D01*
X-202591Y91240D01*
X-202586Y91416D01*
X-202574Y91551D01*
X-202556Y91657D01*
X-202536Y91731D01*
X-202526Y91755D01*
X-202413Y91816D01*
X-202269Y91876D01*
X-202246Y91885D01*
X-202234Y91913D01*
X-202208Y91928D01*
X-202157Y92101D01*
X-202087Y92268D01*
X-202099Y92296D01*
X-202091Y92325D01*
X-202177Y92484D01*
X-202246Y92651D01*
X-202274Y92663D01*
X-202289Y92689D01*
X-202313Y92696D01*
X-202313Y92696D01*
X-202365Y92712D01*
X-202365D01*
X-202371Y92713D01*
X-202462Y92740D01*
X-202607Y92800D01*
X-202602Y94406D01*
X-202679Y94797D01*
X-202899Y95128D01*
X-203229Y95350D01*
X-203619Y95429D01*
D02*
G37*
G36*
X-197571Y80067D02*
X-203964D01*
Y73673D01*
X-197571D01*
Y80067D01*
D02*
G37*
G36*
X-10000Y76432D02*
X-10917Y76311D01*
X-11771Y75957D01*
X-12505Y75394D01*
X-13068Y74661D01*
X-13421Y73807D01*
X-13542Y72890D01*
X-13421Y71973D01*
X-13068Y71119D01*
X-12505Y70385D01*
X-11771Y69822D01*
X-10917Y69468D01*
X-10000Y69348D01*
X-9083Y69468D01*
X-8229Y69822D01*
X-7495Y70385D01*
X-6932Y71119D01*
X-6578Y71973D01*
X-6458Y72890D01*
X-6578Y73807D01*
X-6932Y74661D01*
X-7495Y75394D01*
X-8229Y75957D01*
X-9083Y76311D01*
X-10000Y76432D01*
D02*
G37*
G36*
X-133199Y65349D02*
X-133204Y65347D01*
X-133209Y65349D01*
X-133395Y65268D01*
X-133582Y65190D01*
X-133584Y65186D01*
X-133589Y65184D01*
X-133620Y65104D01*
X-133663Y64995D01*
X-133740Y64808D01*
Y64602D01*
X-134449D01*
X-134839Y64525D01*
X-135170Y64304D01*
X-135391Y63973D01*
X-135468Y63583D01*
X-135391Y63192D01*
X-135170Y62862D01*
X-134839Y62641D01*
X-134449Y62563D01*
X-133740D01*
Y62358D01*
X-133663Y62170D01*
X-133589Y61982D01*
X-133584Y61980D01*
X-133582Y61975D01*
X-133395Y61897D01*
X-133209Y61817D01*
X-133204Y61818D01*
X-133199Y61816D01*
X-133129Y61846D01*
X-133129D01*
X-133120Y61849D01*
X-133012Y61894D01*
X-132823Y61968D01*
X-132692Y62095D01*
X-132574Y62196D01*
X-132458Y62283D01*
X-132346Y62356D01*
X-132236Y62415D01*
X-132130Y62462D01*
X-132026Y62497D01*
X-131924Y62522D01*
X-131823Y62536D01*
X-131696Y62542D01*
X-131651Y62563D01*
X-130152D01*
X-130104Y62542D01*
X-129928Y62537D01*
X-129794Y62525D01*
X-129688Y62508D01*
X-129614Y62488D01*
X-129591Y62479D01*
X-129530Y62367D01*
X-129461Y62200D01*
X-129433Y62188D01*
X-129418Y62162D01*
X-129245Y62111D01*
X-129078Y62041D01*
X-129050Y62053D01*
X-129021Y62045D01*
X-128862Y62131D01*
X-128695Y62200D01*
X-128684Y62228D01*
X-128657Y62243D01*
X-128650Y62267D01*
D01*
X-128633Y62325D01*
X-128606Y62416D01*
X-128545Y62563D01*
X-127142D01*
X-126751Y62641D01*
X-126686Y62685D01*
X-126669Y62681D01*
X-126279Y62759D01*
X-125948Y62980D01*
X-125727Y63311D01*
X-125650Y63701D01*
X-125727Y64091D01*
X-125948Y64422D01*
X-126126Y64599D01*
X-126456Y64820D01*
X-126846Y64898D01*
X-127237Y64820D01*
X-127562Y64602D01*
X-128545D01*
X-128606Y64749D01*
X-128657Y64923D01*
X-128684Y64937D01*
X-128695Y64965D01*
X-128862Y65035D01*
X-129021Y65121D01*
X-129050Y65112D01*
X-129078Y65124D01*
X-129245Y65055D01*
X-129418Y65004D01*
X-129433Y64977D01*
X-129461Y64965D01*
X-129530Y64799D01*
X-129591Y64686D01*
X-129614Y64677D01*
X-129688Y64657D01*
X-129794Y64640D01*
X-129928Y64628D01*
X-130104Y64624D01*
X-130152Y64602D01*
X-131651D01*
X-131696Y64623D01*
X-131823Y64629D01*
X-131924Y64644D01*
X-132026Y64668D01*
X-132130Y64704D01*
X-132236Y64750D01*
X-132346Y64810D01*
X-132458Y64882D01*
X-132574Y64969D01*
X-132692Y65070D01*
X-132823Y65197D01*
X-133012Y65271D01*
X-133120Y65316D01*
X-133129Y65320D01*
X-133129Y65320D01*
X-133199Y65349D01*
X-133199Y65349D01*
D02*
G37*
G36*
X-200768Y70095D02*
X-201602Y69985D01*
X-202380Y69662D01*
X-203048Y69150D01*
X-203560Y68482D01*
X-203882Y67705D01*
X-203992Y66870D01*
X-203882Y66036D01*
X-203560Y65258D01*
X-203048Y64590D01*
X-202380Y64078D01*
X-201602Y63756D01*
X-200768Y63646D01*
X-199933Y63756D01*
X-199155Y64078D01*
X-198488Y64590D01*
X-197975Y65258D01*
X-197653Y66036D01*
X-197543Y66870D01*
X-197653Y67705D01*
X-197975Y68482D01*
X-198488Y69150D01*
X-199155Y69662D01*
X-199933Y69985D01*
X-200768Y70095D01*
D02*
G37*
G36*
X-161500Y69447D02*
X-162283Y69344D01*
X-163013Y69042D01*
X-163640Y68561D01*
X-164120Y67934D01*
X-164423Y67205D01*
X-164526Y66421D01*
X-164423Y65638D01*
X-164120Y64908D01*
X-163640Y64282D01*
X-163013Y63801D01*
X-162283Y63499D01*
X-161500Y63396D01*
X-160717Y63499D01*
X-159987Y63801D01*
X-159360Y64282D01*
X-158879Y64908D01*
X-158577Y65638D01*
X-158474Y66421D01*
X-158577Y67205D01*
X-158879Y67934D01*
X-159360Y68561D01*
X-159987Y69042D01*
X-160717Y69344D01*
X-161500Y69447D01*
D02*
G37*
G36*
X-10000Y66432D02*
X-10917Y66311D01*
X-11771Y65957D01*
X-12505Y65394D01*
X-13068Y64661D01*
X-13421Y63806D01*
X-13542Y62890D01*
X-13421Y61973D01*
X-13068Y61119D01*
X-12505Y60385D01*
X-11771Y59822D01*
X-10917Y59468D01*
X-10000Y59348D01*
X-9083Y59468D01*
X-8229Y59822D01*
X-7495Y60385D01*
X-6932Y61119D01*
X-6578Y61973D01*
X-6458Y62890D01*
X-6578Y63806D01*
X-6932Y64661D01*
X-7495Y65394D01*
X-8229Y65957D01*
X-9083Y66311D01*
X-10000Y66432D01*
D02*
G37*
G36*
X-95638Y59673D02*
X-99039D01*
Y55051D01*
X-95638D01*
Y59673D01*
D02*
G37*
G36*
X-200768Y60094D02*
X-201602Y59985D01*
X-202380Y59662D01*
X-203048Y59150D01*
X-203560Y58482D01*
X-203882Y57705D01*
X-203992Y56870D01*
X-203882Y56036D01*
X-203560Y55258D01*
X-203048Y54590D01*
X-202380Y54078D01*
X-201602Y53755D01*
X-200768Y53646D01*
X-199933Y53755D01*
X-199155Y54078D01*
X-198488Y54590D01*
X-197975Y55258D01*
X-197653Y56036D01*
X-197543Y56870D01*
X-197653Y57705D01*
X-197975Y58482D01*
X-198488Y59150D01*
X-199155Y59662D01*
X-199933Y59985D01*
X-200768Y60094D01*
D02*
G37*
G36*
X-10000Y56432D02*
X-10917Y56311D01*
X-11771Y55957D01*
X-12505Y55394D01*
X-13068Y54661D01*
X-13421Y53807D01*
X-13542Y52890D01*
X-13421Y51973D01*
X-13068Y51119D01*
X-12505Y50385D01*
X-11771Y49822D01*
X-10917Y49468D01*
X-10000Y49348D01*
X-9083Y49468D01*
X-8229Y49822D01*
X-7495Y50385D01*
X-6932Y51119D01*
X-6578Y51973D01*
X-6458Y52890D01*
X-6578Y53807D01*
X-6932Y54661D01*
X-7495Y55394D01*
X-8229Y55957D01*
X-9083Y56311D01*
X-10000Y56432D01*
D02*
G37*
G36*
X-161500Y53197D02*
X-162283Y53094D01*
X-163013Y52792D01*
X-163640Y52311D01*
X-164120Y51684D01*
X-164423Y50955D01*
X-164526Y50171D01*
X-164423Y49388D01*
X-164120Y48658D01*
X-163640Y48032D01*
X-163013Y47551D01*
X-162283Y47249D01*
X-161500Y47146D01*
X-160717Y47249D01*
X-159987Y47551D01*
X-159360Y48032D01*
X-158879Y48658D01*
X-158577Y49388D01*
X-158474Y50171D01*
X-158577Y50955D01*
X-158879Y51684D01*
X-159360Y52311D01*
X-159987Y52792D01*
X-160717Y53094D01*
X-161500Y53197D01*
D02*
G37*
G36*
X-81444Y42136D02*
X-81523Y42105D01*
X-81632Y42061D01*
X-81822Y41989D01*
X-81954Y41864D01*
X-82074Y41764D01*
X-82191Y41679D01*
X-82304Y41608D01*
X-82414Y41550D01*
X-82521Y41504D01*
X-82625Y41471D01*
X-82727Y41447D01*
X-82829Y41434D01*
X-82956Y41430D01*
X-83001Y41409D01*
X-84475Y41428D01*
X-84523Y41450D01*
X-84699Y41457D01*
X-84834Y41470D01*
X-84939Y41489D01*
X-85014Y41510D01*
X-85040Y41521D01*
X-85104Y41638D01*
X-85173Y41805D01*
X-85201Y41816D01*
X-85215Y41843D01*
X-85389Y41894D01*
X-85555Y41963D01*
X-85584Y41951D01*
X-85613Y41960D01*
X-85771Y41874D01*
X-85938Y41805D01*
X-85950Y41776D01*
X-85977Y41762D01*
X-85984Y41738D01*
X-85984Y41738D01*
X-86001Y41680D01*
X-86028Y41589D01*
X-86086Y41448D01*
X-87979Y41472D01*
X-88370Y41400D01*
X-88704Y41183D01*
X-88929Y40855D01*
X-89012Y40466D01*
X-88939Y40075D01*
X-88722Y39741D01*
X-88394Y39516D01*
X-88005Y39433D01*
X-86092Y39409D01*
X-86028Y39255D01*
X-85977Y39082D01*
X-85950Y39067D01*
X-85938Y39039D01*
X-85772Y38970D01*
X-85613Y38884D01*
X-85584Y38892D01*
X-85555Y38881D01*
X-85389Y38949D01*
X-85216Y39000D01*
X-85201Y39027D01*
X-85173Y39039D01*
X-85104Y39206D01*
X-85045Y39313D01*
X-85025Y39321D01*
X-84952Y39340D01*
X-84847Y39355D01*
X-84712Y39366D01*
X-84536Y39368D01*
X-84488Y39389D01*
X-83026Y39370D01*
X-82982Y39349D01*
X-82855Y39341D01*
X-82754Y39325D01*
X-82653Y39299D01*
X-82550Y39263D01*
X-82444Y39215D01*
X-82335Y39154D01*
X-82224Y39080D01*
X-82109Y38992D01*
X-81992Y38889D01*
X-81862Y38761D01*
X-81675Y38684D01*
X-81567Y38638D01*
X-81558Y38634D01*
X-81558D01*
X-81489Y38604D01*
X-81484Y38606D01*
X-81479Y38604D01*
X-81292Y38682D01*
X-81104Y38758D01*
X-81102Y38763D01*
X-81097Y38764D01*
X-81065Y38844D01*
X-81020Y38952D01*
X-80941Y39138D01*
X-80938Y39344D01*
X-80229Y39335D01*
X-79838Y39408D01*
X-79505Y39624D01*
X-79280Y39952D01*
X-79197Y40341D01*
X-79270Y40733D01*
X-79487Y41066D01*
X-79814Y41291D01*
X-80204Y41374D01*
X-80912Y41383D01*
X-80910Y41588D01*
X-80985Y41776D01*
X-81057Y41966D01*
X-81061Y41968D01*
X-81063Y41973D01*
X-81249Y42053D01*
X-81434Y42136D01*
X-81439Y42134D01*
X-81444Y42136D01*
D02*
G37*
G36*
X-10000Y46432D02*
X-10917Y46311D01*
X-11771Y45957D01*
X-12505Y45394D01*
X-13068Y44661D01*
X-13421Y43806D01*
X-13542Y42890D01*
X-13542Y42889D01*
X-13553Y42864D01*
X-13556Y42444D01*
X-13606Y41701D01*
X-13649Y41392D01*
X-13707Y41113D01*
X-13775Y40869D01*
X-13852Y40661D01*
X-13937Y40490D01*
X-14025Y40354D01*
X-14142Y40218D01*
X-14155Y40176D01*
X-28812Y25520D01*
X-93625D01*
X-93677Y25541D01*
X-93678Y25541D01*
X-93678Y25541D01*
X-94188Y25540D01*
X-94192Y25539D01*
X-94195Y25540D01*
X-94645Y25534D01*
X-94659Y25527D01*
X-94674Y25532D01*
X-94704Y25530D01*
X-94726Y25520D01*
X-95165D01*
X-95264Y25500D01*
X-99768D01*
X-100087Y25500D01*
X-100587Y25500D01*
X-106189D01*
Y19185D01*
X-104623D01*
X-104618Y19173D01*
X-104598Y19099D01*
X-104581Y18994D01*
X-104569Y18859D01*
X-104565Y18683D01*
X-104543Y18635D01*
Y17290D01*
X-104565Y17242D01*
X-104569Y17069D01*
X-104581Y16937D01*
X-104598Y16833D01*
X-104617Y16762D01*
X-104625Y16742D01*
X-104629Y16740D01*
X-106189D01*
Y10031D01*
X-100858D01*
Y16740D01*
X-102419D01*
X-102422Y16742D01*
X-102430Y16762D01*
X-102449Y16833D01*
X-102466Y16937D01*
X-102478Y17069D01*
X-102483Y17242D01*
X-102504Y17290D01*
Y18635D01*
X-102483Y18683D01*
X-102478Y18859D01*
X-102466Y18994D01*
X-102449Y19099D01*
X-102429Y19173D01*
X-102424Y19185D01*
X-100587D01*
X-100268Y19185D01*
X-99768Y19185D01*
X-94165D01*
Y23395D01*
X-94164Y23398D01*
X-94144Y23406D01*
X-94072Y23426D01*
X-93969Y23443D01*
X-93836Y23454D01*
X-93663Y23459D01*
X-93615Y23480D01*
X-28390D01*
X-27999Y23558D01*
X-27669Y23779D01*
X-12714Y38734D01*
X-12671Y38748D01*
X-12536Y38865D01*
X-12399Y38953D01*
X-12228Y39037D01*
X-12021Y39115D01*
X-11777Y39183D01*
X-11498Y39240D01*
X-11189Y39284D01*
X-10446Y39334D01*
X-10026Y39337D01*
X-10001Y39348D01*
X-10000Y39348D01*
X-9083Y39468D01*
X-8229Y39822D01*
X-7495Y40385D01*
X-6932Y41119D01*
X-6578Y41973D01*
X-6458Y42890D01*
X-6578Y43806D01*
X-6932Y44661D01*
X-7495Y45394D01*
X-8229Y45957D01*
X-9083Y46311D01*
X-10000Y46432D01*
D02*
G37*
G36*
Y36432D02*
X-10917Y36311D01*
X-11771Y35957D01*
X-12505Y35394D01*
X-13068Y34661D01*
X-13421Y33806D01*
X-13542Y32890D01*
X-13421Y31973D01*
X-13068Y31119D01*
X-12505Y30385D01*
X-11771Y29822D01*
X-10917Y29468D01*
X-10000Y29348D01*
X-9083Y29468D01*
X-8229Y29822D01*
X-7495Y30385D01*
X-6932Y31119D01*
X-6578Y31973D01*
X-6458Y32890D01*
X-6578Y33806D01*
X-6932Y34661D01*
X-7495Y35394D01*
X-8229Y35957D01*
X-9083Y36311D01*
X-10000Y36432D01*
D02*
G37*
G36*
Y26432D02*
X-10917Y26311D01*
X-11771Y25957D01*
X-12505Y25394D01*
X-13068Y24661D01*
X-13421Y23807D01*
X-13542Y22890D01*
X-13421Y21973D01*
X-13068Y21119D01*
X-12505Y20385D01*
X-11771Y19822D01*
X-10917Y19468D01*
X-10000Y19348D01*
X-9083Y19468D01*
X-8229Y19822D01*
X-7495Y20385D01*
X-6932Y21119D01*
X-6578Y21973D01*
X-6458Y22890D01*
X-6578Y23807D01*
X-6932Y24661D01*
X-7495Y25394D01*
X-8229Y25957D01*
X-9083Y26311D01*
X-10000Y26432D01*
D02*
G37*
G36*
X-96437Y14405D02*
X-96827Y14328D01*
X-97158Y14107D01*
X-97379Y13776D01*
X-97457Y13386D01*
X-97379Y12996D01*
X-97378Y12994D01*
Y11089D01*
X-97525Y11028D01*
X-97698Y10977D01*
X-97713Y10950D01*
X-97741Y10938D01*
X-97810Y10771D01*
X-97896Y10613D01*
X-97888Y10584D01*
X-97900Y10555D01*
X-97830Y10389D01*
X-97779Y10215D01*
X-97753Y10201D01*
X-97741Y10173D01*
X-97741D01*
X-97632Y9929D01*
X-97554Y9642D01*
X-97585Y9584D01*
X-97658Y9471D01*
X-97745Y9355D01*
X-97846Y9237D01*
X-97973Y9106D01*
X-98047Y8917D01*
X-98124Y8730D01*
X-98123Y8725D01*
X-98124Y8721D01*
X-98044Y8535D01*
X-97966Y8347D01*
X-97961Y8345D01*
X-97959Y8341D01*
X-97880Y8309D01*
X-97771Y8266D01*
X-97583Y8189D01*
X-97378D01*
Y7480D01*
X-97300Y7090D01*
X-97079Y6759D01*
X-96749Y6538D01*
X-96358Y6461D01*
X-95968Y6538D01*
X-95637Y6759D01*
X-95416Y7090D01*
X-95339Y7480D01*
Y8189D01*
X-95133D01*
X-94946Y8266D01*
X-94757Y8341D01*
X-94755Y8345D01*
X-94751Y8347D01*
X-94673Y8535D01*
X-94592Y8721D01*
X-94594Y8725D01*
X-94592Y8730D01*
X-94625Y8809D01*
X-94670Y8917D01*
X-94744Y9106D01*
X-94871Y9237D01*
X-94972Y9355D01*
X-95059Y9471D01*
X-95131Y9584D01*
X-95163Y9642D01*
X-95085Y9929D01*
X-94976Y10173D01*
X-94976D01*
X-94964Y10201D01*
X-94937Y10215D01*
X-94886Y10389D01*
X-94817Y10555D01*
X-94829Y10584D01*
X-94820Y10613D01*
X-94907Y10771D01*
X-94976Y10938D01*
X-95004Y10950D01*
X-95018Y10977D01*
X-95192Y11028D01*
X-95339Y11089D01*
Y13307D01*
X-95416Y13697D01*
X-95637Y14028D01*
X-95716Y14107D01*
X-96047Y14328D01*
X-96437Y14405D01*
D02*
G37*
G36*
X-6803Y10146D02*
X-13197D01*
Y3752D01*
X-6803D01*
Y10146D01*
D02*
G37*
G36*
X-200768Y10095D02*
X-201602Y9985D01*
X-202380Y9663D01*
X-203048Y9150D01*
X-203560Y8482D01*
X-203882Y7705D01*
X-203992Y6870D01*
X-203882Y6036D01*
X-203560Y5258D01*
X-203048Y4590D01*
X-202380Y4078D01*
X-201602Y3756D01*
X-200768Y3646D01*
X-199933Y3756D01*
X-199155Y4078D01*
X-198488Y4590D01*
X-197975Y5258D01*
X-197653Y6036D01*
X-197543Y6870D01*
X-197653Y7705D01*
X-197975Y8482D01*
X-198488Y9150D01*
X-199155Y9663D01*
X-199933Y9985D01*
X-200768Y10095D01*
D02*
G37*
G36*
X-116528Y10736D02*
X-122843D01*
Y5134D01*
X-122843Y4815D01*
X-122843Y4315D01*
Y-1287D01*
X-120790D01*
X-120787Y-1289D01*
X-120779Y-1309D01*
X-120759Y-1381D01*
X-120742Y-1484D01*
X-120731Y-1616D01*
X-120726Y-1790D01*
X-120705Y-1838D01*
Y-2559D01*
X-120627Y-2949D01*
X-120406Y-3280D01*
X-116764Y-6922D01*
X-116434Y-7143D01*
X-116043Y-7220D01*
X-23552D01*
X-11257Y-19516D01*
X-11282Y-19887D01*
X-11334Y-20086D01*
X-11357Y-20103D01*
X-11461Y-20162D01*
X-11500Y-20212D01*
X-11612Y-20259D01*
X-12280Y-20771D01*
X-12792Y-21439D01*
X-13115Y-22217D01*
X-13224Y-23051D01*
X-13115Y-23886D01*
X-13098Y-23927D01*
X-13521Y-24210D01*
X-18964Y-18767D01*
X-19295Y-18546D01*
X-19685Y-18469D01*
X-93536D01*
X-93584Y-18447D01*
X-93758Y-18443D01*
X-93890Y-18431D01*
X-93994Y-18414D01*
X-94065Y-18394D01*
X-94085Y-18386D01*
X-94087Y-18383D01*
Y-16331D01*
X-99689D01*
X-100008Y-16331D01*
X-100508Y-16331D01*
X-102050D01*
X-102055Y-16319D01*
X-102075Y-16245D01*
X-102092Y-16139D01*
X-102104Y-16004D01*
X-102109Y-15829D01*
X-102130Y-15780D01*
Y-15223D01*
X-102109Y-15175D01*
X-102104Y-14999D01*
X-102092Y-14865D01*
X-102075Y-14759D01*
X-102055Y-14685D01*
X-102050Y-14673D01*
X-101055D01*
Y-7965D01*
X-106386D01*
Y-14673D01*
X-104249D01*
X-104244Y-14685D01*
X-104224Y-14759D01*
X-104207Y-14865D01*
X-104195Y-14999D01*
X-104191Y-15175D01*
X-104169Y-15224D01*
Y-15780D01*
X-104191Y-15829D01*
X-104195Y-16004D01*
X-104207Y-16139D01*
X-104224Y-16245D01*
X-104244Y-16319D01*
X-104249Y-16331D01*
X-106110D01*
Y-22096D01*
X-106610Y-22303D01*
X-115404Y-13510D01*
Y-10299D01*
X-115468Y-10144D01*
X-115507Y-9981D01*
X-115804Y-9572D01*
X-115842Y-9548D01*
X-115860Y-9507D01*
X-116014Y-9443D01*
X-116157Y-9355D01*
X-116201Y-9365D01*
X-116242Y-9348D01*
X-136510D01*
X-136510Y-9348D01*
X-136893Y-9507D01*
X-136893Y-9507D01*
X-139698Y-12312D01*
X-139699Y-12316D01*
X-139703Y-12318D01*
X-139967Y-12589D01*
X-141772D01*
Y-11010D01*
X-141772Y-11010D01*
Y-10839D01*
X-141772D01*
X-141772Y-10509D01*
Y-9386D01*
X-141630Y-9249D01*
X-141301Y-9055D01*
X-141197Y-9090D01*
X-141091Y-9137D01*
X-140981Y-9196D01*
X-140869Y-9269D01*
X-140753Y-9356D01*
X-140635Y-9457D01*
X-140504Y-9584D01*
X-140315Y-9658D01*
X-140128Y-9736D01*
X-140123Y-9734D01*
X-140118Y-9736D01*
X-139932Y-9655D01*
X-139745Y-9577D01*
X-139743Y-9572D01*
X-139738Y-9570D01*
X-139707Y-9491D01*
X-139664Y-9382D01*
X-139586Y-9194D01*
Y-8989D01*
X-138878D01*
X-138488Y-8911D01*
X-138157Y-8690D01*
X-137936Y-8360D01*
X-137858Y-7970D01*
X-137936Y-7579D01*
X-138157Y-7248D01*
X-138488Y-7028D01*
X-138878Y-6950D01*
X-139586D01*
Y-6745D01*
X-139664Y-6557D01*
X-139738Y-6368D01*
X-139743Y-6367D01*
X-139745Y-6362D01*
X-139932Y-6284D01*
X-140118Y-6203D01*
X-140123Y-6205D01*
X-140128Y-6203D01*
X-140198Y-6232D01*
X-140198D01*
X-140207Y-6236D01*
X-140315Y-6281D01*
X-140504Y-6355D01*
X-140635Y-6482D01*
X-140753Y-6583D01*
X-140869Y-6670D01*
X-140981Y-6742D01*
X-141091Y-6802D01*
X-141197Y-6849D01*
X-141301Y-6884D01*
X-141403Y-6908D01*
X-141504Y-6923D01*
X-141547Y-6925D01*
X-142015Y-6919D01*
X-142148Y-6911D01*
X-142156Y-6910D01*
X-142160Y-6910D01*
X-142161Y-6910D01*
X-142183Y-6907D01*
X-142218Y-6917D01*
X-142284Y-6890D01*
X-142326Y-6908D01*
X-142370Y-6897D01*
X-142456Y-6950D01*
X-145022D01*
X-145412Y-7028D01*
X-145743Y-7248D01*
X-145964Y-7579D01*
X-146042Y-7970D01*
X-145964Y-8360D01*
X-145890Y-8470D01*
X-146156Y-8970D01*
X-147968D01*
X-148358Y-9048D01*
X-148688Y-9268D01*
X-150993Y-11573D01*
X-151214Y-11904D01*
X-151292Y-12294D01*
Y-32527D01*
X-152296Y-33531D01*
X-152517Y-33862D01*
X-152594Y-34252D01*
Y-36745D01*
X-152616Y-36796D01*
X-152618Y-37101D01*
X-152620Y-37205D01*
X-152632Y-37340D01*
X-152649Y-37446D01*
X-152669Y-37519D01*
X-152674Y-37532D01*
X-154240D01*
Y-38682D01*
X-154266Y-38731D01*
X-154280Y-38857D01*
X-154296Y-38903D01*
X-154323Y-38944D01*
X-154377Y-38994D01*
X-154473Y-39053D01*
X-154622Y-39114D01*
X-154823Y-39168D01*
X-155077Y-39210D01*
X-155379Y-39237D01*
X-155742Y-39246D01*
X-155769Y-39258D01*
X-157224D01*
X-157810Y-39374D01*
X-158306Y-39706D01*
X-160428Y-41828D01*
X-160759Y-42324D01*
X-160876Y-42909D01*
Y-57677D01*
X-160887Y-57703D01*
X-160897Y-58068D01*
X-160924Y-58373D01*
X-160966Y-58628D01*
X-161021Y-58832D01*
X-161081Y-58982D01*
X-161141Y-59079D01*
X-161191Y-59134D01*
X-161232Y-59161D01*
X-161277Y-59177D01*
X-161403Y-59190D01*
X-161430Y-59205D01*
X-163390D01*
Y-67291D01*
X-155303D01*
Y-59205D01*
X-157263D01*
X-157289Y-59190D01*
X-157416Y-59177D01*
X-157461Y-59161D01*
X-157502Y-59134D01*
X-157552Y-59079D01*
X-157611Y-58982D01*
X-157672Y-58832D01*
X-157727Y-58628D01*
X-157769Y-58373D01*
X-157796Y-58068D01*
X-157805Y-57703D01*
X-157817Y-57677D01*
Y-43543D01*
X-156591Y-42317D01*
X-155769D01*
X-155742Y-42328D01*
X-155379Y-42338D01*
X-155077Y-42365D01*
X-154823Y-42407D01*
X-154622Y-42461D01*
X-154473Y-42522D01*
X-154377Y-42581D01*
X-154323Y-42631D01*
X-154296Y-42671D01*
X-154280Y-42717D01*
X-154266Y-42844D01*
X-154240Y-42892D01*
Y-44043D01*
X-148909D01*
Y-37532D01*
X-150476D01*
X-150480Y-37520D01*
X-150500Y-37446D01*
X-150517Y-37340D01*
X-150525Y-37256D01*
X-150530Y-37179D01*
X-150532Y-37101D01*
X-150534Y-36796D01*
X-150555Y-36745D01*
Y-34674D01*
X-149551Y-33670D01*
X-148919Y-33625D01*
X-145705Y-36840D01*
Y-36981D01*
X-145726Y-37029D01*
X-145731Y-37205D01*
X-145742Y-37340D01*
X-145760Y-37446D01*
X-145779Y-37519D01*
X-145784Y-37532D01*
X-147350D01*
Y-44043D01*
X-142020D01*
Y-42646D01*
X-141977Y-42626D01*
X-141565Y-42523D01*
X-141191Y-42839D01*
Y-57673D01*
X-141202Y-57697D01*
X-141216Y-57979D01*
X-141253Y-58233D01*
X-141315Y-58489D01*
X-141402Y-58745D01*
X-141517Y-59004D01*
X-141660Y-59265D01*
X-141831Y-59528D01*
X-142031Y-59794D01*
X-142261Y-60062D01*
X-142531Y-60342D01*
X-142538Y-60359D01*
X-142545Y-60364D01*
X-143193Y-61209D01*
X-143601Y-62192D01*
X-143740Y-63248D01*
X-143601Y-64303D01*
X-143193Y-65287D01*
X-142545Y-66132D01*
X-141700Y-66780D01*
X-140717Y-67187D01*
X-139661Y-67326D01*
X-138606Y-67187D01*
X-137622Y-66780D01*
X-136778Y-66132D01*
X-136130Y-65287D01*
X-135722Y-64303D01*
X-135583Y-63248D01*
X-135722Y-62192D01*
X-136130Y-61209D01*
X-136778Y-60364D01*
X-136785Y-60359D01*
X-136792Y-60342D01*
X-137062Y-60062D01*
X-137292Y-59794D01*
X-137492Y-59528D01*
X-137663Y-59265D01*
X-137806Y-59004D01*
X-137920Y-58745D01*
X-138008Y-58489D01*
X-138070Y-58233D01*
X-138107Y-57979D01*
X-138121Y-57697D01*
X-138132Y-57673D01*
Y-42018D01*
X-138248Y-41433D01*
X-138580Y-40937D01*
X-139752Y-39765D01*
X-140248Y-39434D01*
X-140763Y-39331D01*
X-140821Y-39305D01*
X-141133Y-39299D01*
X-141393Y-39280D01*
X-141611Y-39250D01*
X-141783Y-39212D01*
X-141908Y-39171D01*
X-141983Y-39133D01*
X-142002Y-39119D01*
X-142007Y-39079D01*
X-142020Y-39056D01*
Y-37532D01*
X-143586D01*
X-143591Y-37520D01*
X-143610Y-37446D01*
X-143628Y-37340D01*
X-143640Y-37205D01*
X-143644Y-37029D01*
X-143666Y-36981D01*
Y-36417D01*
X-143743Y-36027D01*
X-143964Y-35696D01*
X-147752Y-31908D01*
Y-17508D01*
X-147332Y-17141D01*
X-147332Y-17141D01*
X-127683D01*
Y-52858D01*
X-127683Y-52858D01*
X-127524Y-53241D01*
X-127524Y-53241D01*
X-117541Y-63224D01*
Y-70000D01*
X-117383Y-70383D01*
X-117000Y-70541D01*
X-104000D01*
X-104000Y-70541D01*
X-103617Y-70383D01*
X-102391Y-69156D01*
X-101721Y-69123D01*
X-101711Y-69129D01*
X-101207Y-69633D01*
X-100825Y-69791D01*
X-100825Y-69791D01*
X-87500D01*
X-87117Y-69633D01*
X-86959Y-69250D01*
Y-63724D01*
X-85617Y-62383D01*
X-85459Y-62000D01*
X-85617Y-61617D01*
X-85617Y-61617D01*
X-88337Y-58898D01*
Y-40801D01*
X-88337Y-40801D01*
X-88495Y-40418D01*
X-105768Y-23146D01*
X-105561Y-22646D01*
X-100508D01*
X-100189Y-22646D01*
X-99689Y-22646D01*
X-94087D01*
Y-20593D01*
X-94085Y-20590D01*
X-94065Y-20582D01*
X-93994Y-20563D01*
X-93890Y-20546D01*
X-93758Y-20534D01*
X-93584Y-20529D01*
X-93536Y-20508D01*
X-20107D01*
X-11083Y-29532D01*
X-11098Y-29594D01*
X-11140Y-29710D01*
X-11192Y-29816D01*
X-11255Y-29915D01*
X-11332Y-30009D01*
X-11422Y-30099D01*
X-11530Y-30185D01*
X-11675Y-30281D01*
X-11707Y-30328D01*
X-11761Y-30350D01*
X-11774Y-30383D01*
X-12280Y-30771D01*
X-12792Y-31439D01*
X-13115Y-32217D01*
X-13224Y-33051D01*
X-13115Y-33886D01*
X-12792Y-34663D01*
X-12280Y-35331D01*
X-11612Y-35844D01*
X-10835Y-36166D01*
X-10000Y-36276D01*
X-9165Y-36166D01*
X-8388Y-35844D01*
X-7720Y-35331D01*
X-7208Y-34663D01*
X-6885Y-33886D01*
X-6775Y-33051D01*
X-6885Y-32217D01*
X-7208Y-31439D01*
X-7720Y-30771D01*
X-8226Y-30383D01*
X-8239Y-30350D01*
X-8293Y-30328D01*
X-8325Y-30281D01*
X-8470Y-30185D01*
X-8578Y-30099D01*
X-8668Y-30009D01*
X-8745Y-29915D01*
X-8808Y-29816D01*
X-8860Y-29710D01*
X-8902Y-29594D01*
X-8932Y-29467D01*
X-8952Y-29327D01*
X-8959Y-29150D01*
X-9004Y-29053D01*
X-9058Y-28783D01*
X-9279Y-28452D01*
X-11159Y-26573D01*
X-10875Y-26149D01*
X-10835Y-26166D01*
X-10000Y-26276D01*
X-9165Y-26166D01*
X-8388Y-25844D01*
X-7720Y-25331D01*
X-7208Y-24663D01*
X-6885Y-23886D01*
X-6775Y-23051D01*
X-6885Y-22217D01*
X-7208Y-21439D01*
X-7720Y-20771D01*
X-8388Y-20259D01*
X-8500Y-20212D01*
X-8539Y-20162D01*
X-8643Y-20103D01*
X-8707Y-20056D01*
X-8761Y-20005D01*
X-8807Y-19947D01*
X-8848Y-19881D01*
X-8884Y-19802D01*
X-8914Y-19710D01*
X-8938Y-19600D01*
X-8953Y-19474D01*
X-8959Y-19310D01*
X-9004Y-19213D01*
X-9058Y-18941D01*
X-9279Y-18610D01*
X-11428Y-16461D01*
X-11144Y-16037D01*
X-10835Y-16166D01*
X-10000Y-16276D01*
X-9165Y-16166D01*
X-8388Y-15844D01*
X-7720Y-15331D01*
X-7208Y-14663D01*
X-6885Y-13886D01*
X-6775Y-13051D01*
X-6885Y-12217D01*
X-7208Y-11439D01*
X-7720Y-10771D01*
X-8388Y-10259D01*
X-8454Y-10231D01*
X-8486Y-10190D01*
X-8600Y-10123D01*
X-8675Y-10066D01*
X-8738Y-10005D01*
X-8792Y-9939D01*
X-8839Y-9865D01*
X-8878Y-9780D01*
X-8911Y-9681D01*
X-8936Y-9568D01*
X-8953Y-9438D01*
X-8959Y-9270D01*
X-9004Y-9173D01*
X-9058Y-8901D01*
X-9279Y-8570D01*
X-11360Y-6489D01*
X-11077Y-6065D01*
X-10835Y-6166D01*
X-10000Y-6276D01*
X-9165Y-6166D01*
X-8388Y-5844D01*
X-7720Y-5331D01*
X-7208Y-4663D01*
X-6885Y-3886D01*
X-6775Y-3051D01*
X-6885Y-2217D01*
X-7208Y-1439D01*
X-7720Y-771D01*
X-8388Y-259D01*
X-9165Y63D01*
X-10000Y173D01*
X-10835Y63D01*
X-11612Y-259D01*
X-12280Y-771D01*
X-12792Y-1439D01*
X-13115Y-2217D01*
X-13224Y-3051D01*
X-13115Y-3886D01*
X-13014Y-4128D01*
X-13438Y-4411D01*
X-18964Y1115D01*
X-19295Y1336D01*
X-19685Y1413D01*
X-71469D01*
X-71518Y1435D01*
X-71693Y1439D01*
X-71828Y1451D01*
X-71934Y1469D01*
X-72008Y1488D01*
X-72020Y1493D01*
Y3035D01*
X-72020Y3354D01*
X-72020Y3854D01*
Y9457D01*
X-78335D01*
Y7891D01*
X-78347Y7886D01*
X-78420Y7866D01*
X-78526Y7849D01*
X-78661Y7837D01*
X-78837Y7832D01*
X-78885Y7811D01*
X-79146D01*
X-79195Y7832D01*
X-79368Y7837D01*
X-79501Y7849D01*
X-79604Y7866D01*
X-79675Y7885D01*
X-79695Y7893D01*
X-79697Y7896D01*
Y9457D01*
X-86405D01*
Y4126D01*
X-79697D01*
Y5686D01*
X-79695Y5689D01*
X-79675Y5698D01*
X-79604Y5717D01*
X-79501Y5734D01*
X-79368Y5746D01*
X-79195Y5750D01*
X-79146Y5772D01*
X-78885D01*
X-78837Y5750D01*
X-78661Y5746D01*
X-78526Y5734D01*
X-78420Y5717D01*
X-78347Y5697D01*
X-78335Y5692D01*
Y3854D01*
X-78335Y3535D01*
X-78335Y3035D01*
Y-2567D01*
X-72020D01*
Y-705D01*
X-72008Y-701D01*
X-71934Y-681D01*
X-71828Y-664D01*
X-71693Y-652D01*
X-71518Y-647D01*
X-71469Y-626D01*
X-20107D01*
X-11209Y-9524D01*
X-11314Y-10055D01*
X-11325Y-10066D01*
X-11400Y-10123D01*
X-11514Y-10190D01*
X-11546Y-10231D01*
X-11612Y-10259D01*
X-12280Y-10771D01*
X-12792Y-11439D01*
X-13115Y-12217D01*
X-13224Y-13051D01*
X-13115Y-13886D01*
X-12986Y-14195D01*
X-13410Y-14479D01*
X-22409Y-5480D01*
X-22740Y-5259D01*
X-23130Y-5181D01*
X-115621D01*
X-118666Y-2137D01*
Y-1838D01*
X-118644Y-1790D01*
X-118640Y-1616D01*
X-118628Y-1484D01*
X-118611Y-1381D01*
X-118591Y-1309D01*
X-118583Y-1289D01*
X-118580Y-1287D01*
X-116528D01*
Y4315D01*
X-116527Y4634D01*
X-116528Y5134D01*
Y6676D01*
X-116516Y6681D01*
X-116442Y6701D01*
X-116336Y6718D01*
X-116201Y6730D01*
X-116025Y6735D01*
X-115977Y6756D01*
X-115414D01*
X-115366Y6735D01*
X-115190Y6730D01*
X-115056Y6718D01*
X-114950Y6701D01*
X-114876Y6681D01*
X-114864Y6676D01*
Y5307D01*
X-108156D01*
Y10638D01*
X-114864D01*
Y8875D01*
X-114876Y8870D01*
X-114950Y8850D01*
X-115056Y8833D01*
X-115190Y8821D01*
X-115366Y8817D01*
X-115414Y8795D01*
X-115977D01*
X-116025Y8817D01*
X-116201Y8821D01*
X-116336Y8833D01*
X-116442Y8850D01*
X-116516Y8870D01*
X-116528Y8875D01*
Y10736D01*
D02*
G37*
G36*
X-197256Y-9618D02*
X-204279D01*
Y-16642D01*
X-197256D01*
Y-9618D01*
D02*
G37*
G36*
X-200768Y-19588D02*
X-201684Y-19708D01*
X-202539Y-20062D01*
X-203272Y-20625D01*
X-203835Y-21359D01*
X-204189Y-22213D01*
X-204310Y-23130D01*
X-204189Y-24047D01*
X-203835Y-24901D01*
X-203272Y-25635D01*
X-202539Y-26197D01*
X-201684Y-26551D01*
X-200768Y-26672D01*
X-199851Y-26551D01*
X-198997Y-26197D01*
X-198263Y-25635D01*
X-197700Y-24901D01*
X-197346Y-24047D01*
X-197226Y-23130D01*
X-197346Y-22213D01*
X-197700Y-21359D01*
X-198263Y-20625D01*
X-198997Y-20062D01*
X-199851Y-19708D01*
X-200768Y-19588D01*
D02*
G37*
G36*
Y-29588D02*
X-201684Y-29708D01*
X-202539Y-30062D01*
X-203272Y-30625D01*
X-203835Y-31359D01*
X-204189Y-32213D01*
X-204310Y-33130D01*
X-204189Y-34047D01*
X-203835Y-34901D01*
X-203272Y-35635D01*
X-202539Y-36198D01*
X-201684Y-36551D01*
X-200768Y-36672D01*
X-199851Y-36551D01*
X-198997Y-36198D01*
X-198263Y-35635D01*
X-197700Y-34901D01*
X-197346Y-34047D01*
X-197226Y-33130D01*
X-197346Y-32213D01*
X-197700Y-31359D01*
X-198263Y-30625D01*
X-198997Y-30062D01*
X-199851Y-29708D01*
X-200768Y-29588D01*
D02*
G37*
G36*
X-10000Y-39827D02*
X-10835Y-39937D01*
X-11612Y-40259D01*
X-12280Y-40771D01*
X-12792Y-41439D01*
X-13115Y-42217D01*
X-13224Y-43051D01*
X-13115Y-43886D01*
X-12792Y-44663D01*
X-12280Y-45331D01*
X-11612Y-45844D01*
X-10835Y-46166D01*
X-10000Y-46276D01*
X-9165Y-46166D01*
X-8388Y-45844D01*
X-7720Y-45331D01*
X-7208Y-44663D01*
X-6885Y-43886D01*
X-6775Y-43051D01*
X-6885Y-42217D01*
X-7208Y-41439D01*
X-7720Y-40771D01*
X-8388Y-40259D01*
X-9165Y-39937D01*
X-10000Y-39827D01*
D02*
G37*
G36*
X-200768Y-39588D02*
X-201684Y-39709D01*
X-202539Y-40062D01*
X-203272Y-40625D01*
X-203835Y-41359D01*
X-204189Y-42213D01*
X-204310Y-43130D01*
X-204189Y-44047D01*
X-203835Y-44901D01*
X-203272Y-45635D01*
X-202539Y-46198D01*
X-201684Y-46551D01*
X-200768Y-46672D01*
X-199851Y-46551D01*
X-198997Y-46198D01*
X-198263Y-45635D01*
X-197700Y-44901D01*
X-197346Y-44047D01*
X-197226Y-43130D01*
X-197346Y-42213D01*
X-197700Y-41359D01*
X-198263Y-40625D01*
X-198997Y-40062D01*
X-199851Y-39709D01*
X-200768Y-39588D01*
D02*
G37*
G36*
X-10000Y-49827D02*
X-10835Y-49937D01*
X-11612Y-50259D01*
X-12280Y-50771D01*
X-12792Y-51439D01*
X-13115Y-52217D01*
X-13224Y-53051D01*
X-13115Y-53886D01*
X-12792Y-54663D01*
X-12280Y-55331D01*
X-11612Y-55844D01*
X-10835Y-56166D01*
X-10000Y-56276D01*
X-9165Y-56166D01*
X-8388Y-55844D01*
X-7720Y-55331D01*
X-7208Y-54663D01*
X-6885Y-53886D01*
X-6775Y-53051D01*
X-6885Y-52217D01*
X-7208Y-51439D01*
X-7720Y-50771D01*
X-8388Y-50259D01*
X-9165Y-49937D01*
X-10000Y-49827D01*
D02*
G37*
G36*
X-200768Y-49588D02*
X-201684Y-49709D01*
X-202539Y-50062D01*
X-203272Y-50625D01*
X-203835Y-51359D01*
X-204189Y-52213D01*
X-204310Y-53130D01*
X-204189Y-54047D01*
X-203835Y-54901D01*
X-203272Y-55635D01*
X-202539Y-56198D01*
X-201684Y-56551D01*
X-200768Y-56672D01*
X-199851Y-56551D01*
X-198997Y-56198D01*
X-198263Y-55635D01*
X-197700Y-54901D01*
X-197346Y-54047D01*
X-197226Y-53130D01*
X-197346Y-52213D01*
X-197700Y-51359D01*
X-198263Y-50625D01*
X-198997Y-50062D01*
X-199851Y-49709D01*
X-200768Y-49588D01*
D02*
G37*
G36*
X-10000Y-59827D02*
X-10835Y-59937D01*
X-11612Y-60259D01*
X-12280Y-60771D01*
X-12792Y-61439D01*
X-13115Y-62217D01*
X-13224Y-63051D01*
X-13115Y-63886D01*
X-12792Y-64663D01*
X-12280Y-65331D01*
X-11612Y-65844D01*
X-10835Y-66166D01*
X-10000Y-66276D01*
X-9165Y-66166D01*
X-8388Y-65844D01*
X-7720Y-65331D01*
X-7208Y-64663D01*
X-6885Y-63886D01*
X-6775Y-63051D01*
X-6885Y-62217D01*
X-7208Y-61439D01*
X-7720Y-60771D01*
X-8388Y-60259D01*
X-9165Y-59937D01*
X-10000Y-59827D01*
D02*
G37*
G36*
X-200768Y-59588D02*
X-201684Y-59708D01*
X-202539Y-60062D01*
X-203272Y-60625D01*
X-203835Y-61359D01*
X-204189Y-62213D01*
X-204310Y-63130D01*
X-204189Y-64047D01*
X-203835Y-64901D01*
X-203272Y-65635D01*
X-202539Y-66198D01*
X-201684Y-66551D01*
X-200768Y-66672D01*
X-199851Y-66551D01*
X-198997Y-66198D01*
X-198263Y-65635D01*
X-197700Y-64901D01*
X-197346Y-64047D01*
X-197226Y-63130D01*
X-197346Y-62213D01*
X-197700Y-61359D01*
X-198263Y-60625D01*
X-198997Y-60062D01*
X-199851Y-59708D01*
X-200768Y-59588D01*
D02*
G37*
G36*
X-70630Y-66219D02*
X-71963Y-66350D01*
X-73244Y-66739D01*
X-74426Y-67370D01*
X-75461Y-68220D01*
X-76311Y-69256D01*
X-76942Y-70437D01*
X-77331Y-71718D01*
X-77462Y-73051D01*
X-77331Y-74384D01*
X-76942Y-75666D01*
X-76311Y-76847D01*
X-75461Y-77882D01*
X-74426Y-78732D01*
X-73244Y-79363D01*
X-71963Y-79752D01*
X-70630Y-79883D01*
X-69297Y-79752D01*
X-68015Y-79363D01*
X-66834Y-78732D01*
X-65799Y-77882D01*
X-64949Y-76847D01*
X-64318Y-75666D01*
X-63929Y-74384D01*
X-63798Y-73051D01*
X-63929Y-71718D01*
X-64318Y-70437D01*
X-64949Y-69256D01*
X-65799Y-68220D01*
X-66834Y-67370D01*
X-68015Y-66739D01*
X-69297Y-66350D01*
X-70630Y-66219D01*
D02*
G37*
%LPD*%
G36*
X-169838Y130398D02*
X-169848Y130493D01*
X-169879Y130578D01*
X-169929Y130653D01*
X-170000Y130718D01*
X-170091Y130773D01*
X-170203Y130818D01*
X-170334Y130853D01*
X-170486Y130878D01*
X-170658Y130893D01*
X-170850Y130898D01*
Y131898D01*
X-170658Y131903D01*
X-170486Y131918D01*
X-170334Y131943D01*
X-170203Y131978D01*
X-170091Y132023D01*
X-170000Y132078D01*
X-169929Y132143D01*
X-169879Y132218D01*
X-169848Y132303D01*
X-169838Y132398D01*
Y130398D01*
D02*
G37*
G36*
X-174001Y132485D02*
X-173857Y132362D01*
X-173713Y132253D01*
X-173566Y132159D01*
X-173419Y132079D01*
X-173271Y132014D01*
X-173122Y131963D01*
X-172971Y131927D01*
X-172819Y131905D01*
X-172667Y131898D01*
Y130898D01*
X-172819Y130890D01*
X-172971Y130869D01*
X-173122Y130832D01*
X-173271Y130782D01*
X-173419Y130716D01*
X-173566Y130637D01*
X-173713Y130542D01*
X-173857Y130434D01*
X-174001Y130310D01*
X-174144Y130173D01*
Y132623D01*
X-174001Y132485D01*
D02*
G37*
G36*
X-41708Y121667D02*
X-41718Y121762D01*
X-41749Y121848D01*
X-41799Y121923D01*
X-41870Y121989D01*
X-41961Y122045D01*
X-42073Y122091D01*
X-42204Y122128D01*
X-42356Y122155D01*
X-42528Y122172D01*
X-42720Y122179D01*
Y123179D01*
X-42528Y123182D01*
X-42356Y123195D01*
X-42204Y123218D01*
X-42073Y123252D01*
X-41961Y123295D01*
X-41870Y123349D01*
X-41799Y123413D01*
X-41749Y123488D01*
X-41718Y123573D01*
X-41708Y123667D01*
Y121667D01*
D02*
G37*
G36*
X-46036Y123807D02*
X-45893Y123682D01*
X-45750Y123571D01*
X-45605Y123475D01*
X-45458Y123394D01*
X-45311Y123327D01*
X-45162Y123274D01*
X-45012Y123236D01*
X-44861Y123212D01*
X-44708Y123203D01*
X-44720Y122203D01*
X-44873Y122198D01*
X-45025Y122178D01*
X-45176Y122144D01*
X-45326Y122095D01*
X-45475Y122031D01*
X-45623Y121953D01*
X-45770Y121861D01*
X-45916Y121754D01*
X-46062Y121632D01*
X-46206Y121496D01*
X-46176Y123946D01*
X-46036Y123807D01*
D02*
G37*
G36*
X-32264Y128656D02*
X-32349Y128625D01*
X-32424Y128575D01*
X-32489Y128504D01*
X-32544Y128413D01*
X-32589Y128301D01*
X-32624Y128170D01*
X-32649Y128018D01*
X-32664Y127846D01*
X-32669Y127654D01*
X-33669D01*
X-33674Y127846D01*
X-33689Y128018D01*
X-33714Y128170D01*
X-33749Y128301D01*
X-33794Y128413D01*
X-33849Y128504D01*
X-33914Y128575D01*
X-33989Y128625D01*
X-34074Y128656D01*
X-34169Y128666D01*
X-32169D01*
X-32264Y128656D01*
D02*
G37*
G36*
X-32664Y126091D02*
X-32649Y125919D01*
X-32624Y125767D01*
X-32589Y125636D01*
X-32544Y125524D01*
X-32489Y125433D01*
X-32424Y125362D01*
X-32349Y125312D01*
X-32264Y125281D01*
X-32169Y125271D01*
X-34169D01*
X-34074Y125281D01*
X-33989Y125312D01*
X-33914Y125362D01*
X-33849Y125433D01*
X-33794Y125524D01*
X-33749Y125636D01*
X-33714Y125767D01*
X-33689Y125919D01*
X-33674Y126091D01*
X-33669Y126283D01*
X-32669D01*
X-32664Y126091D01*
D02*
G37*
G36*
X-117693Y123045D02*
X-117778Y123015D01*
X-117853Y122964D01*
X-117918Y122894D01*
X-117973Y122802D01*
X-118018Y122691D01*
X-118053Y122560D01*
X-118078Y122408D01*
X-118093Y122236D01*
X-118098Y122044D01*
X-119098D01*
X-119103Y122236D01*
X-119118Y122408D01*
X-119143Y122560D01*
X-119178Y122691D01*
X-119223Y122802D01*
X-119278Y122894D01*
X-119343Y122964D01*
X-119418Y123015D01*
X-119503Y123045D01*
X-119598Y123056D01*
X-117598D01*
X-117693Y123045D01*
D02*
G37*
G36*
X-118093Y121170D02*
X-118078Y120998D01*
X-118053Y120846D01*
X-118018Y120714D01*
X-117973Y120603D01*
X-117918Y120512D01*
X-117853Y120441D01*
X-117778Y120390D01*
X-117693Y120360D01*
X-117598Y120350D01*
X-119598D01*
X-119503Y120360D01*
X-119418Y120390D01*
X-119343Y120441D01*
X-119278Y120512D01*
X-119223Y120603D01*
X-119178Y120714D01*
X-119143Y120846D01*
X-119118Y120998D01*
X-119103Y121170D01*
X-119098Y121362D01*
X-118098D01*
X-118093Y121170D01*
D02*
G37*
G36*
X-32958Y119994D02*
X-33043Y119964D01*
X-33118Y119913D01*
X-33183Y119842D01*
X-33238Y119751D01*
X-33283Y119640D01*
X-33318Y119508D01*
X-33343Y119357D01*
X-33358Y119185D01*
X-33363Y118992D01*
X-34363D01*
X-34368Y119185D01*
X-34383Y119357D01*
X-34408Y119508D01*
X-34443Y119640D01*
X-34488Y119751D01*
X-34543Y119842D01*
X-34608Y119913D01*
X-34683Y119964D01*
X-34768Y119994D01*
X-34863Y120004D01*
X-32863D01*
X-32958Y119994D01*
D02*
G37*
G36*
X-121232Y116913D02*
X-121242Y117008D01*
X-121272Y117093D01*
X-121323Y117168D01*
X-121394Y117233D01*
X-121485Y117288D01*
X-121596Y117333D01*
X-121728Y117368D01*
X-121880Y117393D01*
X-122052Y117408D01*
X-122244Y117413D01*
Y118413D01*
X-122052Y118418D01*
X-121880Y118433D01*
X-121728Y118458D01*
X-121596Y118493D01*
X-121485Y118538D01*
X-121394Y118593D01*
X-121323Y118658D01*
X-121272Y118733D01*
X-121242Y118818D01*
X-121232Y118913D01*
Y116913D01*
D02*
G37*
G36*
X-129004Y117152D02*
X-128992Y117000D01*
X-128972Y116865D01*
X-128944Y116748D01*
X-128908Y116649D01*
X-128865Y116569D01*
X-128813Y116506D01*
X-128753Y116461D01*
X-128686Y116434D01*
X-128610Y116425D01*
X-130406D01*
X-130330Y116434D01*
X-130262Y116461D01*
X-130203Y116506D01*
X-130151Y116569D01*
X-130107Y116649D01*
X-130071Y116748D01*
X-130044Y116865D01*
X-130024Y117000D01*
X-130012Y117152D01*
X-130008Y117323D01*
X-129008D01*
X-129004Y117152D01*
D02*
G37*
G36*
X-49101Y117233D02*
X-49086Y117061D01*
X-49061Y116909D01*
X-49026Y116777D01*
X-48981Y116666D01*
X-48926Y116575D01*
X-48861Y116504D01*
X-48786Y116454D01*
X-48701Y116423D01*
X-48606Y116413D01*
X-50606D01*
X-50511Y116423D01*
X-50426Y116454D01*
X-50351Y116504D01*
X-50286Y116575D01*
X-50231Y116666D01*
X-50186Y116777D01*
X-50151Y116909D01*
X-50126Y117061D01*
X-50111Y117233D01*
X-50106Y117425D01*
X-49106D01*
X-49101Y117233D01*
D02*
G37*
G36*
X-53893Y112681D02*
X-53903Y112776D01*
X-53934Y112861D01*
X-53984Y112936D01*
X-54055Y113001D01*
X-54146Y113056D01*
X-54258Y113101D01*
X-54389Y113136D01*
X-54541Y113161D01*
X-54713Y113176D01*
X-54905Y113181D01*
Y114181D01*
X-54713Y114186D01*
X-54541Y114201D01*
X-54389Y114226D01*
X-54258Y114261D01*
X-54146Y114306D01*
X-54055Y114361D01*
X-53984Y114426D01*
X-53934Y114501D01*
X-53903Y114586D01*
X-53893Y114681D01*
Y112681D01*
D02*
G37*
G36*
X-81490Y114586D02*
X-81460Y114501D01*
X-81409Y114426D01*
X-81338Y114361D01*
X-81247Y114306D01*
X-81136Y114261D01*
X-81005Y114226D01*
X-80853Y114201D01*
X-80681Y114186D01*
X-80488Y114181D01*
Y113181D01*
X-80681Y113176D01*
X-80853Y113161D01*
X-81005Y113136D01*
X-81136Y113101D01*
X-81247Y113056D01*
X-81338Y113001D01*
X-81409Y112936D01*
X-81460Y112861D01*
X-81490Y112776D01*
X-81500Y112681D01*
Y114681D01*
X-81490Y114586D01*
D02*
G37*
G36*
X-134011Y112681D02*
X-134021Y112776D01*
X-134052Y112861D01*
X-134102Y112936D01*
X-134173Y113001D01*
X-134264Y113056D01*
X-134376Y113101D01*
X-134507Y113136D01*
X-134659Y113161D01*
X-134831Y113176D01*
X-135023Y113181D01*
Y114181D01*
X-134831Y114186D01*
X-134659Y114201D01*
X-134507Y114226D01*
X-134376Y114261D01*
X-134264Y114306D01*
X-134173Y114361D01*
X-134102Y114426D01*
X-134052Y114501D01*
X-134021Y114586D01*
X-134011Y114681D01*
Y112681D01*
D02*
G37*
G36*
X-161608Y114586D02*
X-161578Y114501D01*
X-161527Y114426D01*
X-161457Y114361D01*
X-161365Y114306D01*
X-161254Y114261D01*
X-161123Y114226D01*
X-160971Y114201D01*
X-160799Y114186D01*
X-160607Y114181D01*
Y113181D01*
X-160799Y113176D01*
X-160971Y113161D01*
X-161123Y113136D01*
X-161254Y113101D01*
X-161365Y113056D01*
X-161457Y113001D01*
X-161527Y112936D01*
X-161578Y112861D01*
X-161608Y112776D01*
X-161618Y112681D01*
Y114681D01*
X-161608Y114586D01*
D02*
G37*
G36*
X-169838Y112681D02*
X-169848Y112776D01*
X-169879Y112861D01*
X-169929Y112936D01*
X-170000Y113001D01*
X-170091Y113056D01*
X-170203Y113101D01*
X-170334Y113136D01*
X-170486Y113161D01*
X-170658Y113176D01*
X-170850Y113181D01*
Y114181D01*
X-170658Y114186D01*
X-170486Y114201D01*
X-170334Y114226D01*
X-170203Y114261D01*
X-170091Y114306D01*
X-170000Y114361D01*
X-169929Y114426D01*
X-169879Y114501D01*
X-169848Y114586D01*
X-169838Y114681D01*
Y112681D01*
D02*
G37*
G36*
X-89720Y112681D02*
X-89730Y112776D01*
X-89761Y112861D01*
X-89811Y112936D01*
X-89882Y113001D01*
X-89973Y113056D01*
X-90084Y113101D01*
X-90216Y113136D01*
X-90368Y113161D01*
X-90540Y113176D01*
X-90732Y113181D01*
Y114181D01*
X-90540Y114186D01*
X-90368Y114201D01*
X-90216Y114226D01*
X-90084Y114261D01*
X-89973Y114306D01*
X-89882Y114361D01*
X-89811Y114426D01*
X-89761Y114501D01*
X-89730Y114586D01*
X-89720Y114681D01*
Y112681D01*
D02*
G37*
G36*
X-94010Y114586D02*
X-93980Y114501D01*
X-93929Y114426D01*
X-93858Y114361D01*
X-93767Y114306D01*
X-93656Y114261D01*
X-93524Y114226D01*
X-93372Y114201D01*
X-93200Y114186D01*
X-93008Y114181D01*
Y113181D01*
X-93200Y113176D01*
X-93372Y113161D01*
X-93524Y113136D01*
X-93656Y113101D01*
X-93767Y113056D01*
X-93858Y113001D01*
X-93929Y112936D01*
X-93980Y112861D01*
X-94010Y112776D01*
X-94020Y112681D01*
Y114681D01*
X-94010Y114586D01*
D02*
G37*
G36*
X-174671Y114768D02*
X-174527Y114645D01*
X-174382Y114536D01*
X-174236Y114442D01*
X-174089Y114362D01*
X-173940Y114297D01*
X-173791Y114246D01*
X-173640Y114210D01*
X-173489Y114188D01*
X-173336Y114181D01*
Y113181D01*
X-173489Y113174D01*
X-173640Y113152D01*
X-173791Y113116D01*
X-173940Y113065D01*
X-174089Y113000D01*
X-174236Y112920D01*
X-174382Y112826D01*
X-174527Y112717D01*
X-174671Y112594D01*
X-174813Y112456D01*
Y114906D01*
X-174671Y114768D01*
D02*
G37*
G36*
X-94010Y107401D02*
X-93980Y107316D01*
X-93929Y107241D01*
X-93858Y107176D01*
X-93767Y107121D01*
X-93656Y107076D01*
X-93524Y107041D01*
X-93372Y107016D01*
X-93200Y107001D01*
X-93008Y106996D01*
Y105996D01*
X-93200Y105991D01*
X-93372Y105976D01*
X-93524Y105951D01*
X-93656Y105916D01*
X-93767Y105871D01*
X-93858Y105816D01*
X-93929Y105751D01*
X-93980Y105676D01*
X-94010Y105591D01*
X-94020Y105496D01*
Y107496D01*
X-94010Y107401D01*
D02*
G37*
G36*
X-90128Y105271D02*
X-90270Y105409D01*
X-90414Y105532D01*
X-90559Y105641D01*
X-90705Y105735D01*
X-90852Y105815D01*
X-91001Y105880D01*
X-91150Y105931D01*
X-91301Y105967D01*
X-91452Y105989D01*
X-91605Y105996D01*
Y106996D01*
X-91452Y107003D01*
X-91301Y107025D01*
X-91150Y107061D01*
X-91001Y107112D01*
X-90852Y107177D01*
X-90705Y107257D01*
X-90559Y107351D01*
X-90414Y107460D01*
X-90270Y107583D01*
X-90128Y107721D01*
Y105271D01*
D02*
G37*
G36*
X-47933Y105076D02*
X-48057Y104932D01*
X-48165Y104787D01*
X-48259Y104641D01*
X-48339Y104494D01*
X-48404Y104346D01*
X-48455Y104196D01*
X-48491Y104046D01*
X-48513Y103894D01*
X-48520Y103742D01*
X-49520D01*
X-49528Y103894D01*
X-49549Y104046D01*
X-49586Y104196D01*
X-49637Y104346D01*
X-49702Y104494D01*
X-49782Y104641D01*
X-49876Y104787D01*
X-49984Y104932D01*
X-50108Y105076D01*
X-50245Y105219D01*
X-47796D01*
X-47933Y105076D01*
D02*
G37*
G36*
X-200770Y102450D02*
X-200740Y102365D01*
X-200690Y102290D01*
X-200620Y102225D01*
X-200530Y102170D01*
X-200420Y102125D01*
X-200290Y102090D01*
X-200140Y102065D01*
X-199970Y102050D01*
X-199780Y102045D01*
Y101045D01*
X-199970Y101040D01*
X-200140Y101025D01*
X-200290Y101000D01*
X-200420Y100965D01*
X-200530Y100920D01*
X-200620Y100865D01*
X-200690Y100800D01*
X-200740Y100725D01*
X-200770Y100640D01*
X-200780Y100545D01*
Y101036D01*
X-202171Y100944D01*
X-202300Y100912D01*
X-202394Y100877D01*
X-202453Y100838D01*
Y102253D01*
X-202394Y102213D01*
X-202300Y102178D01*
X-202171Y102147D01*
X-202008Y102120D01*
X-201576Y102078D01*
X-200780Y102051D01*
Y102545D01*
X-200770Y102450D01*
D02*
G37*
G36*
X-197279Y102074D02*
X-196175Y102147D01*
X-196046Y102178D01*
X-195953Y102213D01*
X-195894Y102253D01*
Y100838D01*
X-195953Y100877D01*
X-196046Y100912D01*
X-196175Y100944D01*
X-196339Y100971D01*
X-196771Y101012D01*
X-197279Y101030D01*
Y100545D01*
X-197289Y100640D01*
X-197320Y100725D01*
X-197370Y100800D01*
X-197441Y100865D01*
X-197532Y100920D01*
X-197643Y100965D01*
X-197775Y101000D01*
X-197927Y101025D01*
X-198099Y101040D01*
X-198291Y101045D01*
Y102045D01*
X-198099Y102050D01*
X-197927Y102065D01*
X-197775Y102090D01*
X-197643Y102125D01*
X-197532Y102170D01*
X-197441Y102225D01*
X-197370Y102290D01*
X-197320Y102365D01*
X-197289Y102450D01*
X-197279Y102545D01*
Y102074D01*
D02*
G37*
G36*
X-10030Y99878D02*
X-10465Y99875D01*
X-11245Y99823D01*
X-11590Y99774D01*
X-11905Y99709D01*
X-12189Y99630D01*
X-12443Y99535D01*
X-12667Y99425D01*
X-12861Y99299D01*
X-13024Y99158D01*
X-13732Y99865D01*
X-13591Y100029D01*
X-13465Y100223D01*
X-13355Y100447D01*
X-13260Y100701D01*
X-13180Y100985D01*
X-13116Y101300D01*
X-13067Y101644D01*
X-13015Y102424D01*
X-13012Y102860D01*
X-10030Y99878D01*
D02*
G37*
G36*
X-36909Y126969D02*
X-95965D01*
X-101472Y121461D01*
Y97165D01*
X-102810D01*
X-102799Y97031D01*
X-102749Y96730D01*
X-102679Y96468D01*
X-102589Y96247D01*
X-102479Y96066D01*
X-102349Y95925D01*
X-102199Y95824D01*
X-102029Y95764D01*
X-101839Y95744D01*
X-105839D01*
X-105649Y95764D01*
X-105479Y95824D01*
X-105329Y95925D01*
X-105199Y96066D01*
X-105089Y96247D01*
X-104999Y96468D01*
X-104929Y96730D01*
X-104879Y97031D01*
X-104867Y97165D01*
X-117324D01*
X-117312Y97031D01*
X-117262Y96730D01*
X-117192Y96468D01*
X-117102Y96247D01*
X-116992Y96066D01*
X-116862Y95925D01*
X-116712Y95824D01*
X-116542Y95764D01*
X-116352Y95744D01*
X-120352D01*
X-120162Y95764D01*
X-119992Y95824D01*
X-119842Y95925D01*
X-119712Y96066D01*
X-119602Y96247D01*
X-119512Y96468D01*
X-119442Y96730D01*
X-119392Y97031D01*
X-119381Y97165D01*
X-122953D01*
X-123425Y97638D01*
X-122988Y98075D01*
Y114862D01*
X-113976D01*
X-112894Y115945D01*
Y136713D01*
X-36909D01*
Y126969D01*
D02*
G37*
G36*
X-191992Y96712D02*
X-191932Y96542D01*
X-191831Y96392D01*
X-191690Y96262D01*
X-191509Y96152D01*
X-191288Y96062D01*
X-191026Y95992D01*
X-190725Y95942D01*
X-190382Y95912D01*
X-190000Y95902D01*
Y93902D01*
X-190382Y93892D01*
X-190725Y93862D01*
X-191026Y93812D01*
X-191288Y93742D01*
X-191509Y93652D01*
X-191690Y93542D01*
X-191831Y93412D01*
X-191932Y93262D01*
X-191992Y93092D01*
X-192012Y92902D01*
Y96902D01*
X-191992Y96712D01*
D02*
G37*
G36*
X-95620Y94015D02*
X-95590Y93930D01*
X-95539Y93855D01*
X-95468Y93790D01*
X-95377Y93735D01*
X-95266Y93690D01*
X-95134Y93655D01*
X-94983Y93630D01*
X-94811Y93615D01*
X-94618Y93610D01*
Y92610D01*
X-94811Y92605D01*
X-94983Y92590D01*
X-95134Y92565D01*
X-95266Y92530D01*
X-95377Y92485D01*
X-95468Y92430D01*
X-95539Y92365D01*
X-95590Y92290D01*
X-95620Y92205D01*
X-95630Y92110D01*
Y94110D01*
X-95620Y94015D01*
D02*
G37*
G36*
X-97162Y90467D02*
X-97247Y90436D01*
X-97322Y90386D01*
X-97387Y90315D01*
X-97442Y90224D01*
X-97487Y90112D01*
X-97522Y89981D01*
X-97547Y89829D01*
X-97562Y89657D01*
X-97567Y89465D01*
X-98567D01*
X-98572Y89657D01*
X-98587Y89829D01*
X-98612Y89981D01*
X-98647Y90112D01*
X-98692Y90224D01*
X-98747Y90315D01*
X-98812Y90386D01*
X-98887Y90436D01*
X-98972Y90467D01*
X-99067Y90477D01*
X-97067D01*
X-97162Y90467D01*
D02*
G37*
G36*
X-111099D02*
X-111184Y90436D01*
X-111259Y90386D01*
X-111324Y90315D01*
X-111379Y90224D01*
X-111424Y90112D01*
X-111459Y89981D01*
X-111484Y89829D01*
X-111499Y89657D01*
X-111504Y89465D01*
X-112504D01*
X-112509Y89657D01*
X-112524Y89829D01*
X-112549Y89981D01*
X-112584Y90112D01*
X-112629Y90224D01*
X-112684Y90315D01*
X-112749Y90386D01*
X-112824Y90436D01*
X-112909Y90467D01*
X-113004Y90477D01*
X-111004D01*
X-111099Y90467D01*
D02*
G37*
G36*
X-192836Y92433D02*
X-193006Y92373D01*
X-193156Y92273D01*
X-193286Y92133D01*
X-193396Y91953D01*
X-193486Y91733D01*
X-193556Y91473D01*
X-193606Y91173D01*
X-193636Y90833D01*
X-193644Y90521D01*
X-193643Y90480D01*
X-193610Y89990D01*
X-193589Y89858D01*
X-193565Y89742D01*
X-193535Y89643D01*
X-193502Y89559D01*
X-193463Y89491D01*
X-193421Y89439D01*
X-195871D01*
X-195828Y89491D01*
X-195790Y89559D01*
X-195756Y89643D01*
X-195727Y89742D01*
X-195702Y89858D01*
X-195682Y89990D01*
X-195655Y90301D01*
X-195648Y90559D01*
X-195656Y90833D01*
X-195686Y91173D01*
X-195736Y91473D01*
X-195806Y91733D01*
X-195896Y91953D01*
X-196006Y92133D01*
X-196136Y92273D01*
X-196286Y92373D01*
X-196456Y92433D01*
X-196646Y92453D01*
X-192646D01*
X-192836Y92433D01*
D02*
G37*
G36*
X-116388Y90457D02*
X-116558Y90396D01*
X-116708Y90296D01*
X-116838Y90155D01*
X-116948Y89974D01*
X-117038Y89752D01*
X-117107Y89491D01*
X-117157Y89189D01*
X-117188Y88847D01*
X-117198Y88465D01*
X-119198D01*
X-119208Y88847D01*
X-119238Y89189D01*
X-119288Y89491D01*
X-119358Y89752D01*
X-119448Y89974D01*
X-119557Y90155D01*
X-119688Y90296D01*
X-119838Y90396D01*
X-120008Y90457D01*
X-120198Y90477D01*
X-116198D01*
X-116388Y90457D01*
D02*
G37*
G36*
X-193344Y89371D02*
X-193276Y89333D01*
X-193192Y89299D01*
X-193092Y89270D01*
X-192976Y89245D01*
X-192845Y89225D01*
X-192534Y89198D01*
X-192159Y89189D01*
Y87189D01*
X-192355Y87187D01*
X-192845Y87153D01*
X-192976Y87133D01*
X-193092Y87108D01*
X-193192Y87079D01*
X-193276Y87045D01*
X-193344Y87007D01*
X-193396Y86964D01*
Y89414D01*
X-193344Y89371D01*
D02*
G37*
G36*
X-193463Y86887D02*
X-193502Y86819D01*
X-193535Y86735D01*
X-193565Y86636D01*
X-193589Y86520D01*
X-193610Y86388D01*
X-193637Y86077D01*
X-193646Y85703D01*
X-195646D01*
X-195648Y85898D01*
X-195682Y86388D01*
X-195702Y86520D01*
X-195727Y86636D01*
X-195756Y86735D01*
X-195790Y86819D01*
X-195828Y86887D01*
X-195871Y86939D01*
X-193421D01*
X-193463Y86887D01*
D02*
G37*
G36*
X-93664Y85323D02*
X-93649Y85151D01*
X-93624Y85000D01*
X-93589Y84868D01*
X-93544Y84757D01*
X-93489Y84666D01*
X-93424Y84595D01*
X-93349Y84544D01*
X-93264Y84514D01*
X-93169Y84504D01*
X-95169D01*
X-95074Y84514D01*
X-94989Y84544D01*
X-94914Y84595D01*
X-94849Y84666D01*
X-94794Y84757D01*
X-94749Y84868D01*
X-94714Y85000D01*
X-94689Y85151D01*
X-94674Y85323D01*
X-94669Y85516D01*
X-93669D01*
X-93664Y85323D01*
D02*
G37*
G36*
X-106682Y85071D02*
X-106506Y84953D01*
X-106305Y84850D01*
X-106079Y84761D01*
X-105827Y84686D01*
X-105551Y84626D01*
X-105250Y84580D01*
X-104924Y84548D01*
X-104196Y84527D01*
X-106866Y81858D01*
X-106869Y82234D01*
X-106919Y82911D01*
X-106965Y83213D01*
X-107025Y83489D01*
X-107100Y83740D01*
X-107188Y83966D01*
X-107292Y84168D01*
X-107409Y84344D01*
X-107541Y84495D01*
X-106834Y85202D01*
X-106682Y85071D01*
D02*
G37*
G36*
X-116187Y85275D02*
X-115990Y85116D01*
X-115787Y84976D01*
X-115578Y84855D01*
X-115363Y84753D01*
X-115142Y84670D01*
X-114915Y84605D01*
X-114681Y84561D01*
X-114442Y84535D01*
X-114196Y84527D01*
X-116866Y81858D01*
X-116873Y82103D01*
X-116899Y82343D01*
X-116944Y82576D01*
X-117008Y82803D01*
X-117091Y83025D01*
X-117193Y83240D01*
X-117314Y83449D01*
X-117454Y83651D01*
X-117613Y83848D01*
X-117792Y84039D01*
X-116377Y85453D01*
X-116187Y85275D01*
D02*
G37*
G36*
X-91486Y82736D02*
X-91456Y82651D01*
X-91405Y82576D01*
X-91334Y82511D01*
X-91243Y82456D01*
X-91132Y82411D01*
X-91000Y82376D01*
X-90849Y82351D01*
X-90677Y82336D01*
X-90484Y82331D01*
Y81331D01*
X-90677Y81326D01*
X-90849Y81311D01*
X-91000Y81286D01*
X-91132Y81251D01*
X-91243Y81206D01*
X-91334Y81151D01*
X-91405Y81086D01*
X-91456Y81011D01*
X-91486Y80926D01*
X-91496Y80831D01*
Y82831D01*
X-91486Y82736D01*
D02*
G37*
G36*
X-102545Y79637D02*
X-102989Y79123D01*
X-103170Y78877D01*
X-103322Y78639D01*
X-103447Y78409D01*
X-103544Y78186D01*
X-103614Y77970D01*
X-103655Y77763D01*
X-103669Y77562D01*
X-104669D01*
X-104683Y77763D01*
X-104725Y77970D01*
X-104794Y78186D01*
X-104891Y78409D01*
X-105016Y78639D01*
X-105169Y78877D01*
X-105349Y79123D01*
X-105558Y79376D01*
X-106057Y79905D01*
X-102281D01*
X-102545Y79637D01*
D02*
G37*
G36*
X-107130Y96268D02*
Y89953D01*
X-101528D01*
X-101209Y89953D01*
X-100709Y89953D01*
X-99166D01*
X-99161Y89941D01*
X-99142Y89867D01*
X-99124Y89761D01*
X-99112Y89627D01*
X-99108Y89451D01*
X-99086Y89403D01*
Y87594D01*
X-99009Y87204D01*
X-98788Y86873D01*
X-98457Y86652D01*
X-98067Y86574D01*
X-96158D01*
X-95189Y85605D01*
Y85578D01*
X-95210Y85530D01*
X-95215Y85354D01*
X-95227Y85219D01*
X-95244Y85113D01*
X-95264Y85040D01*
X-95268Y85028D01*
X-97366D01*
Y78634D01*
X-90972D01*
Y80731D01*
X-90961Y80736D01*
X-90887Y80756D01*
X-90781Y80773D01*
X-90646Y80785D01*
X-90470Y80790D01*
X-90422Y80811D01*
X-89044D01*
X-86035Y77802D01*
Y74264D01*
X-86535Y74053D01*
X-86711Y74170D01*
X-87102Y74248D01*
X-102137D01*
X-102548Y74659D01*
X-102566Y74707D01*
X-102687Y74837D01*
X-102781Y74955D01*
X-102863Y75075D01*
X-102933Y75199D01*
X-102992Y75326D01*
X-103040Y75458D01*
X-103078Y75595D01*
X-103105Y75738D01*
X-103122Y75888D01*
X-103128Y76065D01*
X-103150Y76112D01*
Y77484D01*
X-103129Y77525D01*
X-103118Y77691D01*
X-103089Y77834D01*
X-103038Y77994D01*
X-102960Y78171D01*
X-102856Y78364D01*
X-102723Y78570D01*
X-102566Y78785D01*
X-102147Y79270D01*
X-101895Y79525D01*
X-101881Y79562D01*
X-101377Y80218D01*
X-101055Y80996D01*
X-100945Y81831D01*
X-101055Y82665D01*
X-101377Y83443D01*
X-101889Y84111D01*
X-102557Y84623D01*
X-103335Y84945D01*
X-104144Y85052D01*
X-104181Y85068D01*
X-104890Y85089D01*
X-105182Y85117D01*
X-105452Y85158D01*
X-105692Y85211D01*
X-105902Y85273D01*
X-106082Y85344D01*
X-106232Y85421D01*
X-106353Y85502D01*
X-106479Y85611D01*
X-106522Y85625D01*
X-107247Y86351D01*
X-107578Y86572D01*
X-107968Y86650D01*
X-110984D01*
Y89403D01*
X-110963Y89451D01*
X-110958Y89627D01*
X-110947Y89761D01*
X-110929Y89867D01*
X-110910Y89941D01*
X-110905Y89953D01*
X-109043D01*
Y96124D01*
X-109043Y96268D01*
X-108697Y96624D01*
X-107476D01*
X-107130Y96268D01*
D02*
G37*
G36*
X-103662Y75849D02*
X-103641Y75657D01*
X-103606Y75472D01*
X-103556Y75292D01*
X-103492Y75119D01*
X-103415Y74951D01*
X-103323Y74789D01*
X-103217Y74633D01*
X-103096Y74483D01*
X-102962Y74339D01*
X-103462Y73424D01*
X-103604Y73552D01*
X-103745Y73651D01*
X-103886Y73721D01*
X-104028Y73764D01*
X-104169Y73778D01*
X-104311Y73764D01*
X-104452Y73721D01*
X-104594Y73651D01*
X-104735Y73552D01*
X-104876Y73424D01*
X-105376Y74339D01*
X-105242Y74483D01*
X-105122Y74633D01*
X-105016Y74789D01*
X-104924Y74951D01*
X-104846Y75119D01*
X-104782Y75292D01*
X-104733Y75472D01*
X-104698Y75657D01*
X-104676Y75849D01*
X-104669Y76046D01*
X-103669D01*
X-103662Y75849D01*
D02*
G37*
G36*
X-163478Y73017D02*
X-163611Y73173D01*
X-163758Y73313D01*
X-163917Y73436D01*
X-164090Y73543D01*
X-164275Y73633D01*
X-164474Y73707D01*
X-164685Y73765D01*
X-164910Y73806D01*
X-165147Y73830D01*
X-165398Y73839D01*
X-165140Y75839D01*
X-164893Y75845D01*
X-164654Y75865D01*
X-164425Y75898D01*
X-164204Y75943D01*
X-163993Y76002D01*
X-163790Y76074D01*
X-163596Y76159D01*
X-163411Y76257D01*
X-163235Y76369D01*
X-163069Y76493D01*
X-163478Y73017D01*
D02*
G37*
G36*
X-90134Y64719D02*
X-90219Y64688D01*
X-90294Y64638D01*
X-90359Y64567D01*
X-90414Y64476D01*
X-90459Y64364D01*
X-90494Y64233D01*
X-90519Y64081D01*
X-90534Y63909D01*
X-90539Y63717D01*
X-91539D01*
X-91544Y63909D01*
X-91559Y64081D01*
X-91584Y64233D01*
X-91619Y64364D01*
X-91664Y64476D01*
X-91719Y64567D01*
X-91784Y64638D01*
X-91859Y64688D01*
X-91944Y64719D01*
X-92039Y64729D01*
X-90039D01*
X-90134Y64719D01*
D02*
G37*
G36*
X-90534Y59969D02*
X-90519Y59797D01*
X-90494Y59645D01*
X-90459Y59514D01*
X-90414Y59402D01*
X-90359Y59311D01*
X-90294Y59240D01*
X-90219Y59190D01*
X-90134Y59159D01*
X-90039Y59149D01*
X-92039D01*
X-91944Y59159D01*
X-91859Y59190D01*
X-91784Y59240D01*
X-91719Y59311D01*
X-91664Y59402D01*
X-91619Y59514D01*
X-91584Y59645D01*
X-91559Y59797D01*
X-91544Y59969D01*
X-91539Y60161D01*
X-90539D01*
X-90534Y59969D01*
D02*
G37*
G36*
X-159473Y59809D02*
X-159005Y59409D01*
X-158780Y59246D01*
X-158561Y59109D01*
X-158347Y58996D01*
X-158140Y58909D01*
X-157938Y58846D01*
X-157741Y58809D01*
X-157551Y58796D01*
Y57796D01*
X-157741Y57784D01*
X-157938Y57746D01*
X-158140Y57684D01*
X-158347Y57596D01*
X-158561Y57484D01*
X-158780Y57346D01*
X-159005Y57184D01*
X-159236Y56996D01*
X-159715Y56546D01*
Y60046D01*
X-159473Y59809D01*
D02*
G37*
G36*
X-112893Y59448D02*
X-112832Y59278D01*
X-112731Y59128D01*
X-112590Y58998D01*
X-112409Y58888D01*
X-112188Y58798D01*
X-111927Y58728D01*
X-111625Y58678D01*
X-111284Y58648D01*
X-110902Y58638D01*
Y56638D01*
X-111282Y56629D01*
X-111622Y56603D01*
X-111922Y56559D01*
X-112182Y56497D01*
X-112402Y56418D01*
X-112582Y56322D01*
X-112722Y56208D01*
X-112822Y56076D01*
X-112882Y55927D01*
X-112902Y55760D01*
X-112914Y59638D01*
X-112893Y59448D01*
D02*
G37*
G36*
X-115561Y55760D02*
X-115717Y55873D01*
X-115901Y55930D01*
X-116113D01*
X-116353Y55873D01*
X-116622Y55760D01*
X-116919Y55590D01*
X-117244Y55364D01*
X-117598Y55081D01*
X-118389Y54346D01*
X-119804Y55760D01*
X-119408Y56170D01*
X-118786Y56906D01*
X-118559Y57231D01*
X-118389Y57528D01*
X-118276Y57797D01*
X-118220Y58037D01*
Y58249D01*
X-118276Y58433D01*
X-118389Y58588D01*
X-115561Y55760D01*
D02*
G37*
G36*
X-107976Y55638D02*
X-107996Y55828D01*
X-108056Y55998D01*
X-108156Y56148D01*
X-108296Y56278D01*
X-108476Y56388D01*
X-108696Y56478D01*
X-108956Y56548D01*
X-109256Y56598D01*
X-109596Y56628D01*
X-109976Y56638D01*
Y58638D01*
X-109596Y58643D01*
X-108696Y58722D01*
X-108476Y58769D01*
X-108296Y58826D01*
X-108156Y58894D01*
X-108056Y58973D01*
X-107996Y59062D01*
X-107976Y59161D01*
Y55638D01*
D02*
G37*
G36*
X-89203Y54291D02*
X-89173Y54206D01*
X-89122Y54131D01*
X-89051Y54066D01*
X-88960Y54011D01*
X-88849Y53966D01*
X-88717Y53931D01*
X-88565Y53906D01*
X-88393Y53891D01*
X-88201Y53886D01*
Y52886D01*
X-88393Y52881D01*
X-88565Y52866D01*
X-88717Y52841D01*
X-88849Y52806D01*
X-88960Y52761D01*
X-89051Y52706D01*
X-89122Y52641D01*
X-89173Y52566D01*
X-89203Y52481D01*
X-89213Y52386D01*
Y54386D01*
X-89203Y54291D01*
D02*
G37*
G36*
X-124240Y54881D02*
X-124180Y54711D01*
X-124079Y54561D01*
X-123939Y54431D01*
X-123757Y54321D01*
X-123536Y54231D01*
X-123275Y54161D01*
X-122973Y54111D01*
X-122631Y54081D01*
X-122248Y54071D01*
Y52071D01*
X-122631Y52061D01*
X-122973Y52031D01*
X-123275Y51981D01*
X-123536Y51911D01*
X-123757Y51821D01*
X-123939Y51711D01*
X-124079Y51581D01*
X-124180Y51431D01*
X-124240Y51261D01*
X-124260Y51071D01*
Y55071D01*
X-124240Y54881D01*
D02*
G37*
G36*
X-89852Y50314D02*
X-89822Y50230D01*
X-89771Y50155D01*
X-89701Y50090D01*
X-89610Y50034D01*
X-89498Y49990D01*
X-89367Y49955D01*
X-89215Y49929D01*
X-89043Y49915D01*
X-88851Y49909D01*
Y48910D01*
X-89043Y48904D01*
X-89215Y48889D01*
X-89367Y48864D01*
X-89498Y48829D01*
X-89610Y48785D01*
X-89701Y48730D01*
X-89771Y48665D01*
X-89822Y48590D01*
X-89852Y48504D01*
X-89863Y48410D01*
Y50410D01*
X-89852Y50314D01*
D02*
G37*
G36*
X-107976Y48410D02*
X-107986Y48504D01*
X-108016Y48590D01*
X-108066Y48665D01*
X-108136Y48730D01*
X-108226Y48785D01*
X-108336Y48829D01*
X-108466Y48864D01*
X-108616Y48889D01*
X-108786Y48904D01*
X-108976Y48910D01*
Y49909D01*
X-108786Y49915D01*
X-108616Y49929D01*
X-108466Y49955D01*
X-108336Y49990D01*
X-108226Y50034D01*
X-108136Y50090D01*
X-108066Y50155D01*
X-108016Y50230D01*
X-107986Y50314D01*
X-107976Y50410D01*
Y48410D01*
D02*
G37*
G36*
X-93284Y47612D02*
X-93369Y47582D01*
X-93444Y47531D01*
X-93509Y47460D01*
X-93564Y47369D01*
X-93609Y47258D01*
X-93644Y47127D01*
X-93669Y46975D01*
X-93684Y46803D01*
X-93689Y46610D01*
X-94689D01*
X-94694Y46803D01*
X-94709Y46975D01*
X-94734Y47127D01*
X-94769Y47258D01*
X-94814Y47369D01*
X-94869Y47460D01*
X-94934Y47531D01*
X-95009Y47582D01*
X-95094Y47612D01*
X-95189Y47622D01*
X-93189D01*
X-93284Y47612D01*
D02*
G37*
G36*
X-102733D02*
X-102818Y47582D01*
X-102893Y47531D01*
X-102958Y47460D01*
X-103013Y47369D01*
X-103058Y47258D01*
X-103093Y47127D01*
X-103118Y46975D01*
X-103133Y46803D01*
X-103138Y46610D01*
X-104138D01*
X-104143Y46803D01*
X-104158Y46975D01*
X-104183Y47127D01*
X-104218Y47258D01*
X-104263Y47369D01*
X-104318Y47460D01*
X-104383Y47531D01*
X-104458Y47582D01*
X-104543Y47612D01*
X-104638Y47622D01*
X-102638D01*
X-102733Y47612D01*
D02*
G37*
G36*
X-114453Y44823D02*
X-114431Y44671D01*
X-114393Y44521D01*
X-114340Y44374D01*
X-114273Y44229D01*
X-114190Y44087D01*
X-114093Y43947D01*
X-113980Y43809D01*
X-113852Y43674D01*
X-113709Y43541D01*
X-116156Y43403D01*
X-116024Y43556D01*
X-115905Y43708D01*
X-115801Y43860D01*
X-115711Y44012D01*
X-115634Y44163D01*
X-115572Y44315D01*
X-115523Y44466D01*
X-115488Y44617D01*
X-115468Y44768D01*
X-115461Y44919D01*
X-114461Y44978D01*
X-114453Y44823D01*
D02*
G37*
G36*
X-93684Y43906D02*
X-93669Y43734D01*
X-93644Y43582D01*
X-93609Y43451D01*
X-93564Y43339D01*
X-93509Y43248D01*
X-93444Y43177D01*
X-93369Y43127D01*
X-93284Y43096D01*
X-93189Y43086D01*
X-95189D01*
X-95094Y43096D01*
X-95009Y43127D01*
X-94934Y43177D01*
X-94869Y43248D01*
X-94814Y43339D01*
X-94769Y43451D01*
X-94734Y43582D01*
X-94709Y43734D01*
X-94694Y43906D01*
X-94689Y44098D01*
X-93689D01*
X-93684Y43906D01*
D02*
G37*
G36*
X-107367Y43312D02*
X-107224Y43188D01*
X-107079Y43080D01*
X-106933Y42985D01*
X-106785Y42906D01*
X-106637Y42840D01*
X-106488Y42790D01*
X-106337Y42753D01*
X-106186Y42732D01*
X-106033Y42724D01*
Y41724D01*
X-106186Y41717D01*
X-106337Y41695D01*
X-106488Y41659D01*
X-106637Y41608D01*
X-106785Y41543D01*
X-106933Y41463D01*
X-107079Y41369D01*
X-107224Y41260D01*
X-107367Y41137D01*
X-107510Y40999D01*
Y43449D01*
X-107367Y43312D01*
D02*
G37*
G36*
X-166968Y-902D02*
X-166978Y-807D01*
X-167009Y-722D01*
X-167059Y-647D01*
X-167130Y-582D01*
X-167221Y-527D01*
X-167332Y-482D01*
X-167464Y-447D01*
X-167616Y-422D01*
X-167788Y-407D01*
X-167980Y-402D01*
Y598D01*
X-167788Y603D01*
X-167616Y618D01*
X-167464Y643D01*
X-167332Y678D01*
X-167221Y723D01*
X-167130Y778D01*
X-167059Y843D01*
X-167009Y918D01*
X-166978Y1003D01*
X-166968Y1098D01*
Y-902D01*
D02*
G37*
G36*
X-151786Y905D02*
X-151755Y820D01*
X-151705Y745D01*
X-151634Y680D01*
X-151543Y625D01*
X-151431Y580D01*
X-151300Y545D01*
X-151148Y520D01*
X-150976Y505D01*
X-150784Y500D01*
Y-500D01*
X-150976Y-505D01*
X-151148Y-520D01*
X-151300Y-545D01*
X-151431Y-580D01*
X-151543Y-625D01*
X-151634Y-680D01*
X-151705Y-745D01*
X-151755Y-820D01*
X-151786Y-905D01*
X-151796Y-1000D01*
Y1000D01*
X-151786Y905D01*
D02*
G37*
G36*
X-170950Y1186D02*
X-170806Y1062D01*
X-170661Y954D01*
X-170515Y859D01*
X-170368Y780D01*
X-170220Y714D01*
X-170070Y664D01*
X-169920Y627D01*
X-169768Y606D01*
X-169615Y598D01*
Y-402D01*
X-169768Y-409D01*
X-169920Y-431D01*
X-170070Y-467D01*
X-170220Y-518D01*
X-170368Y-583D01*
X-170515Y-663D01*
X-170661Y-757D01*
X-170806Y-866D01*
X-170950Y-989D01*
X-171093Y-1127D01*
Y1323D01*
X-170950Y1186D01*
D02*
G37*
G36*
X-146722Y-1225D02*
X-146865Y-1087D01*
X-147009Y-964D01*
X-147154Y-855D01*
X-147300Y-761D01*
X-147447Y-681D01*
X-147595Y-616D01*
X-147745Y-565D01*
X-147895Y-529D01*
X-148047Y-507D01*
X-148199Y-500D01*
Y500D01*
X-148047Y507D01*
X-147895Y529D01*
X-147745Y565D01*
X-147595Y616D01*
X-147447Y681D01*
X-147300Y761D01*
X-147154Y855D01*
X-147009Y964D01*
X-146865Y1087D01*
X-146722Y1225D01*
Y-1225D01*
D02*
G37*
G36*
X-153229Y-2447D02*
X-153314Y-2477D01*
X-153389Y-2528D01*
X-153454Y-2599D01*
X-153509Y-2690D01*
X-153554Y-2801D01*
X-153589Y-2932D01*
X-153614Y-3084D01*
X-153629Y-3256D01*
X-153634Y-3449D01*
X-154634D01*
X-154639Y-3256D01*
X-154654Y-3084D01*
X-154679Y-2932D01*
X-154714Y-2801D01*
X-154759Y-2690D01*
X-154814Y-2599D01*
X-154879Y-2528D01*
X-154954Y-2477D01*
X-155039Y-2447D01*
X-155134Y-2437D01*
X-153134D01*
X-153229Y-2447D01*
D02*
G37*
G36*
X-164960Y-8507D02*
X-164970Y-8500D01*
X-165000Y-8494D01*
X-165050Y-8488D01*
X-165210Y-8479D01*
X-165960Y-8469D01*
Y-7469D01*
X-164960Y-7431D01*
Y-8507D01*
D02*
G37*
G36*
X-157587Y2961D02*
Y-2961D01*
X-155233D01*
X-155228Y-2973D01*
X-155209Y-3046D01*
X-155191Y-3152D01*
X-155179Y-3287D01*
X-155175Y-3463D01*
X-155153Y-3511D01*
Y-5385D01*
X-158472Y-8703D01*
X-158972Y-8496D01*
Y-7069D01*
X-161769D01*
X-161832Y-7028D01*
X-162222Y-6950D01*
X-164816D01*
X-164960Y-6890D01*
X-164970Y-6894D01*
X-164981Y-6891D01*
X-165606Y-6914D01*
X-166104Y-6480D01*
X-166106Y-6471D01*
Y-3115D01*
X-165853Y-2862D01*
X-161177D01*
Y3002D01*
X-158069D01*
X-157587Y2961D01*
D02*
G37*
G36*
X-158484Y-10389D02*
X-158674Y-10390D01*
X-159394Y-10433D01*
X-159444Y-10446D01*
X-159474Y-10461D01*
X-159484Y-10477D01*
Y-9401D01*
X-158484Y-9389D01*
Y-10389D01*
D02*
G37*
G36*
X-159474Y-11383D02*
X-159444Y-11393D01*
X-159394Y-11402D01*
X-159324Y-11410D01*
X-158994Y-11428D01*
X-158484Y-11437D01*
Y-12437D01*
X-159484Y-12448D01*
Y-11372D01*
X-159474Y-11383D01*
D02*
G37*
G36*
X-156805Y-11811D02*
X-156551Y-12023D01*
X-156422Y-12115D01*
X-156293Y-12197D01*
X-156163Y-12269D01*
X-156031Y-12332D01*
X-155899Y-12386D01*
X-155766Y-12429D01*
X-155632Y-12463D01*
X-157552Y-13356D01*
X-157499Y-13243D01*
X-157463Y-13131D01*
X-157442Y-13021D01*
X-157437Y-12913D01*
X-157447Y-12806D01*
X-157474Y-12701D01*
X-157516Y-12598D01*
X-157574Y-12497D01*
X-157648Y-12397D01*
X-157737Y-12298D01*
X-156931Y-11690D01*
X-156805Y-11811D01*
D02*
G37*
G36*
X-181299Y49016D02*
X-144882Y12598D01*
X-146063Y11417D01*
Y3543D01*
X-171850D01*
X-172146Y3248D01*
X-173228D01*
X-175689Y787D01*
X-175394Y492D01*
Y-6399D01*
X-175992D01*
Y-11730D01*
X-175747D01*
X-175394Y-12083D01*
X-175394Y-12302D01*
X-176083Y-12303D01*
X-175807Y-12303D01*
X-175394Y-12509D01*
X-174979Y-12509D01*
X-168199Y-12509D01*
X-168111Y-12598D01*
X-165381Y-15327D01*
X-164960Y-15311D01*
Y-16387D01*
X-164970Y-16380D01*
X-165000Y-16374D01*
X-165050Y-16368D01*
X-165210Y-16359D01*
X-165256Y-16358D01*
X-165256Y-19882D01*
X-175295D01*
X-192913Y-2264D01*
Y40059D01*
X-200498D01*
X-200768Y40095D01*
X-201037Y40059D01*
X-201083D01*
X-207874Y46850D01*
X-203642Y51083D01*
X-181299D01*
Y49016D01*
D02*
G37*
G36*
X-202724Y92258D02*
X-202809Y92228D01*
X-202884Y92177D01*
X-202949Y92106D01*
X-203005Y92015D01*
X-203050Y91904D01*
X-203085Y91772D01*
X-203111Y91620D01*
X-203126Y91448D01*
X-203132Y91256D01*
X-204132D01*
X-204136Y91448D01*
X-204151Y91620D01*
X-204175Y91772D01*
X-204210Y91904D01*
X-204255Y92015D01*
X-204309Y92106D01*
X-204374Y92177D01*
X-204449Y92228D01*
X-204534Y92258D01*
X-204629Y92268D01*
X-202629D01*
X-202724Y92258D01*
D02*
G37*
G36*
X-203133Y90816D02*
X-203126Y90663D01*
X-203105Y90512D01*
X-203069Y90361D01*
X-203019Y90211D01*
X-202954Y90063D01*
X-202875Y89915D01*
X-202781Y89769D01*
X-202673Y89624D01*
X-202550Y89480D01*
X-202413Y89337D01*
X-204863Y89344D01*
X-204725Y89486D01*
X-204601Y89630D01*
X-204492Y89774D01*
X-204397Y89920D01*
X-204317Y90067D01*
X-204251Y90215D01*
X-204200Y90364D01*
X-204163Y90515D01*
X-204141Y90666D01*
X-204133Y90819D01*
X-203133Y90816D01*
D02*
G37*
G36*
X-129078Y62583D02*
X-129088Y62678D01*
X-129119Y62763D01*
X-129169Y62838D01*
X-129240Y62903D01*
X-129331Y62958D01*
X-129443Y63003D01*
X-129574Y63038D01*
X-129726Y63063D01*
X-129898Y63078D01*
X-130090Y63083D01*
Y64083D01*
X-129898Y64088D01*
X-129726Y64103D01*
X-129574Y64128D01*
X-129443Y64163D01*
X-129331Y64208D01*
X-129240Y64263D01*
X-129169Y64328D01*
X-129119Y64403D01*
X-129088Y64488D01*
X-129078Y64583D01*
Y62583D01*
D02*
G37*
G36*
X-133056Y64670D02*
X-132913Y64547D01*
X-132768Y64438D01*
X-132622Y64344D01*
X-132474Y64264D01*
X-132326Y64199D01*
X-132177Y64148D01*
X-132026Y64112D01*
X-131875Y64090D01*
X-131722Y64083D01*
Y63083D01*
X-131875Y63075D01*
X-132026Y63054D01*
X-132177Y63017D01*
X-132326Y62967D01*
X-132474Y62901D01*
X-132622Y62822D01*
X-132768Y62727D01*
X-132913Y62619D01*
X-133056Y62495D01*
X-133199Y62358D01*
Y64808D01*
X-133056Y64670D01*
D02*
G37*
G36*
X-85545Y41327D02*
X-85515Y41241D01*
X-85464Y41166D01*
X-85394Y41100D01*
X-85303Y41044D01*
X-85191Y40997D01*
X-85060Y40961D01*
X-84908Y40934D01*
X-84736Y40917D01*
X-84544Y40909D01*
Y39909D01*
X-84736Y39906D01*
X-84908Y39894D01*
X-85060Y39871D01*
X-85191Y39837D01*
X-85303Y39794D01*
X-85394Y39740D01*
X-85464Y39676D01*
X-85515Y39601D01*
X-85545Y39517D01*
X-85555Y39422D01*
Y41422D01*
X-85545Y41327D01*
D02*
G37*
G36*
X-81482Y39145D02*
X-81623Y39285D01*
X-81765Y39410D01*
X-81908Y39520D01*
X-82053Y39617D01*
X-82199Y39698D01*
X-82347Y39765D01*
X-82496Y39818D01*
X-82646Y39856D01*
X-82797Y39880D01*
X-82950Y39889D01*
X-82937Y40889D01*
X-82784Y40894D01*
X-82632Y40914D01*
X-82481Y40948D01*
X-82331Y40997D01*
X-82182Y41061D01*
X-82034Y41138D01*
X-81887Y41231D01*
X-81740Y41338D01*
X-81595Y41459D01*
X-81451Y41595D01*
X-81482Y39145D01*
D02*
G37*
G36*
X-10030Y39878D02*
X-10465Y39875D01*
X-11245Y39823D01*
X-11590Y39774D01*
X-11905Y39709D01*
X-12189Y39630D01*
X-12443Y39535D01*
X-12667Y39425D01*
X-12861Y39299D01*
X-13024Y39158D01*
X-13732Y39865D01*
X-13591Y40029D01*
X-13465Y40223D01*
X-13355Y40447D01*
X-13260Y40701D01*
X-13180Y40985D01*
X-13116Y41300D01*
X-13067Y41644D01*
X-13015Y42424D01*
X-13012Y42860D01*
X-10030Y39878D01*
D02*
G37*
G36*
X-93677Y24000D02*
X-93867Y23995D01*
X-94037Y23980D01*
X-94187Y23955D01*
X-94317Y23920D01*
X-94427Y23875D01*
X-94517Y23820D01*
X-94587Y23755D01*
X-94637Y23680D01*
X-94667Y23595D01*
X-94677Y23500D01*
Y24988D01*
X-94667Y24990D01*
X-94637Y24992D01*
X-94187Y24999D01*
X-93677Y25000D01*
Y24000D01*
D02*
G37*
G36*
X-102619Y19699D02*
X-102704Y19669D01*
X-102779Y19618D01*
X-102844Y19547D01*
X-102899Y19456D01*
X-102944Y19345D01*
X-102979Y19213D01*
X-103004Y19061D01*
X-103019Y18889D01*
X-103024Y18697D01*
X-104024D01*
X-104029Y18889D01*
X-104044Y19061D01*
X-104069Y19213D01*
X-104104Y19345D01*
X-104149Y19456D01*
X-104204Y19547D01*
X-104269Y19618D01*
X-104344Y19669D01*
X-104429Y19699D01*
X-104524Y19709D01*
X-102524D01*
X-102619Y19699D01*
D02*
G37*
G36*
X-103019Y17038D02*
X-103004Y16868D01*
X-102979Y16718D01*
X-102944Y16588D01*
X-102899Y16478D01*
X-102844Y16388D01*
X-102779Y16318D01*
X-102704Y16268D01*
X-102619Y16238D01*
X-102524Y16228D01*
X-104524D01*
X-104429Y16238D01*
X-104344Y16268D01*
X-104269Y16318D01*
X-104204Y16388D01*
X-104149Y16478D01*
X-104104Y16588D01*
X-104069Y16718D01*
X-104044Y16868D01*
X-104029Y17038D01*
X-104024Y17228D01*
X-103024D01*
X-103019Y17038D01*
D02*
G37*
G36*
X-95453Y10545D02*
X-95538Y10515D01*
X-95613Y10464D01*
X-95678Y10394D01*
X-95733Y10302D01*
X-95778Y10191D01*
X-95813Y10060D01*
X-95834Y9935D01*
X-95829Y9903D01*
X-95793Y9752D01*
X-95742Y9603D01*
X-95677Y9455D01*
X-95597Y9307D01*
X-95503Y9161D01*
X-95394Y9017D01*
X-95271Y8873D01*
X-95133Y8730D01*
X-97583D01*
X-97445Y8873D01*
X-97322Y9017D01*
X-97214Y9161D01*
X-97119Y9307D01*
X-97040Y9455D01*
X-96974Y9603D01*
X-96924Y9752D01*
X-96887Y9903D01*
X-96883Y9935D01*
X-96903Y10060D01*
X-96938Y10191D01*
X-96983Y10302D01*
X-97038Y10394D01*
X-97103Y10464D01*
X-97178Y10515D01*
X-97263Y10545D01*
X-97358Y10555D01*
X-95358D01*
X-95453Y10545D01*
D02*
G37*
G36*
X-114340Y6776D02*
X-114350Y6871D01*
X-114381Y6956D01*
X-114431Y7031D01*
X-114502Y7096D01*
X-114593Y7151D01*
X-114705Y7196D01*
X-114836Y7231D01*
X-114988Y7256D01*
X-115160Y7271D01*
X-115352Y7276D01*
Y8276D01*
X-115160Y8281D01*
X-114988Y8296D01*
X-114836Y8321D01*
X-114705Y8356D01*
X-114593Y8401D01*
X-114502Y8456D01*
X-114431Y8521D01*
X-114381Y8596D01*
X-114350Y8681D01*
X-114340Y8776D01*
Y6776D01*
D02*
G37*
G36*
X-117041Y8681D02*
X-117011Y8596D01*
X-116961Y8521D01*
X-116890Y8456D01*
X-116799Y8401D01*
X-116687Y8356D01*
X-116556Y8321D01*
X-116404Y8296D01*
X-116232Y8281D01*
X-116040Y8276D01*
Y7276D01*
X-116232Y7271D01*
X-116404Y7256D01*
X-116556Y7231D01*
X-116687Y7196D01*
X-116799Y7151D01*
X-116890Y7096D01*
X-116961Y7031D01*
X-117011Y6956D01*
X-117041Y6871D01*
X-117052Y6776D01*
Y8776D01*
X-117041Y8681D01*
D02*
G37*
G36*
X-77811Y5791D02*
X-77821Y5886D01*
X-77851Y5971D01*
X-77902Y6046D01*
X-77973Y6111D01*
X-78064Y6166D01*
X-78175Y6211D01*
X-78307Y6246D01*
X-78458Y6271D01*
X-78630Y6286D01*
X-78823Y6291D01*
Y7291D01*
X-78630Y7296D01*
X-78458Y7311D01*
X-78307Y7336D01*
X-78175Y7371D01*
X-78064Y7416D01*
X-77973Y7471D01*
X-77902Y7536D01*
X-77851Y7611D01*
X-77821Y7696D01*
X-77811Y7791D01*
Y5791D01*
D02*
G37*
G36*
X-80199Y7696D02*
X-80169Y7611D01*
X-80119Y7536D01*
X-80049Y7471D01*
X-79959Y7416D01*
X-79849Y7371D01*
X-79719Y7336D01*
X-79569Y7311D01*
X-79399Y7296D01*
X-79209Y7291D01*
Y6291D01*
X-79399Y6286D01*
X-79569Y6271D01*
X-79719Y6246D01*
X-79849Y6211D01*
X-79959Y6166D01*
X-80049Y6111D01*
X-80119Y6046D01*
X-80169Y5971D01*
X-80199Y5886D01*
X-80209Y5791D01*
Y7791D01*
X-80199Y7696D01*
D02*
G37*
G36*
X-72534Y1299D02*
X-72503Y1214D01*
X-72453Y1139D01*
X-72382Y1074D01*
X-72291Y1019D01*
X-72179Y974D01*
X-72048Y939D01*
X-71896Y914D01*
X-71724Y899D01*
X-71532Y894D01*
Y-106D01*
X-71724Y-111D01*
X-71896Y-126D01*
X-72048Y-151D01*
X-72179Y-186D01*
X-72291Y-231D01*
X-72382Y-286D01*
X-72453Y-351D01*
X-72503Y-426D01*
X-72534Y-511D01*
X-72544Y-606D01*
Y1394D01*
X-72534Y1299D01*
D02*
G37*
G36*
X-118780Y-785D02*
X-118865Y-815D01*
X-118940Y-865D01*
X-119005Y-935D01*
X-119060Y-1025D01*
X-119105Y-1135D01*
X-119140Y-1265D01*
X-119165Y-1415D01*
X-119180Y-1585D01*
X-119185Y-1775D01*
X-120185D01*
X-120190Y-1585D01*
X-120205Y-1415D01*
X-120230Y-1265D01*
X-120265Y-1135D01*
X-120310Y-1025D01*
X-120365Y-935D01*
X-120430Y-865D01*
X-120505Y-815D01*
X-120590Y-785D01*
X-120685Y-775D01*
X-118685D01*
X-118780Y-785D01*
D02*
G37*
G36*
X-140128Y-9194D02*
X-140270Y-9057D01*
X-140414Y-8934D01*
X-140559Y-8825D01*
X-140705Y-8731D01*
X-140852Y-8651D01*
X-141001Y-8585D01*
X-141150Y-8535D01*
X-141301Y-8498D01*
X-141452Y-8477D01*
X-141462Y-8476D01*
X-142284Y-8507D01*
Y-7431D01*
X-142274Y-7439D01*
X-142244Y-7445D01*
X-142194Y-7451D01*
X-142034Y-7460D01*
X-141537Y-7466D01*
X-141452Y-7462D01*
X-141301Y-7440D01*
X-141150Y-7404D01*
X-141001Y-7353D01*
X-140852Y-7288D01*
X-140705Y-7209D01*
X-140559Y-7114D01*
X-140414Y-7006D01*
X-140270Y-6882D01*
X-140128Y-6745D01*
Y-9194D01*
D02*
G37*
G36*
X-9493Y-9482D02*
X-9470Y-9660D01*
X-9433Y-9827D01*
X-9382Y-9981D01*
X-9315Y-10124D01*
X-9234Y-10254D01*
X-9137Y-10373D01*
X-9026Y-10479D01*
X-8901Y-10574D01*
X-8760Y-10656D01*
X-11240D01*
X-11100Y-10574D01*
X-10974Y-10479D01*
X-10863Y-10373D01*
X-10766Y-10254D01*
X-10685Y-10124D01*
X-10618Y-9981D01*
X-10567Y-9827D01*
X-10530Y-9660D01*
X-10507Y-9482D01*
X-10500Y-9291D01*
X-9500D01*
X-9493Y-9482D01*
D02*
G37*
G36*
X-102245Y-14159D02*
X-102330Y-14190D01*
X-102405Y-14240D01*
X-102470Y-14311D01*
X-102525Y-14402D01*
X-102570Y-14514D01*
X-102605Y-14645D01*
X-102630Y-14797D01*
X-102645Y-14969D01*
X-102650Y-15161D01*
X-103650D01*
X-103655Y-14969D01*
X-103670Y-14797D01*
X-103695Y-14645D01*
X-103730Y-14514D01*
X-103775Y-14402D01*
X-103830Y-14311D01*
X-103895Y-14240D01*
X-103970Y-14190D01*
X-104055Y-14159D01*
X-104150Y-14149D01*
X-102150D01*
X-102245Y-14159D01*
D02*
G37*
G36*
X-102645Y-16035D02*
X-102630Y-16207D01*
X-102605Y-16359D01*
X-102570Y-16490D01*
X-102525Y-16602D01*
X-102470Y-16693D01*
X-102405Y-16764D01*
X-102330Y-16814D01*
X-102245Y-16845D01*
X-102150Y-16855D01*
X-104150D01*
X-104055Y-16845D01*
X-103970Y-16814D01*
X-103895Y-16764D01*
X-103830Y-16693D01*
X-103775Y-16602D01*
X-103730Y-16490D01*
X-103695Y-16359D01*
X-103670Y-16207D01*
X-103655Y-16035D01*
X-103650Y-15843D01*
X-102650D01*
X-102645Y-16035D01*
D02*
G37*
G36*
X-94589Y-18583D02*
X-94559Y-18668D01*
X-94509Y-18743D01*
X-94439Y-18808D01*
X-94349Y-18863D01*
X-94239Y-18908D01*
X-94109Y-18943D01*
X-93959Y-18968D01*
X-93789Y-18983D01*
X-93599Y-18988D01*
Y-19988D01*
X-93789Y-19993D01*
X-93959Y-20008D01*
X-94109Y-20033D01*
X-94239Y-20068D01*
X-94349Y-20113D01*
X-94439Y-20168D01*
X-94509Y-20233D01*
X-94559Y-20308D01*
X-94589Y-20393D01*
X-94599Y-20488D01*
Y-18488D01*
X-94589Y-18583D01*
D02*
G37*
G36*
X-9493Y-19516D02*
X-9472Y-19690D01*
X-9437Y-19851D01*
X-9389Y-20000D01*
X-9326Y-20136D01*
X-9250Y-20260D01*
X-9160Y-20372D01*
X-9056Y-20471D01*
X-8938Y-20558D01*
X-8806Y-20633D01*
X-11194D01*
X-11062Y-20558D01*
X-10944Y-20471D01*
X-10840Y-20372D01*
X-10750Y-20260D01*
X-10673Y-20136D01*
X-10611Y-20000D01*
X-10562Y-19851D01*
X-10528Y-19690D01*
X-10507Y-19516D01*
X-10500Y-19331D01*
X-9500D01*
X-9493Y-19516D01*
D02*
G37*
G36*
X-9491Y-29376D02*
X-9465Y-29568D01*
X-9421Y-29750D01*
X-9359Y-29921D01*
X-9280Y-30082D01*
X-9184Y-30233D01*
X-9070Y-30373D01*
X-8938Y-30503D01*
X-8789Y-30623D01*
X-8622Y-30733D01*
X-11378D01*
X-11211Y-30623D01*
X-11062Y-30503D01*
X-10930Y-30373D01*
X-10816Y-30233D01*
X-10719Y-30082D01*
X-10640Y-29921D01*
X-10579Y-29750D01*
X-10535Y-29568D01*
X-10509Y-29376D01*
X-10500Y-29173D01*
X-9500D01*
X-9491Y-29376D01*
D02*
G37*
G36*
X-151073Y-37110D02*
X-151071Y-37204D01*
X-151065Y-37297D01*
X-151055Y-37408D01*
X-151030Y-37560D01*
X-150995Y-37691D01*
X-150950Y-37802D01*
X-150895Y-37894D01*
X-150830Y-37964D01*
X-150755Y-38015D01*
X-150670Y-38045D01*
X-150575Y-38056D01*
X-151014D01*
X-150973Y-38677D01*
X-150942Y-38806D01*
X-150907Y-38900D01*
X-150867Y-38959D01*
X-152282D01*
X-152243Y-38900D01*
X-152208Y-38806D01*
X-152176Y-38677D01*
X-152149Y-38513D01*
X-152108Y-38082D01*
X-152107Y-38056D01*
X-152575D01*
X-152480Y-38045D01*
X-152395Y-38015D01*
X-152320Y-37964D01*
X-152255Y-37894D01*
X-152200Y-37802D01*
X-152155Y-37691D01*
X-152120Y-37560D01*
X-152095Y-37408D01*
X-152080Y-37236D01*
X-152076Y-37110D01*
X-152075Y-36799D01*
X-151075D01*
X-151073Y-37110D01*
D02*
G37*
G36*
X-144180Y-37236D02*
X-144165Y-37408D01*
X-144140Y-37560D01*
X-144105Y-37691D01*
X-144060Y-37802D01*
X-144005Y-37894D01*
X-143940Y-37964D01*
X-143865Y-38015D01*
X-143780Y-38045D01*
X-143685Y-38056D01*
X-144184D01*
X-144183Y-38294D01*
X-144083Y-39799D01*
X-144052Y-39928D01*
X-144017Y-40022D01*
X-143977Y-40081D01*
X-145393D01*
X-145353Y-40022D01*
X-145318Y-39928D01*
X-145287Y-39799D01*
X-145260Y-39636D01*
X-145218Y-39204D01*
X-145187Y-38294D01*
X-145186Y-38056D01*
X-145685D01*
X-145590Y-38045D01*
X-145505Y-38015D01*
X-145430Y-37964D01*
X-145365Y-37894D01*
X-145310Y-37802D01*
X-145265Y-37691D01*
X-145230Y-37560D01*
X-145205Y-37408D01*
X-145190Y-37236D01*
X-145185Y-37043D01*
X-144185D01*
X-144180Y-37236D01*
D02*
G37*
G36*
X-150863Y-40373D02*
X-150980Y-40537D01*
X-151009Y-40586D01*
X-151033Y-40632D01*
X-151051Y-40675D01*
X-151064Y-40715D01*
X-151072Y-40753D01*
X-151075Y-40787D01*
X-152075D01*
X-152077Y-40753D01*
X-152085Y-40715D01*
X-152098Y-40675D01*
X-152117Y-40632D01*
X-152140Y-40586D01*
X-152169Y-40537D01*
X-152243Y-40431D01*
X-152287Y-40373D01*
X-152337Y-40313D01*
X-150813D01*
X-150863Y-40373D01*
D02*
G37*
G36*
X-142527Y-39281D02*
X-142475Y-39399D01*
X-142390Y-39504D01*
X-142270Y-39595D01*
X-142116Y-39672D01*
X-141928Y-39735D01*
X-141705Y-39784D01*
X-141449Y-39819D01*
X-141158Y-39840D01*
X-140833Y-39847D01*
Y-41846D01*
X-141158Y-41853D01*
X-141705Y-41909D01*
X-141928Y-41958D01*
X-142116Y-42021D01*
X-142270Y-42098D01*
X-142390Y-42189D01*
X-142475Y-42294D01*
X-142527Y-42412D01*
X-142544Y-42545D01*
Y-39148D01*
X-142527Y-39281D01*
D02*
G37*
G36*
X-153728Y-42787D02*
X-153748Y-42597D01*
X-153808Y-42427D01*
X-153908Y-42277D01*
X-154048Y-42147D01*
X-154228Y-42037D01*
X-154448Y-41947D01*
X-154708Y-41877D01*
X-155008Y-41827D01*
X-155348Y-41797D01*
X-155728Y-41787D01*
Y-39787D01*
X-155348Y-39777D01*
X-155008Y-39747D01*
X-154708Y-39697D01*
X-154448Y-39627D01*
X-154228Y-39537D01*
X-154048Y-39427D01*
X-153908Y-39297D01*
X-153808Y-39147D01*
X-153748Y-38977D01*
X-153728Y-38787D01*
Y-42787D01*
D02*
G37*
G36*
X-158336Y-58099D02*
X-158306Y-58441D01*
X-158256Y-58743D01*
X-158186Y-59004D01*
X-158096Y-59226D01*
X-157986Y-59407D01*
X-157856Y-59548D01*
X-157706Y-59648D01*
X-157536Y-59709D01*
X-157346Y-59729D01*
X-161346D01*
X-161156Y-59709D01*
X-160986Y-59648D01*
X-160836Y-59548D01*
X-160706Y-59407D01*
X-160596Y-59226D01*
X-160506Y-59004D01*
X-160436Y-58743D01*
X-160386Y-58441D01*
X-160356Y-58099D01*
X-160346Y-57717D01*
X-158346D01*
X-158336Y-58099D01*
D02*
G37*
G36*
X-138647Y-58031D02*
X-138602Y-58337D01*
X-138528Y-58641D01*
X-138425Y-58943D01*
X-138291Y-59243D01*
X-138128Y-59542D01*
X-137936Y-59839D01*
X-137714Y-60133D01*
X-137462Y-60426D01*
X-137181Y-60718D01*
X-142142D01*
X-141860Y-60426D01*
X-141609Y-60133D01*
X-141387Y-59839D01*
X-141194Y-59542D01*
X-141032Y-59243D01*
X-140898Y-58943D01*
X-140795Y-58641D01*
X-140721Y-58337D01*
X-140676Y-58031D01*
X-140661Y-57723D01*
X-138661D01*
X-138647Y-58031D01*
D02*
G37*
G36*
X-115945Y-10299D02*
Y-13734D01*
X-88878Y-40801D01*
Y-59122D01*
X-86000Y-62000D01*
X-87500Y-63500D01*
Y-69250D01*
X-100825D01*
X-101654Y-68421D01*
Y-31500D01*
X-101803D01*
X-102069Y-31234D01*
X-102117Y-31117D01*
X-102117Y-31117D01*
X-118268Y-14967D01*
X-118413Y-14617D01*
X-118795Y-14459D01*
X-141019D01*
X-141068Y-14410D01*
X-142074D01*
X-142284Y-14417D01*
Y-14410D01*
X-147522D01*
X-147752Y-14179D01*
Y-13540D01*
X-147343Y-13130D01*
X-139583D01*
X-139661Y-13051D01*
X-139315Y-12695D01*
X-136510Y-9889D01*
X-116242D01*
X-115945Y-10299D01*
D02*
G37*
G36*
X-118795Y-15205D02*
X-102500Y-31500D01*
Y-68500D01*
X-104000Y-70000D01*
X-117000D01*
Y-63000D01*
X-127142Y-52858D01*
Y-16599D01*
X-147332D01*
X-147522Y-16409D01*
X-147752D01*
Y-15310D01*
X-147522D01*
X-147213Y-15000D01*
X-118795D01*
Y-15205D01*
D02*
G37*
D15*
X-118598Y125197D02*
D03*
Y132087D02*
D03*
X-115646Y64803D02*
D03*
Y57913D02*
D03*
X-172736Y-15954D02*
D03*
Y-9065D02*
D03*
D16*
X-118598Y111811D02*
D03*
Y117913D02*
D03*
X-194646Y94902D02*
D03*
Y101004D02*
D03*
X-96653Y107579D02*
D03*
Y113681D02*
D03*
X-75177Y394D02*
D03*
Y6496D02*
D03*
X-119685Y1673D02*
D03*
Y7776D02*
D03*
X-164335Y6201D02*
D03*
Y98D02*
D03*
X-154429Y6102D02*
D03*
Y0D02*
D03*
D17*
X-40354Y131398D02*
D03*
X-33465D02*
D03*
X-98224Y67461D02*
D03*
X-91335D02*
D03*
X-144685Y-40787D02*
D03*
X-151575D02*
D03*
D18*
X-33169Y122638D02*
D03*
X-39272D02*
D03*
X-104169Y93110D02*
D03*
X-98067D02*
D03*
X-118106D02*
D03*
X-112004D02*
D03*
X-94095Y40453D02*
D03*
X-87992D02*
D03*
X-97047Y-19488D02*
D03*
X-103150D02*
D03*
X-97126Y22343D02*
D03*
X-103228D02*
D03*
D19*
X-126669Y53071D02*
D03*
Y63701D02*
D03*
D20*
X-106827Y53386D02*
D03*
X-91000D02*
D03*
D21*
X-106787Y49409D02*
D03*
X-103638D02*
D03*
X-100488D02*
D03*
X-97339D02*
D03*
X-94189D02*
D03*
X-91039D02*
D03*
X-106787Y57362D02*
D03*
X-103638D02*
D03*
X-100488D02*
D03*
X-97339D02*
D03*
X-94189D02*
D03*
X-91039D02*
D03*
D22*
X-145022Y-15849D02*
D03*
Y-13879D02*
D03*
Y-11909D02*
D03*
Y-9939D02*
D03*
Y-7970D02*
D03*
X-162222D02*
D03*
Y-9939D02*
D03*
Y-11909D02*
D03*
Y-13879D02*
D03*
Y-15849D02*
D03*
D23*
X-97854Y-40650D02*
D03*
X-105453D02*
D03*
D24*
X-49783Y113681D02*
D03*
Y131398D02*
D03*
X-85610D02*
D03*
Y113681D02*
D03*
X-165728Y131398D02*
D03*
Y113681D02*
D03*
X-129902D02*
D03*
Y131398D02*
D03*
D25*
X-103720Y-11319D02*
D03*
X-96634D02*
D03*
X-103524Y13386D02*
D03*
X-96437D02*
D03*
D26*
X-83051Y6791D02*
D03*
Y-295D02*
D03*
X-111510Y7972D02*
D03*
Y886D02*
D03*
X-203622Y101496D02*
D03*
Y94410D02*
D03*
D49*
X-49000Y93110D02*
X-19780D01*
X-98067D02*
X-49000D01*
X-49020Y93131D02*
X-49000Y93110D01*
X-49020Y93131D02*
Y106468D01*
X-105780Y73228D02*
X-104169Y74839D01*
X-134449Y73228D02*
X-105780D01*
X-149381Y58296D02*
X-134449Y73228D01*
X-161500Y58296D02*
X-149381D01*
X-118030Y-13879D02*
X-97854Y-34055D01*
X-145022Y-13879D02*
X-118030D01*
X-97854Y-40650D02*
Y-34055D01*
X-119190Y-15849D02*
X-105748Y-29291D01*
X-145022Y-15849D02*
X-119190D01*
X-105748Y-40354D02*
Y-29291D01*
X-150272Y-32949D02*
Y-12294D01*
X-151575Y-34252D02*
X-150272Y-32949D01*
X-151575Y-39665D02*
Y-34252D01*
X-144685Y-40787D02*
Y-36417D01*
X-148772Y-32330D02*
X-144685Y-36417D01*
X-148772Y-32330D02*
Y-12915D01*
X-151575Y-40787D02*
Y-39665D01*
X-47441Y122736D02*
X-39272Y122638D01*
X-33465Y131398D02*
X-33169Y131102D01*
Y122638D02*
Y131102D01*
X-49783Y113681D02*
X-49606Y113858D01*
X-34449Y118405D02*
X-33863Y118991D01*
Y121944D01*
X-33169Y122638D01*
X-49020Y118405D02*
X-34449D01*
X-49606Y117820D02*
X-49020Y118405D01*
X-49606Y113858D02*
Y117820D01*
X-28390Y24500D02*
X-10000Y42890D01*
X-95165Y24500D02*
X-28390D01*
X-97126Y22539D02*
X-95165Y24500D01*
X-97126Y22343D02*
Y22539D01*
X-116043Y-6201D02*
X-23130D01*
X-119685Y-2559D02*
X-116043Y-6201D01*
X-119685Y-2559D02*
Y1673D01*
X-103720Y-11319D02*
X-103150Y-11890D01*
Y-19488D02*
Y-11890D01*
X-10000Y-33051D02*
Y-29173D01*
X-19685Y-19488D02*
X-10000Y-29173D01*
X-97047Y-19488D02*
X-19685D01*
X-10000Y-23051D02*
Y-19331D01*
X-23130Y-6201D02*
X-10000Y-19331D01*
Y-13051D02*
Y-9291D01*
X-19685Y394D02*
X-10000Y-9291D01*
X-75177Y394D02*
X-19685D01*
X-111707Y7776D02*
X-111510Y7972D01*
X-119685Y7776D02*
X-111707D01*
X-127142Y63583D02*
X-126846Y63878D01*
X-165925Y131398D02*
X-165827Y131496D01*
X-96358Y7480D02*
Y13307D01*
X-96437Y13386D02*
X-96358Y13307D01*
X-156004Y-14173D02*
Y-13325D01*
X-157384Y-11945D02*
X-156004Y-13325D01*
X-162222Y-11909D02*
X-157384Y-11945D01*
X-145022Y-7970D02*
X-138878D01*
X-158216Y-9889D02*
X-154134Y-5807D01*
X-162172Y-9889D02*
X-158216D01*
X-154134Y-5807D02*
Y-295D01*
X-87992Y40453D02*
X-80216Y40354D01*
X-134449Y63583D02*
X-127142D01*
X-126846Y63878D02*
X-126669Y63701D01*
X-175394Y131398D02*
X-165925D01*
X-165827Y131496D02*
X-165728Y131398D01*
X-203642Y88090D02*
X-203622Y94410D01*
X-150272Y-12294D02*
X-147968Y-9989D01*
X-164532Y98D02*
X-164335D01*
X-172343D02*
X-164532D01*
X-172441Y0D02*
X-172343Y98D01*
X-154429Y0D02*
X-145472D01*
X-86516Y54559D02*
Y72643D01*
X-87689Y53386D02*
X-86516Y54559D01*
X-87102Y73228D02*
X-86516Y72643D01*
X-88622Y81831D02*
X-85016Y78224D01*
Y51894D02*
Y78224D01*
X-87500Y49409D02*
X-85016Y51894D01*
X-94169Y81831D02*
X-88622D01*
X-91039Y49409D02*
X-87500D01*
X-104169Y74839D02*
Y81831D01*
Y74839D02*
X-102559Y73228D01*
X-87102D01*
X-91000Y53386D02*
X-87689D01*
X-108760Y42028D02*
X-108563Y42224D01*
X-95571Y106496D02*
X-88878D01*
X-96653Y107579D02*
X-95571Y106496D01*
X-85610Y113681D02*
X-85610Y113681D01*
X-96653Y113681D02*
X-85610D01*
X-108563Y42224D02*
X-105409D01*
X-108760D02*
X-108563D01*
X-103638Y43996D02*
Y49409D01*
X-105409Y42224D02*
X-103638Y43996D01*
X-114961Y42323D02*
Y47539D01*
Y42323D02*
X-114862Y42224D01*
X-114961Y47539D02*
X-113091Y49409D01*
X-106787D01*
X-91335Y67461D02*
X-91039Y67165D01*
Y57362D02*
Y67165D01*
X-194646Y46870D02*
X-194646Y46870D01*
X-94189Y40547D02*
Y49409D01*
Y40547D02*
X-94095Y40453D01*
X-148772Y-12915D02*
X-147816Y-11959D01*
X-145072D01*
X-145022Y-11909D01*
X-147968Y-9989D02*
X-145072D01*
X-145022Y-9939D01*
X-167126Y-7384D02*
X-166540Y-7970D01*
X-162222D01*
X-167126Y-7384D02*
Y-2693D01*
X-166492Y-2059D01*
Y-1862D01*
X-164532Y98D01*
X-154429Y0D02*
X-154134Y-295D01*
X-162222Y-9939D02*
X-162172Y-9889D01*
X-172631Y-15849D02*
X-162222D01*
X-172736Y-15954D02*
X-172631Y-15849D01*
X-75472Y6791D02*
X-75177Y6496D01*
X-83051Y6791D02*
X-75472D01*
X-103524Y22047D02*
X-103228Y22343D01*
X-103524Y13386D02*
Y22047D01*
X-176063Y113681D02*
X-165728D01*
X-129508Y117323D02*
X-128917Y117913D01*
X-129508Y114075D02*
Y117323D01*
X-129902Y113681D02*
X-129508Y114075D01*
X-128917Y117913D02*
X-118598D01*
X-95735Y87594D02*
X-94169Y86028D01*
X-98067Y87594D02*
X-95735D01*
X-19780Y93110D02*
X-10000Y102890D01*
X-112004Y93110D02*
Y93307D01*
X-107968Y85630D02*
X-104169Y81831D01*
X-111418Y85630D02*
X-107968D01*
X-112004Y86216D02*
X-111418Y85630D01*
X-112004Y86216D02*
Y93110D01*
X-98067Y87594D02*
Y93110D01*
X-94169Y81831D02*
Y86028D01*
X-118598Y125197D02*
X-118598Y125197D01*
X-118598Y117913D02*
Y125197D01*
X-85610Y113681D02*
X-49783D01*
X-165728D02*
X-129902D01*
X-203159Y101545D02*
X-195187D01*
D50*
X-170000Y74839D02*
X-161792D01*
X-161500Y74546D01*
X-183350Y88189D02*
X-170000Y74839D01*
X-194646Y88189D02*
X-183350D01*
X-152697Y-40787D02*
X-151575Y-39665D01*
X-139661Y-63248D02*
Y-42018D01*
X-140833Y-40846D02*
X-139661Y-42018D01*
X-144626Y-40846D02*
X-140833D01*
X-144685Y-40787D02*
X-144626Y-40846D01*
X-159346Y-42909D02*
X-157224Y-40787D01*
X-152697D01*
X-159346Y-63248D02*
Y-42909D01*
X-49783Y131398D02*
X-40354D01*
X-49783Y131398D02*
X-49783Y131398D01*
X-164173Y6437D02*
X-154429D01*
X-164508Y6102D02*
X-164173Y6437D01*
X-173622Y6102D02*
X-164508D01*
X-177953Y1772D02*
X-173622Y6102D01*
X-177953Y-14380D02*
Y1772D01*
Y-14380D02*
X-176781Y-15551D01*
X-173139D01*
X-172736Y-15954D01*
X-118352Y102264D02*
X-107480D01*
X-103839Y98622D01*
X-106787Y57362D02*
Y57437D01*
X-106988Y57638D02*
X-106787Y57437D01*
X-115370Y57638D02*
X-106988D01*
X-115646Y57913D02*
X-115370Y57638D01*
X-126669Y53071D02*
X-121079D01*
X-116236Y57913D01*
X-115646D01*
X-118198Y85859D02*
Y93202D01*
X-118352Y93356D02*
X-118198Y93202D01*
Y85859D02*
X-114169Y81831D01*
X-118352Y102264D02*
Y111565D01*
Y93356D02*
Y102264D01*
X-103839Y93441D02*
Y98622D01*
X-104169Y93110D02*
X-103839Y93441D01*
X-118598Y111811D02*
X-118352Y111565D01*
X-194646Y46870D02*
X-192795D01*
X-200768D02*
X-194646D01*
X-194646Y46870D02*
Y88189D01*
X-164173Y6437D02*
Y18248D01*
X-192795Y46870D02*
X-164173Y18248D01*
X-135705Y94902D02*
X-118795Y111811D01*
X-194646Y94902D02*
X-135705D01*
X-118795Y111811D02*
X-118598D01*
X-194646Y88189D02*
Y94902D01*
X-203701Y102087D02*
X-203159Y101545D01*
X-112941Y112630D02*
X-94173Y131398D01*
X-85610D01*
X-117780Y112630D02*
X-112941D01*
X-118598Y111811D02*
X-117780Y112630D01*
X-85610Y131398D02*
X-49783D01*
X-118598Y116575D02*
X-118598Y116575D01*
X-195187Y101545D02*
X-194646Y101004D01*
D51*
X-109449Y-40354D02*
X-105748D01*
X-111713Y-63047D02*
Y-42618D01*
Y-63047D02*
X-111315Y-63445D01*
X-111713Y-42618D02*
X-109449Y-40354D01*
X-91630Y-63445D02*
X-91437Y-63252D01*
Y-42224D01*
X-93307Y-40354D02*
X-91437Y-42224D01*
X-97559Y-40354D02*
X-93307D01*
X-97854Y-40650D02*
X-97559Y-40354D01*
D52*
X-91630Y-63445D02*
D03*
X-139661Y-63248D02*
D03*
D53*
X-111315Y-63445D02*
D03*
X-159346Y-63248D02*
D03*
D54*
X-10000Y92890D02*
D03*
Y22890D02*
D03*
Y32890D02*
D03*
Y42890D02*
D03*
Y52890D02*
D03*
Y62890D02*
D03*
Y72890D02*
D03*
Y82890D02*
D03*
Y102890D02*
D03*
X-200768Y-63130D02*
D03*
Y-53130D02*
D03*
Y-43130D02*
D03*
Y-33130D02*
D03*
Y-23130D02*
D03*
D55*
X-10000Y112890D02*
D03*
X-200768Y-13130D02*
D03*
D56*
Y76870D02*
D03*
X-10000Y6949D02*
D03*
D57*
X-200768Y66870D02*
D03*
Y56870D02*
D03*
Y46870D02*
D03*
Y36870D02*
D03*
Y26870D02*
D03*
Y16870D02*
D03*
Y6870D02*
D03*
X-10000Y-63051D02*
D03*
Y-53051D02*
D03*
Y-43051D02*
D03*
Y-33051D02*
D03*
Y-23051D02*
D03*
Y-13051D02*
D03*
Y-3051D02*
D03*
X-104169Y81831D02*
D03*
X-114169D02*
D03*
X-124169D02*
D03*
D58*
X-94169D02*
D03*
D59*
X-10000Y126890D02*
D03*
X-70630Y-73051D02*
D03*
X-200768Y131890D02*
D03*
D60*
X-49020Y106468D02*
D03*
X-47441Y122736D02*
D03*
X-96358Y7480D02*
D03*
X-156004Y-14173D02*
D03*
X-138878Y-7970D02*
D03*
X-80216Y40354D02*
D03*
X-134449Y63583D02*
D03*
X-175394Y131398D02*
D03*
X-203642Y88090D02*
D03*
X-172343Y98D02*
D03*
X-145472Y0D02*
D03*
X-88878Y106496D02*
D03*
X-114862Y42224D02*
D03*
X-108760D02*
D03*
X-176063Y113681D02*
D03*
X-194646Y88189D02*
D03*
D61*
X-161500Y66421D02*
D03*
Y50171D02*
D03*
Y58296D02*
D03*
Y74546D02*
D03*
Y82671D02*
D03*
M02*
