G04*
G04 #@! TF.GenerationSoftware,Altium Limited,Altium Designer,19.0.15 (446)*
G04*
G04 Layer_Color=128*
%FSLAX25Y25*%
%MOIN*%
G70*
G01*
G75*
%ADD62C,0.00200*%
D62*
X-93992Y-63445D02*
X-89268D01*
X-91630Y-65807D02*
Y-61083D01*
X-113677Y-63445D02*
X-108953D01*
X-111315Y-65807D02*
Y-61083D01*
X-142024Y-63248D02*
X-137299D01*
X-139661Y-65610D02*
Y-60886D01*
X-161709Y-63248D02*
X-156984D01*
X-159346Y-65610D02*
Y-60886D01*
X-12008Y92890D02*
X-7992D01*
X-10000Y90882D02*
Y94898D01*
X-12008Y22890D02*
X-7992D01*
X-10000Y20882D02*
Y24898D01*
X-12008Y32890D02*
X-7992D01*
X-10000Y30882D02*
Y34898D01*
X-12008Y42890D02*
X-7992D01*
X-10000Y40882D02*
Y44898D01*
X-12008Y52890D02*
X-7992D01*
X-10000Y50882D02*
Y54898D01*
X-12008Y62890D02*
X-7992D01*
X-10000Y60882D02*
Y64898D01*
X-12008Y72890D02*
X-7992D01*
X-10000Y70882D02*
Y74898D01*
X-12008Y82890D02*
X-7992D01*
X-10000Y80882D02*
Y84898D01*
X-12008Y102890D02*
X-7992D01*
X-10000Y100882D02*
Y104898D01*
X-12008Y112890D02*
X-7992D01*
X-10000Y110882D02*
Y114898D01*
X-202776Y76870D02*
X-198760D01*
X-200768Y74862D02*
Y78878D01*
X-202776Y66870D02*
X-198760D01*
X-200768Y64862D02*
Y68878D01*
X-202776Y56870D02*
X-198760D01*
X-200768Y54862D02*
Y58878D01*
X-202776Y46870D02*
X-198760D01*
X-200768Y44862D02*
Y48878D01*
X-202776Y36870D02*
X-198760D01*
X-200768Y34862D02*
Y38878D01*
X-202776Y26870D02*
X-198760D01*
X-200768Y24862D02*
Y28878D01*
X-202776Y16870D02*
X-198760D01*
X-200768Y14862D02*
Y18878D01*
X-202776Y6870D02*
X-198760D01*
X-200768Y4862D02*
Y8878D01*
X-12008Y-63051D02*
X-7992D01*
X-10000Y-65059D02*
Y-61043D01*
X-12008Y-53051D02*
X-7992D01*
X-10000Y-55059D02*
Y-51043D01*
X-12008Y-43051D02*
X-7992D01*
X-10000Y-45059D02*
Y-41043D01*
X-12008Y-33051D02*
X-7992D01*
X-10000Y-35059D02*
Y-31043D01*
X-12008Y-23051D02*
X-7992D01*
X-10000Y-25059D02*
Y-21043D01*
X-12008Y-13051D02*
X-7992D01*
X-10000Y-15059D02*
Y-11043D01*
X-12008Y-3051D02*
X-7992D01*
X-10000Y-5059D02*
Y-1043D01*
X-12008Y6949D02*
X-7992D01*
X-10000Y4941D02*
Y8957D01*
X-202776Y-63130D02*
X-198760D01*
X-200768Y-65138D02*
Y-61122D01*
X-202776Y-53130D02*
X-198760D01*
X-200768Y-55138D02*
Y-51122D01*
X-202776Y-43130D02*
X-198760D01*
X-200768Y-45138D02*
Y-41122D01*
X-202776Y-33130D02*
X-198760D01*
X-200768Y-35138D02*
Y-31122D01*
X-202776Y-23130D02*
X-198760D01*
X-200768Y-25138D02*
Y-21122D01*
X-202776Y-13130D02*
X-198760D01*
X-200768Y-15138D02*
Y-11122D01*
X-96177Y81831D02*
X-92161D01*
X-94169Y79823D02*
Y83839D01*
X-106177Y81831D02*
X-102161D01*
X-104169Y79823D02*
Y83839D01*
X-116177Y81831D02*
X-112161D01*
X-114169Y79823D02*
Y83839D01*
X-126177Y81831D02*
X-122161D01*
X-124169Y79823D02*
Y83839D01*
X-16299Y126890D02*
X-3701D01*
X-10000Y120591D02*
Y133189D01*
X-76929Y-73051D02*
X-64331D01*
X-70630Y-79350D02*
Y-66752D01*
X-207067Y131890D02*
X-194468D01*
X-200768Y125591D02*
Y138189D01*
X-101244Y42890D02*
X-99544D01*
X-100394Y42040D02*
Y43740D01*
X-108330Y68051D02*
X-106630D01*
X-107480Y67201D02*
Y68901D01*
X-49870Y106468D02*
X-48171D01*
X-49020Y105619D02*
Y107318D01*
X-162750Y66421D02*
X-160250D01*
X-161500Y65171D02*
Y67671D01*
X-162750Y50171D02*
X-160250D01*
X-161500Y48921D02*
Y51421D01*
X-162750Y58296D02*
X-160250D01*
X-161500Y57046D02*
Y59546D01*
X-162750Y74546D02*
X-160250D01*
X-161500Y73296D02*
Y75796D01*
X-162750Y82671D02*
X-160250D01*
X-161500Y81421D02*
Y83921D01*
X-48291Y122736D02*
X-46591D01*
X-47441Y121886D02*
Y123586D01*
X-97208Y7480D02*
X-95508D01*
X-96358Y6630D02*
Y8330D01*
X-156854Y-14173D02*
X-155154D01*
X-156004Y-15023D02*
Y-13323D01*
X-139728Y-7970D02*
X-138028D01*
X-138878Y-8820D02*
Y-7119D01*
X-81067Y40354D02*
X-79366D01*
X-80216Y39504D02*
Y41204D01*
X-135299Y63583D02*
X-133599D01*
X-134449Y62733D02*
Y64433D01*
X-176244Y131398D02*
X-174544D01*
X-175394Y130548D02*
Y132248D01*
X-204492Y88090D02*
X-202792D01*
X-203642Y87240D02*
Y88941D01*
X-173193Y98D02*
X-171493D01*
X-172343Y-752D02*
Y948D01*
X-146322Y0D02*
X-144622D01*
X-145472Y-850D02*
Y850D01*
X-89728Y106496D02*
X-88028D01*
X-88878Y105646D02*
Y107346D01*
X-115712Y42224D02*
X-114012D01*
X-114862Y41374D02*
Y43074D01*
X-109610Y42224D02*
X-107910D01*
X-108760Y41374D02*
Y43074D01*
X-176913Y113681D02*
X-175213D01*
X-176063Y112831D02*
Y114531D01*
X-195496Y88189D02*
X-193796D01*
X-194646Y87339D02*
Y89039D01*
M02*
