G04*
G04 #@! TF.GenerationSoftware,Altium Limited,Altium Designer,19.0.15 (446)*
G04*
G04 Layer_Color=16711935*
%FSLAX25Y25*%
%MOIN*%
G70*
G01*
G75*
%ADD39C,0.07887*%
%ADD40R,0.07887X0.07887*%
%ADD41C,0.06824*%
%ADD42R,0.06824X0.06824*%
%ADD43R,0.06194X0.06194*%
%ADD44C,0.06194*%
%ADD45R,0.06194X0.06194*%
%ADD46C,0.13398*%
%ADD47C,0.05800*%
%ADD48C,0.04300*%
D39*
X-91630Y-63445D02*
D03*
X-139661Y-63248D02*
D03*
D40*
X-111315Y-63445D02*
D03*
X-159346Y-63248D02*
D03*
D41*
X-10000Y92890D02*
D03*
Y22890D02*
D03*
Y32890D02*
D03*
Y42890D02*
D03*
Y52890D02*
D03*
Y62890D02*
D03*
Y72890D02*
D03*
Y82890D02*
D03*
Y102890D02*
D03*
X-200768Y-63130D02*
D03*
Y-53130D02*
D03*
Y-43130D02*
D03*
Y-33130D02*
D03*
Y-23130D02*
D03*
D42*
X-10000Y112890D02*
D03*
X-200768Y-13130D02*
D03*
D43*
Y76870D02*
D03*
X-10000Y6949D02*
D03*
D44*
X-200768Y66870D02*
D03*
Y56870D02*
D03*
Y46870D02*
D03*
Y36870D02*
D03*
Y26870D02*
D03*
Y16870D02*
D03*
Y6870D02*
D03*
X-10000Y-63051D02*
D03*
Y-53051D02*
D03*
Y-43051D02*
D03*
Y-33051D02*
D03*
Y-23051D02*
D03*
Y-13051D02*
D03*
Y-3051D02*
D03*
X-104169Y81831D02*
D03*
X-114169D02*
D03*
X-124169D02*
D03*
D45*
X-94169D02*
D03*
D46*
X-10000Y126890D02*
D03*
X-70630Y-73051D02*
D03*
X-200768Y131890D02*
D03*
D47*
X-161500Y66421D02*
D03*
Y50171D02*
D03*
Y58296D02*
D03*
Y74546D02*
D03*
Y82671D02*
D03*
D48*
X-156004Y-14173D02*
D03*
M02*
