G04*
G04 #@! TF.GenerationSoftware,Altium Limited,Altium Designer,19.0.15 (446)*
G04*
G04 Layer_Color=65535*
%FSLAX25Y25*%
%MOIN*%
G70*
G01*
G75*
%ADD10C,0.00787*%
%ADD11C,0.00500*%
%ADD12C,0.00600*%
%ADD13C,0.00197*%
%ADD14C,0.01041*%
G36*
X-166972Y-15099D02*
X-165972D01*
Y-16599D01*
X-166972D01*
Y-15099D01*
D02*
G37*
D10*
X-126276Y47362D02*
G03*
X-126276Y47362I-394J0D01*
G01*
X-90646Y62087D02*
G03*
X-90646Y62087I-394J0D01*
G01*
X-126079Y-63445D02*
G03*
X-126079Y-63445I-394J0D01*
G01*
X-174110Y-63248D02*
G03*
X-174110Y-63248I-394J0D01*
G01*
X-91909Y131398D02*
G03*
X-91909Y131398I-394J0D01*
G01*
X-122815Y113681D02*
G03*
X-122815Y113681I-394J0D01*
G01*
X-91909Y-11319D02*
G03*
X-91909Y-11319I-394J0D01*
G01*
X-82657Y-4626D02*
G03*
X-82657Y-4626I-394J0D01*
G01*
X-111116Y-3445D02*
G03*
X-111116Y-3445I-394J0D01*
G01*
X-91713Y13386D02*
G03*
X-91713Y13386I-394J0D01*
G01*
X-203228Y90079D02*
G03*
X-203228Y90079I-394J0D01*
G01*
X-15000Y17890D02*
Y117890D01*
X-5000Y17890D02*
Y117890D01*
X-15000Y17890D02*
X-5000D01*
X-15000Y117890D02*
X-5000D01*
X-205768Y81870D02*
X-195768D01*
X-205768Y1870D02*
X-195768D01*
Y81870D01*
X-205768Y1870D02*
Y81870D01*
X-15000Y-68051D02*
Y11949D01*
X-5000Y-68051D02*
Y11949D01*
X-15000Y-68051D02*
X-5000D01*
X-15000Y11949D02*
X-5000D01*
X-195768Y-68130D02*
Y-8130D01*
X-205768Y-68130D02*
X-195768D01*
X-205768D02*
Y-8130D01*
X-195768D01*
X-89169Y76831D02*
Y86831D01*
X-129169Y76831D02*
Y86831D01*
Y76831D02*
X-89169D01*
X-129169Y86831D02*
X-89169D01*
X-100964Y-8957D02*
X-99390D01*
X-100964Y-13681D02*
X-99390D01*
X-80689Y2461D02*
Y4035D01*
X-85413Y2461D02*
Y4035D01*
X-109148Y3642D02*
Y5217D01*
X-113872Y3642D02*
Y5217D01*
X-100768Y15748D02*
X-99193D01*
X-100768Y11024D02*
X-99193D01*
X-201260Y97165D02*
Y98740D01*
X-205984Y97165D02*
Y98740D01*
D11*
X-130350Y52087D02*
Y64685D01*
X-122988Y52087D02*
Y64685D01*
X-109248Y47480D02*
Y50906D01*
Y55866D02*
Y59291D01*
X-88579Y47480D02*
Y50906D01*
Y55866D02*
Y59291D01*
X-102047Y-43484D02*
X-101260D01*
X-102047Y-37815D02*
X-101260D01*
X-123520Y-79587D02*
X-121157D01*
X-123520Y-47303D02*
X-121157D01*
X-123520Y-79587D02*
Y-47303D01*
X-121157Y-79587D02*
Y-47303D01*
Y-79587D02*
X-81787D01*
Y-47303D01*
X-121157D02*
X-81787D01*
X-171551Y-79390D02*
X-169189D01*
X-171551Y-47106D02*
X-169189D01*
X-171551Y-79390D02*
Y-47106D01*
X-169189Y-79390D02*
Y-47106D01*
Y-79390D02*
X-129819D01*
Y-47106D01*
X-169189D02*
X-129819D01*
X-79508Y134350D02*
X-55886D01*
Y110728D02*
Y134350D01*
X-79508Y110728D02*
X-55886D01*
X-79508D02*
Y134350D01*
X-159626Y110728D02*
X-136004D01*
X-159626D02*
Y134350D01*
X-136004D01*
Y110728D02*
Y134350D01*
D12*
X-160222Y-18509D02*
Y-17709D01*
X-147022Y-6109D02*
Y-5309D01*
X-160222D02*
X-147022D01*
X-160222Y-6109D02*
Y-5309D01*
Y-18509D02*
X-147022D01*
Y-17709D01*
X-154755Y51970D02*
X-155422Y52636D01*
X-156755D01*
X-157421Y51970D01*
Y51304D01*
X-156755Y50637D01*
X-155422D01*
X-154755Y49971D01*
Y49304D01*
X-155422Y48638D01*
X-156755D01*
X-157421Y49304D01*
X-153422Y52636D02*
Y48638D01*
X-151423D01*
X-150757Y49304D01*
Y51970D01*
X-151423Y52636D01*
X-153422D01*
X-149424Y48638D02*
Y51304D01*
X-148091Y52636D01*
X-146758Y51304D01*
Y48638D01*
Y50637D01*
X-149424D01*
X-154755Y60095D02*
X-155422Y60761D01*
X-156755D01*
X-157421Y60095D01*
Y59429D01*
X-156755Y58762D01*
X-155422D01*
X-154755Y58096D01*
Y57429D01*
X-155422Y56763D01*
X-156755D01*
X-157421Y57429D01*
X-150757Y60095D02*
X-151423Y60761D01*
X-152756D01*
X-153422Y60095D01*
Y57429D01*
X-152756Y56763D01*
X-151423D01*
X-150757Y57429D01*
X-149424Y60761D02*
Y56763D01*
X-146758D01*
X-154755Y68887D02*
X-157421D01*
Y66887D01*
X-156088Y67554D01*
X-155422D01*
X-154755Y66887D01*
Y65554D01*
X-155422Y64888D01*
X-156755D01*
X-157421Y65554D01*
X-153422Y68887D02*
Y66221D01*
X-152090Y64888D01*
X-150757Y66221D01*
Y68887D01*
X-157421Y76345D02*
X-156755Y77012D01*
X-155422D01*
X-154755Y76345D01*
Y75679D01*
X-155422Y75012D01*
X-156088D01*
X-155422D01*
X-154755Y74346D01*
Y73679D01*
X-155422Y73013D01*
X-156755D01*
X-157421Y73679D01*
X-153422Y77012D02*
Y74346D01*
X-152090Y73013D01*
X-150757Y74346D01*
Y77012D01*
X-149424Y76345D02*
X-148757Y77012D01*
X-147424D01*
X-146758Y76345D01*
Y75679D01*
X-147424Y75012D01*
X-148091D01*
X-147424D01*
X-146758Y74346D01*
Y73679D01*
X-147424Y73013D01*
X-148757D01*
X-149424Y73679D01*
X-154755Y84470D02*
X-155422Y85136D01*
X-156755D01*
X-157421Y84470D01*
Y81804D01*
X-156755Y81138D01*
X-155422D01*
X-154755Y81804D01*
Y83137D01*
X-156088D01*
X-153422Y81138D02*
Y85136D01*
X-150757Y81138D01*
Y85136D01*
X-149424D02*
Y81138D01*
X-147424D01*
X-146758Y81804D01*
Y84470D01*
X-147424Y85136D01*
X-149424D01*
X-86614Y-42489D02*
X-83948D01*
X-121157Y-41997D02*
X-118492D01*
X-119825Y-40664D02*
Y-43330D01*
X-136319Y-42489D02*
X-133653D01*
X-168898Y-41997D02*
X-166232D01*
X-167565Y-40664D02*
Y-43330D01*
X-135419Y79575D02*
X-136085Y78908D01*
Y77575D01*
X-135419Y76909D01*
X-132753D01*
X-132087Y77575D01*
Y78908D01*
X-132753Y79575D01*
X-134086D01*
Y78241D01*
X-132087Y80907D02*
X-136085D01*
X-132087Y83573D01*
X-136085D01*
Y84906D02*
X-132087D01*
Y86905D01*
X-132753Y87572D01*
X-135419D01*
X-136085Y86905D01*
Y84906D01*
X-85714Y79241D02*
X-86381Y78574D01*
Y77241D01*
X-85714Y76575D01*
X-85048D01*
X-84381Y77241D01*
Y78574D01*
X-83715Y79241D01*
X-83048D01*
X-82382Y78574D01*
Y77241D01*
X-83048Y76575D01*
X-86381Y80573D02*
X-82382D01*
Y82573D01*
X-83048Y83239D01*
X-85714D01*
X-86381Y82573D01*
Y80573D01*
X-82382Y84572D02*
X-85048D01*
X-86381Y85905D01*
X-85048Y87238D01*
X-82382D01*
X-84381D01*
Y84572D01*
X-75098Y108133D02*
Y104800D01*
X-74432Y104134D01*
X-73099D01*
X-72433Y104800D01*
Y108133D01*
X-68434Y107466D02*
X-69100Y108133D01*
X-70433D01*
X-71100Y107466D01*
Y106800D01*
X-70433Y106133D01*
X-69100D01*
X-68434Y105467D01*
Y104800D01*
X-69100Y104134D01*
X-70433D01*
X-71100Y104800D01*
X-64435Y108133D02*
X-67101D01*
Y104134D01*
X-64435D01*
X-67101Y106133D02*
X-65768D01*
X-63102Y104134D02*
Y108133D01*
X-61103D01*
X-60436Y107466D01*
Y106133D01*
X-61103Y105467D01*
X-63102D01*
X-61769D02*
X-60436Y104134D01*
X-156693Y104035D02*
Y108034D01*
X-154694D01*
X-154027Y107368D01*
Y106035D01*
X-154694Y105368D01*
X-156693D01*
X-155360D02*
X-154027Y104035D01*
X-150028Y108034D02*
X-152694D01*
Y104035D01*
X-150028D01*
X-152694Y106035D02*
X-151361D01*
X-146030Y107368D02*
X-146696Y108034D01*
X-148029D01*
X-148696Y107368D01*
Y106701D01*
X-148029Y106035D01*
X-146696D01*
X-146030Y105368D01*
Y104702D01*
X-146696Y104035D01*
X-148029D01*
X-148696Y104702D01*
X-142031Y108034D02*
X-144697D01*
Y104035D01*
X-142031D01*
X-144697Y106035D02*
X-143364D01*
X-140698Y108034D02*
X-138032D01*
X-139365D01*
Y104035D01*
X-208268Y106102D02*
Y110101D01*
X-206268D01*
X-205602Y109435D01*
Y108102D01*
X-206268Y107435D01*
X-208268D01*
X-202270Y110101D02*
X-203603D01*
X-204269Y109435D01*
Y106769D01*
X-203603Y106102D01*
X-202270D01*
X-201603Y106769D01*
Y109435D01*
X-202270Y110101D01*
X-200270D02*
Y106102D01*
X-198937Y107435D01*
X-197605Y106102D01*
Y110101D01*
X-193606D02*
X-196272D01*
Y106102D01*
X-193606D01*
X-196272Y108102D02*
X-194939D01*
X-192273Y106102D02*
Y110101D01*
X-190273D01*
X-189607Y109435D01*
Y108102D01*
X-190273Y107435D01*
X-192273D01*
X-190940D02*
X-189607Y106102D01*
X-35204Y8398D02*
X-35871Y9064D01*
X-37203D01*
X-37870Y8398D01*
Y5732D01*
X-37203Y5065D01*
X-35871D01*
X-35204Y5732D01*
X-31205Y8398D02*
X-31872Y9064D01*
X-33205D01*
X-33871Y8398D01*
Y7731D01*
X-33205Y7065D01*
X-31872D01*
X-31205Y6398D01*
Y5732D01*
X-31872Y5065D01*
X-33205D01*
X-33871Y5732D01*
X-29872Y5065D02*
X-27207Y7731D01*
X-25874Y9064D02*
Y5065D01*
X-23874D01*
X-23208Y5732D01*
Y8398D01*
X-23874Y9064D01*
X-25874D01*
X-21875D02*
X-19209D01*
Y8398D01*
X-21875Y5732D01*
Y5065D01*
X-41868Y-5171D02*
Y-1172D01*
X-39869D01*
X-39203Y-1839D01*
Y-3171D01*
X-39869Y-3838D01*
X-41868D01*
X-37870Y-1172D02*
Y-5171D01*
X-36537Y-3838D01*
X-35204Y-5171D01*
Y-1172D01*
X-33871Y-5171D02*
Y-1172D01*
X-32538Y-2505D01*
X-31205Y-1172D01*
Y-5171D01*
X-29872D02*
X-27207Y-2505D01*
X-25874Y-1172D02*
Y-5171D01*
X-23874D01*
X-23208Y-4504D01*
Y-1839D01*
X-23874Y-1172D01*
X-25874D01*
X-19209D02*
X-20542Y-1839D01*
X-21875Y-3171D01*
Y-4504D01*
X-21208Y-5171D01*
X-19876D01*
X-19209Y-4504D01*
Y-3838D01*
X-19876Y-3171D01*
X-21875D01*
X-42000Y113832D02*
X-42666Y114499D01*
X-43999D01*
X-44665Y113832D01*
Y113166D01*
X-43999Y112499D01*
X-42666D01*
X-42000Y111833D01*
Y111167D01*
X-42666Y110500D01*
X-43999D01*
X-44665Y111167D01*
X-38001Y113832D02*
X-38667Y114499D01*
X-40000D01*
X-40667Y113832D01*
Y111167D01*
X-40000Y110500D01*
X-38667D01*
X-38001Y111167D01*
X-36668Y114499D02*
Y110500D01*
X-34002D01*
X-32669D02*
X-30003Y113166D01*
X-28670Y114499D02*
Y110500D01*
X-26671D01*
X-26005Y111167D01*
Y113832D01*
X-26671Y114499D01*
X-28670D01*
X-24672Y110500D02*
X-23339D01*
X-24005D01*
Y114499D01*
X-24672Y113832D01*
X-18674Y114499D02*
X-21339D01*
Y112499D01*
X-20007Y113166D01*
X-19340D01*
X-18674Y112499D01*
Y111167D01*
X-19340Y110500D01*
X-20673D01*
X-21339Y111167D01*
X-42535Y103772D02*
X-43201Y104438D01*
X-44534D01*
X-45201Y103772D01*
Y103105D01*
X-44534Y102439D01*
X-43201D01*
X-42535Y101772D01*
Y101106D01*
X-43201Y100439D01*
X-44534D01*
X-45201Y101106D01*
X-41202Y104438D02*
Y100439D01*
X-39203D01*
X-38536Y101106D01*
Y103772D01*
X-39203Y104438D01*
X-41202D01*
X-37203Y100439D02*
Y103105D01*
X-35871Y104438D01*
X-34538Y103105D01*
Y100439D01*
Y102439D01*
X-37203D01*
X-33205Y100439D02*
X-30539Y103105D01*
X-29206Y104438D02*
Y100439D01*
X-27207D01*
X-26540Y101106D01*
Y103772D01*
X-27207Y104438D01*
X-29206D01*
X-25207Y100439D02*
X-23874D01*
X-24541D01*
Y104438D01*
X-25207Y103772D01*
X-19876Y100439D02*
Y104438D01*
X-21875Y102439D01*
X-19209D01*
X-33871Y91089D02*
Y93755D01*
X-32538Y95088D01*
X-31205Y93755D01*
Y91089D01*
Y93088D01*
X-33871D01*
X-29872Y95088D02*
Y92422D01*
X-28539Y91089D01*
X-27207Y92422D01*
Y95088D01*
X-25874D02*
Y91089D01*
X-23874D01*
X-23208Y91755D01*
Y94421D01*
X-23874Y95088D01*
X-25874D01*
X-21875D02*
Y91089D01*
X-19876D01*
X-19209Y91755D01*
Y94421D01*
X-19876Y95088D01*
X-21875D01*
X-27207Y83791D02*
X-27873Y84458D01*
X-29206D01*
X-29872Y83791D01*
Y81125D01*
X-29206Y80459D01*
X-27873D01*
X-27207Y81125D01*
Y82458D01*
X-28539D01*
X-25874Y80459D02*
Y84458D01*
X-23208Y80459D01*
Y84458D01*
X-21875D02*
Y80459D01*
X-19876D01*
X-19209Y81125D01*
Y83791D01*
X-19876Y84458D01*
X-21875D01*
X-25874Y24615D02*
Y20617D01*
X-23874D01*
X-23208Y21283D01*
Y23949D01*
X-23874Y24615D01*
X-25874D01*
X-21875Y23949D02*
X-21208Y24615D01*
X-19876D01*
X-19209Y23949D01*
Y23282D01*
X-19876Y22616D01*
X-19209Y21949D01*
Y21283D01*
X-19876Y20617D01*
X-21208D01*
X-21875Y21283D01*
Y21949D01*
X-21208Y22616D01*
X-21875Y23282D01*
Y23949D01*
X-21208Y22616D02*
X-19876D01*
X-41868Y31148D02*
Y35147D01*
X-39869D01*
X-39203Y34480D01*
Y33147D01*
X-39869Y32481D01*
X-41868D01*
X-37870Y35147D02*
Y31148D01*
X-36537Y32481D01*
X-35204Y31148D01*
Y35147D01*
X-33871Y31148D02*
Y35147D01*
X-32538Y33814D01*
X-31205Y35147D01*
Y31148D01*
X-29872D02*
X-27207Y33814D01*
X-25874Y35147D02*
Y31148D01*
X-23874D01*
X-23208Y31814D01*
Y34480D01*
X-23874Y35147D01*
X-25874D01*
X-21875Y31814D02*
X-21208Y31148D01*
X-19876D01*
X-19209Y31814D01*
Y34480D01*
X-19876Y35147D01*
X-21208D01*
X-21875Y34480D01*
Y33814D01*
X-21208Y33147D01*
X-19209D01*
X-45201Y40892D02*
Y44891D01*
X-43201D01*
X-42535Y44224D01*
Y42891D01*
X-43201Y42225D01*
X-45201D01*
X-41202Y44891D02*
Y40892D01*
X-39869Y42225D01*
X-38536Y40892D01*
Y44891D01*
X-37203Y40892D02*
Y44891D01*
X-35871Y43558D01*
X-34538Y44891D01*
Y40892D01*
X-33205D02*
X-30539Y43558D01*
X-29206Y44891D02*
Y40892D01*
X-27207D01*
X-26540Y41559D01*
Y44224D01*
X-27207Y44891D01*
X-29206D01*
X-25207Y40892D02*
X-23874D01*
X-24541D01*
Y44891D01*
X-25207Y44224D01*
X-21875D02*
X-21208Y44891D01*
X-19876D01*
X-19209Y44224D01*
Y41559D01*
X-19876Y40892D01*
X-21208D01*
X-21875Y41559D01*
Y44224D01*
X-63195Y51522D02*
Y55521D01*
X-61196D01*
X-60529Y54854D01*
Y53521D01*
X-61196Y52855D01*
X-63195D01*
X-59196Y55521D02*
Y51522D01*
X-57863Y52855D01*
X-56530Y51522D01*
Y55521D01*
X-55198Y51522D02*
Y55521D01*
X-53865Y54188D01*
X-52532Y55521D01*
Y51522D01*
X-51199D02*
X-48533Y54188D01*
X-47200Y51522D02*
Y55521D01*
X-45867Y54188D01*
X-44534Y55521D01*
Y51522D01*
X-41202Y55521D02*
X-42535D01*
X-43201Y54854D01*
Y52188D01*
X-42535Y51522D01*
X-41202D01*
X-40536Y52188D01*
Y54854D01*
X-41202Y55521D01*
X-36537Y54854D02*
X-37203Y55521D01*
X-38536D01*
X-39203Y54854D01*
Y54188D01*
X-38536Y53521D01*
X-37203D01*
X-36537Y52855D01*
Y52188D01*
X-37203Y51522D01*
X-38536D01*
X-39203Y52188D01*
X-35204Y55521D02*
X-33871D01*
X-34538D01*
Y51522D01*
X-35204D01*
X-33871D01*
X-31872D02*
X-29206Y54188D01*
X-27873Y55521D02*
Y51522D01*
X-25874D01*
X-25207Y52188D01*
Y54854D01*
X-25874Y55521D01*
X-27873D01*
X-23874Y51522D02*
X-22541D01*
X-23208D01*
Y55521D01*
X-23874Y54854D01*
X-20542Y51522D02*
X-19209D01*
X-19876D01*
Y55521D01*
X-20542Y54854D01*
X-48533Y60872D02*
Y64871D01*
X-47200Y63538D01*
X-45867Y64871D01*
Y60872D01*
X-44534Y64871D02*
X-43201D01*
X-43868D01*
Y60872D01*
X-44534D01*
X-43201D01*
X-38536Y64205D02*
X-39203Y64871D01*
X-40536D01*
X-41202Y64205D01*
Y63538D01*
X-40536Y62872D01*
X-39203D01*
X-38536Y62205D01*
Y61539D01*
X-39203Y60872D01*
X-40536D01*
X-41202Y61539D01*
X-35204Y64871D02*
X-36537D01*
X-37203Y64205D01*
Y61539D01*
X-36537Y60872D01*
X-35204D01*
X-34538Y61539D01*
Y64205D01*
X-35204Y64871D01*
X-33205Y60872D02*
X-30539Y63538D01*
X-29206Y64871D02*
Y60872D01*
X-27207D01*
X-26540Y61539D01*
Y64205D01*
X-27207Y64871D01*
X-29206D01*
X-25207Y60872D02*
X-23874D01*
X-24541D01*
Y64871D01*
X-25207Y64205D01*
X-19209Y60872D02*
X-21875D01*
X-19209Y63538D01*
Y64205D01*
X-19876Y64871D01*
X-21208D01*
X-21875Y64205D01*
X-42535Y74441D02*
X-43201Y75107D01*
X-44534D01*
X-45201Y74441D01*
Y73774D01*
X-44534Y73108D01*
X-43201D01*
X-42535Y72442D01*
Y71775D01*
X-43201Y71109D01*
X-44534D01*
X-45201Y71775D01*
X-38536Y74441D02*
X-39203Y75107D01*
X-40536D01*
X-41202Y74441D01*
Y71775D01*
X-40536Y71109D01*
X-39203D01*
X-38536Y71775D01*
X-37203Y75107D02*
Y71109D01*
Y72442D01*
X-34538Y75107D01*
X-36537Y73108D01*
X-34538Y71109D01*
X-33205D02*
X-30539Y73774D01*
X-29206Y75107D02*
Y71109D01*
X-27207D01*
X-26540Y71775D01*
Y74441D01*
X-27207Y75107D01*
X-29206D01*
X-25207Y71109D02*
X-23874D01*
X-24541D01*
Y75107D01*
X-25207Y74441D01*
X-21875D02*
X-21208Y75107D01*
X-19876D01*
X-19209Y74441D01*
Y73774D01*
X-19876Y73108D01*
X-20542D01*
X-19876D01*
X-19209Y72442D01*
Y71775D01*
X-19876Y71109D01*
X-21208D01*
X-21875Y71775D01*
X-37870Y-64620D02*
Y-60621D01*
X-35871D01*
X-35204Y-61287D01*
Y-62620D01*
X-35871Y-63287D01*
X-37870D01*
X-36537D02*
X-35204Y-64620D01*
X-33871Y-60621D02*
X-31205Y-64620D01*
Y-60621D02*
X-33871Y-64620D01*
X-29872D02*
X-27207Y-61954D01*
X-25874Y-60621D02*
Y-64620D01*
X-23874D01*
X-23208Y-63953D01*
Y-61287D01*
X-23874Y-60621D01*
X-25874D01*
X-21875Y-61287D02*
X-21208Y-60621D01*
X-19876D01*
X-19209Y-61287D01*
Y-63953D01*
X-19876Y-64620D01*
X-21208D01*
X-21875Y-63953D01*
Y-61287D01*
X-36537Y-50090D02*
X-33871D01*
X-35204D01*
Y-54088D01*
X-32538Y-50090D02*
X-29872Y-54088D01*
Y-50090D02*
X-32538Y-54088D01*
X-28539D02*
X-25874Y-51422D01*
X-24541Y-50090D02*
Y-54088D01*
X-22541D01*
X-21875Y-53422D01*
Y-50756D01*
X-22541Y-50090D01*
X-24541D01*
X-20542Y-54088D02*
X-19209D01*
X-19876D01*
Y-50090D01*
X-20542Y-50756D01*
X-25874Y-40345D02*
Y-44344D01*
X-23874D01*
X-23208Y-43678D01*
Y-41012D01*
X-23874Y-40345D01*
X-25874D01*
X-19209Y-44344D02*
X-21875D01*
X-19209Y-41678D01*
Y-41012D01*
X-19876Y-40345D01*
X-21208D01*
X-21875Y-41012D01*
X-41868Y-33714D02*
Y-29715D01*
X-39869D01*
X-39203Y-30382D01*
Y-31715D01*
X-39869Y-32381D01*
X-41868D01*
X-37870Y-29715D02*
Y-33714D01*
X-36537Y-32381D01*
X-35204Y-33714D01*
Y-29715D01*
X-33871Y-33714D02*
Y-29715D01*
X-32538Y-31048D01*
X-31205Y-29715D01*
Y-33714D01*
X-29872D02*
X-27207Y-31048D01*
X-25874Y-29715D02*
Y-33714D01*
X-23874D01*
X-23208Y-33048D01*
Y-30382D01*
X-23874Y-29715D01*
X-25874D01*
X-21875Y-30382D02*
X-21208Y-29715D01*
X-19876D01*
X-19209Y-30382D01*
Y-31048D01*
X-19876Y-31715D01*
X-20542D01*
X-19876D01*
X-19209Y-32381D01*
Y-33048D01*
X-19876Y-33714D01*
X-21208D01*
X-21875Y-33048D01*
X-25874Y-20365D02*
Y-24364D01*
X-23874D01*
X-23208Y-23697D01*
Y-21032D01*
X-23874Y-20365D01*
X-25874D01*
X-19876Y-24364D02*
Y-20365D01*
X-21875Y-22365D01*
X-19209D01*
X-41868Y-14128D02*
Y-10129D01*
X-39869D01*
X-39203Y-10795D01*
Y-12128D01*
X-39869Y-12795D01*
X-41868D01*
X-37870Y-10129D02*
Y-14128D01*
X-36537Y-12795D01*
X-35204Y-14128D01*
Y-10129D01*
X-33871Y-14128D02*
Y-10129D01*
X-32538Y-11462D01*
X-31205Y-10129D01*
Y-14128D01*
X-29872D02*
X-27207Y-11462D01*
X-25874Y-10129D02*
Y-14128D01*
X-23874D01*
X-23208Y-13461D01*
Y-10795D01*
X-23874Y-10129D01*
X-25874D01*
X-19209D02*
X-21875D01*
Y-12128D01*
X-20542Y-11462D01*
X-19876D01*
X-19209Y-12128D01*
Y-13461D01*
X-19876Y-14128D01*
X-21208D01*
X-21875Y-13461D01*
X-192520Y-14281D02*
Y-11615D01*
X-191187Y-10282D01*
X-189854Y-11615D01*
Y-14281D01*
Y-12282D01*
X-192520D01*
X-188521Y-10949D02*
X-187855Y-10282D01*
X-186522D01*
X-185855Y-10949D01*
Y-13615D01*
X-186522Y-14281D01*
X-187855D01*
X-188521Y-13615D01*
Y-10949D01*
X-192520Y-24517D02*
Y-21852D01*
X-191187Y-20519D01*
X-189854Y-21852D01*
Y-24517D01*
Y-22518D01*
X-192520D01*
X-188521Y-24517D02*
X-187188D01*
X-187855D01*
Y-20519D01*
X-188521Y-21185D01*
X-192520Y-33868D02*
Y-31202D01*
X-191187Y-29869D01*
X-189854Y-31202D01*
Y-33868D01*
Y-31868D01*
X-192520D01*
X-185855Y-33868D02*
X-188521D01*
X-185855Y-31202D01*
Y-30536D01*
X-186522Y-29869D01*
X-187855D01*
X-188521Y-30536D01*
X-192520Y-44498D02*
Y-41832D01*
X-191187Y-40499D01*
X-189854Y-41832D01*
Y-44498D01*
Y-42498D01*
X-192520D01*
X-188521Y-41165D02*
X-187855Y-40499D01*
X-186522D01*
X-185855Y-41165D01*
Y-41832D01*
X-186522Y-42498D01*
X-187188D01*
X-186522D01*
X-185855Y-43165D01*
Y-43831D01*
X-186522Y-44498D01*
X-187855D01*
X-188521Y-43831D01*
X-192520Y-54242D02*
Y-51576D01*
X-191187Y-50243D01*
X-189854Y-51576D01*
Y-54242D01*
Y-52242D01*
X-192520D01*
X-186522Y-54242D02*
Y-50243D01*
X-188521Y-52242D01*
X-185855D01*
X-192520Y-64773D02*
Y-62107D01*
X-191187Y-60774D01*
X-189854Y-62107D01*
Y-64773D01*
Y-62774D01*
X-192520D01*
X-185855Y-60774D02*
X-188521D01*
Y-62774D01*
X-187188Y-62107D01*
X-186522D01*
X-185855Y-62774D01*
Y-64107D01*
X-186522Y-64773D01*
X-187855D01*
X-188521Y-64107D01*
X-192224Y8231D02*
Y5565D01*
X-190892Y4232D01*
X-189559Y5565D01*
Y8231D01*
X-188226D02*
X-186893D01*
X-187559D01*
Y4232D01*
X-188226D01*
X-186893D01*
X-184893D02*
Y8231D01*
X-182228Y4232D01*
Y8231D01*
X-189559Y18096D02*
X-190225Y18763D01*
X-191558D01*
X-192224Y18096D01*
Y15430D01*
X-191558Y14764D01*
X-190225D01*
X-189559Y15430D01*
Y16763D01*
X-190892D01*
X-188226Y14764D02*
Y18763D01*
X-185560Y14764D01*
Y18763D01*
X-184227D02*
Y14764D01*
X-182228D01*
X-181561Y15430D01*
Y18096D01*
X-182228Y18763D01*
X-184227D01*
X-189559Y27840D02*
X-190225Y28507D01*
X-191558D01*
X-192224Y27840D01*
Y25174D01*
X-191558Y24508D01*
X-190225D01*
X-189559Y25174D01*
Y26507D01*
X-190892D01*
X-188226Y24508D02*
Y28507D01*
X-185560Y24508D01*
Y28507D01*
X-184227D02*
Y24508D01*
X-182228D01*
X-181561Y25174D01*
Y27840D01*
X-182228Y28507D01*
X-184227D01*
X-189559Y39136D02*
X-192224D01*
Y37137D01*
X-190892Y37804D01*
X-190225D01*
X-189559Y37137D01*
Y35804D01*
X-190225Y35138D01*
X-191558D01*
X-192224Y35804D01*
X-188226Y39136D02*
Y36471D01*
X-186893Y35138D01*
X-185560Y36471D01*
Y39136D01*
X-192224Y47820D02*
X-191558Y48487D01*
X-190225D01*
X-189559Y47820D01*
Y47154D01*
X-190225Y46488D01*
X-190892D01*
X-190225D01*
X-189559Y45821D01*
Y45155D01*
X-190225Y44488D01*
X-191558D01*
X-192224Y45155D01*
X-188226Y48487D02*
Y45821D01*
X-186893Y44488D01*
X-185560Y45821D01*
Y48487D01*
X-184227Y47820D02*
X-183561Y48487D01*
X-182228D01*
X-181561Y47820D01*
Y47154D01*
X-182228Y46488D01*
X-182894D01*
X-182228D01*
X-181561Y45821D01*
Y45155D01*
X-182228Y44488D01*
X-183561D01*
X-184227Y45155D01*
X-192224Y54724D02*
Y58723D01*
X-189559Y54724D01*
Y58723D01*
X-188226Y54724D02*
Y58723D01*
X-186226D01*
X-185560Y58057D01*
Y56724D01*
X-186226Y56057D01*
X-188226D01*
X-186893D02*
X-185560Y54724D01*
X-181561Y58057D02*
X-182228Y58723D01*
X-183561D01*
X-184227Y58057D01*
Y57390D01*
X-183561Y56724D01*
X-182228D01*
X-181561Y56057D01*
Y55391D01*
X-182228Y54724D01*
X-183561D01*
X-184227Y55391D01*
X-180228Y58723D02*
X-177562D01*
X-178895D01*
Y54724D01*
X-192224Y68369D02*
X-190892D01*
X-191558D01*
Y64370D01*
X-192224D01*
X-190892D01*
X-186893Y68369D02*
X-188226D01*
X-188892Y67702D01*
Y65036D01*
X-188226Y64370D01*
X-186893D01*
X-186226Y65036D01*
Y67702D01*
X-186893Y68369D01*
X-184893Y64370D02*
Y68369D01*
X-182894D01*
X-182228Y67702D01*
Y66369D01*
X-182894Y65703D01*
X-184893D01*
X-183561D02*
X-182228Y64370D01*
X-178229Y68369D02*
X-180895D01*
Y64370D01*
X-178229D01*
X-180895Y66369D02*
X-179562D01*
X-174230Y68369D02*
X-176896D01*
Y66369D01*
X-175563D01*
X-176896D01*
Y64370D01*
X-162366Y-20001D02*
Y-23334D01*
X-161700Y-24000D01*
X-160367D01*
X-159700Y-23334D01*
Y-20001D01*
X-155702Y-24000D02*
X-158367D01*
X-155702Y-21334D01*
Y-20668D01*
X-156368Y-20001D01*
X-157701D01*
X-158367Y-20668D01*
X-85610Y58664D02*
Y55332D01*
X-84944Y54665D01*
X-83611D01*
X-82944Y55332D01*
Y58664D01*
X-81612Y54665D02*
X-80279D01*
X-80945D01*
Y58664D01*
X-81612Y57998D01*
X-170846Y10728D02*
Y14727D01*
X-168847D01*
X-168181Y14061D01*
Y12728D01*
X-168847Y12061D01*
X-170846D01*
X-169513D02*
X-168181Y10728D01*
X-166848D02*
X-165515D01*
X-166181D01*
Y14727D01*
X-166848Y14061D01*
X-161516Y10728D02*
Y14727D01*
X-163515Y12728D01*
X-160850D01*
X-157972Y10728D02*
Y14727D01*
X-155973D01*
X-155307Y14061D01*
Y12728D01*
X-155973Y12061D01*
X-157972D01*
X-156640D02*
X-155307Y10728D01*
X-153974D02*
X-152641D01*
X-153307D01*
Y14727D01*
X-153974Y14061D01*
X-150642D02*
X-149975Y14727D01*
X-148642D01*
X-147976Y14061D01*
Y13394D01*
X-148642Y12728D01*
X-149309D01*
X-148642D01*
X-147976Y12061D01*
Y11395D01*
X-148642Y10728D01*
X-149975D01*
X-150642Y11395D01*
X-107185Y-35827D02*
Y-31828D01*
X-105186D01*
X-104519Y-32495D01*
Y-33827D01*
X-105186Y-34494D01*
X-107185D01*
X-105852D02*
X-104519Y-35827D01*
X-103186D02*
X-101853D01*
X-102520D01*
Y-31828D01*
X-103186Y-32495D01*
X-97188Y-35827D02*
X-99854D01*
X-97188Y-33161D01*
Y-32495D01*
X-97855Y-31828D01*
X-99188D01*
X-99854Y-32495D01*
X-93209Y31496D02*
Y35495D01*
X-91209D01*
X-90543Y34828D01*
Y33495D01*
X-91209Y32829D01*
X-93209D01*
X-91876D02*
X-90543Y31496D01*
X-89210D02*
X-87877D01*
X-88543D01*
Y35495D01*
X-89210Y34828D01*
X-85878Y31496D02*
X-84545D01*
X-85211D01*
Y35495D01*
X-85878Y34828D01*
X-28150Y120571D02*
Y124570D01*
X-26150D01*
X-25484Y123903D01*
Y122570D01*
X-26150Y121904D01*
X-28150D01*
X-26817D02*
X-25484Y120571D01*
X-24151Y123903D02*
X-23484Y124570D01*
X-22152D01*
X-21485Y123903D01*
Y123237D01*
X-22152Y122570D01*
X-21485Y121904D01*
Y121237D01*
X-22152Y120571D01*
X-23484D01*
X-24151Y121237D01*
Y121904D01*
X-23484Y122570D01*
X-24151Y123237D01*
Y123903D01*
X-23484Y122570D02*
X-22152D01*
X-108071Y105217D02*
Y109215D01*
X-106071D01*
X-105405Y108549D01*
Y107216D01*
X-106071Y106549D01*
X-108071D01*
X-106738D02*
X-105405Y105217D01*
X-104072Y109215D02*
X-101406D01*
Y108549D01*
X-104072Y105883D01*
Y105217D01*
X-133366Y90945D02*
Y94944D01*
X-131367D01*
X-130700Y94277D01*
Y92944D01*
X-131367Y92278D01*
X-133366D01*
X-132033D02*
X-130700Y90945D01*
X-129367D02*
X-128034D01*
X-128701D01*
Y94944D01*
X-129367Y94277D01*
X-126035D02*
X-125369Y94944D01*
X-124036D01*
X-123369Y94277D01*
Y91611D01*
X-124036Y90945D01*
X-125369D01*
X-126035Y91611D01*
Y94277D01*
X-92303Y91240D02*
Y95239D01*
X-90304D01*
X-89637Y94572D01*
Y93239D01*
X-90304Y92573D01*
X-92303D01*
X-90970D02*
X-89637Y91240D01*
X-88304Y91907D02*
X-87638Y91240D01*
X-86305D01*
X-85639Y91907D01*
Y94572D01*
X-86305Y95239D01*
X-87638D01*
X-88304Y94572D01*
Y93906D01*
X-87638Y93239D01*
X-85639D01*
X-189370Y97736D02*
Y101735D01*
X-187371D01*
X-186704Y101068D01*
Y99736D01*
X-187371Y99069D01*
X-189370D01*
X-188037D02*
X-186704Y97736D01*
X-182706D02*
X-185371D01*
X-182706Y100402D01*
Y101068D01*
X-183372Y101735D01*
X-184705D01*
X-185371Y101068D01*
X-103642Y27559D02*
Y31558D01*
X-101642D01*
X-100976Y30891D01*
Y29558D01*
X-101642Y28892D01*
X-103642D01*
X-102309D02*
X-100976Y27559D01*
X-96977Y31558D02*
X-98310Y30891D01*
X-99643Y29558D01*
Y28225D01*
X-98977Y27559D01*
X-97644D01*
X-96977Y28225D01*
Y28892D01*
X-97644Y29558D01*
X-99643D01*
X-131398Y-492D02*
Y3507D01*
X-129398D01*
X-128732Y2840D01*
Y1507D01*
X-129398Y841D01*
X-131398D01*
X-130065D02*
X-128732Y-492D01*
X-124733Y3507D02*
X-127399D01*
Y1507D01*
X-126066Y2174D01*
X-125400D01*
X-124733Y1507D01*
Y174D01*
X-125400Y-492D01*
X-126733D01*
X-127399Y174D01*
X-70177Y2657D02*
Y6656D01*
X-68178D01*
X-67511Y5990D01*
Y4657D01*
X-68178Y3990D01*
X-70177D01*
X-68844D02*
X-67511Y2657D01*
X-64179D02*
Y6656D01*
X-66179Y4657D01*
X-63513D01*
X-101575Y-28346D02*
Y-24348D01*
X-99576D01*
X-98909Y-25014D01*
Y-26347D01*
X-99576Y-27014D01*
X-101575D01*
X-100242D02*
X-98909Y-28346D01*
X-97576Y-25014D02*
X-96910Y-24348D01*
X-95577D01*
X-94910Y-25014D01*
Y-25681D01*
X-95577Y-26347D01*
X-96243D01*
X-95577D01*
X-94910Y-27014D01*
Y-27680D01*
X-95577Y-28346D01*
X-96910D01*
X-97576Y-27680D01*
X-113484Y113287D02*
Y117286D01*
X-111485D01*
X-110819Y116620D01*
Y115287D01*
X-111485Y114620D01*
X-113484D01*
X-112151D02*
X-110819Y113287D01*
X-109485D02*
X-108153D01*
X-108819D01*
Y117286D01*
X-109485Y116620D01*
X-173122Y-20880D02*
X-173788Y-20214D01*
X-175121D01*
X-175787Y-20880D01*
Y-23546D01*
X-175121Y-24213D01*
X-173788D01*
X-173122Y-23546D01*
X-171789Y-20214D02*
X-169123D01*
Y-20880D01*
X-171789Y-23546D01*
Y-24213D01*
X-116129Y72919D02*
X-116796Y73585D01*
X-118129D01*
X-118795Y72919D01*
Y70253D01*
X-118129Y69587D01*
X-116796D01*
X-116129Y70253D01*
X-112131Y73585D02*
X-114796D01*
Y71586D01*
X-113464Y72252D01*
X-112797D01*
X-112131Y71586D01*
Y70253D01*
X-112797Y69587D01*
X-114130D01*
X-114796Y70253D01*
X-136606Y57860D02*
X-137272Y58526D01*
X-138605D01*
X-139272Y57860D01*
Y55194D01*
X-138605Y54528D01*
X-137272D01*
X-136606Y55194D01*
X-133274Y54528D02*
Y58526D01*
X-135273Y56527D01*
X-132607D01*
X-148929Y-32632D02*
X-149595Y-31966D01*
X-150928D01*
X-151594Y-32632D01*
Y-35298D01*
X-150928Y-35965D01*
X-149595D01*
X-148929Y-35298D01*
X-144930Y-31966D02*
X-146263Y-32632D01*
X-147596Y-33965D01*
Y-35298D01*
X-146929Y-35965D01*
X-145597D01*
X-144930Y-35298D01*
Y-34632D01*
X-145597Y-33965D01*
X-147596D01*
X-83850Y69474D02*
X-84516Y70140D01*
X-85849D01*
X-86516Y69474D01*
Y66808D01*
X-85849Y66142D01*
X-84516D01*
X-83850Y66808D01*
X-82517Y69474D02*
X-81851Y70140D01*
X-80518D01*
X-79851Y69474D01*
Y68808D01*
X-80518Y68141D01*
X-81184D01*
X-80518D01*
X-79851Y67475D01*
Y66808D01*
X-80518Y66142D01*
X-81851D01*
X-82517Y66808D01*
X-110523Y129612D02*
X-111190Y130278D01*
X-112522D01*
X-113189Y129612D01*
Y126946D01*
X-112522Y126279D01*
X-111190D01*
X-110523Y126946D01*
X-106525Y126279D02*
X-109190D01*
X-106525Y128945D01*
Y129612D01*
X-107191Y130278D01*
X-108524D01*
X-109190Y129612D01*
X-25484Y132663D02*
X-26150Y133329D01*
X-27483D01*
X-28150Y132663D01*
Y129997D01*
X-27483Y129331D01*
X-26150D01*
X-25484Y129997D01*
X-24151Y129331D02*
X-22818D01*
X-23484D01*
Y133329D01*
X-24151Y132663D01*
D13*
X-106870Y-15256D02*
X-93484D01*
Y-7382D01*
X-106870Y-15256D02*
Y-7382D01*
X-93484D01*
X-86988Y-3445D02*
Y9941D01*
Y-3445D02*
X-79114D01*
X-86988Y9941D02*
X-79114D01*
Y-3445D02*
Y9941D01*
X-115447Y-2264D02*
Y11122D01*
Y-2264D02*
X-107573D01*
X-115447Y11122D02*
X-107573D01*
Y-2264D02*
Y11122D01*
X-106673Y9449D02*
X-93287D01*
Y17323D01*
X-106673Y9449D02*
Y17323D01*
X-93287D01*
X-207559Y91260D02*
Y104646D01*
Y91260D02*
X-199685D01*
X-207559Y104646D02*
X-199685D01*
Y91260D02*
Y104646D01*
D14*
X-141722Y-20575D02*
X-145054Y-17243D01*
X-141722D02*
X-145054Y-20575D01*
X-141722Y-18909D02*
X-145054D01*
X-143388Y-17243D02*
Y-20575D01*
M02*
