M48
;Layer_Color=9474304
;FILE_FORMAT=2:5
INCH,LZ
;TYPE=PLATED
T1F00S00C0.01700
T2F00S00C0.02500
T3F00S00C0.04016
T4F00S00C0.04724
;TYPE=NON_PLATED
T5F00S00C0.12598
%
T01
X-0096358Y000748
X-0100394Y004289
X-010876Y0042224
X-0114862
X-010748Y0068051
X-0134449Y0063583
X-0080216Y0040354
X-0145472Y0
X-0138878Y-000797
X-0156004Y-0014173
X-0172343Y0000098
X-0194646Y0088189
X-0203642Y008809
X-0176063Y0113681
X-0175394Y0131398
X-0088878Y0106496
X-004902Y0106468
X-0047441Y0122736
T02
X-01615Y0050171
Y0058296
Y0066421
Y0074546
Y0082671
T03
X-0200768Y-006313
X-001Y-0063051
Y-0053051
Y-0043051
Y-0033051
Y-0023051
Y-0013051
Y-0003051
Y0006949
Y002289
Y003289
Y004289
Y005289
Y006289
Y007289
Y008289
Y009289
X-0094169Y0081831
X-0104169
X-0114169
X-0124169
X-0200768Y007687
Y006687
Y005687
Y004687
Y003687
Y002687
Y001687
Y000687
Y-001313
Y-002313
Y-003313
Y-004313
Y-005313
X-001Y010289
Y011289
T04
X-0159346Y-0063248
X-0139661
X-0111315Y-0063445
X-009163
T05
X-007063Y-0073051
X-0200768Y013189
X-001Y012689
M30
